NewsreaderCaption-ExtraLightItalic.ufo
<glyph name="exclam" format="2">
	<unicode hex="0021"/>
	<advance width="586"/>
	<outline>
		<contour>
			<point x="606" y="1414" type="line" smooth="yes"/>
			<point x="610" y="1428"/>
			<point x="594" y="1434"/>
			<point x="564" y="1434" type="curve" smooth="yes"/>
			<point x="537" y="1434"/>
			<point x="521" y="1428"/>
			<point x="517" y="1414" type="curve" smooth="yes"/>
			<point x="496" y="1347" type="line"/>
			<point x="457.6719242902" y="1212"/>
			<point x="325.9369085174" y="748"/>
			<point x="226" y="396" type="curve"/>
			<point x="275" y="396" type="line"/>
			<point x="390.1125131441" y="748"/>
			<point x="541.8517350158" y="1212"/>
			<point x="586" y="1347" type="curve"/>
		</contour>
		<contour>
			<point x="190" y="184" type="curve" smooth="yes"/>
			<point x="104" y="184"/>
			<point x="63" y="123"/>
			<point x="63" y="57" type="curve" smooth="yes"/>
			<point x="63" y="10"/>
			<point x="92" y="-14"/>
			<point x="141" y="-14" type="curve" smooth="yes"/>
			<point x="227" y="-14"/>
			<point x="268" y="47"/>
			<point x="268" y="113" type="curve" smooth="yes"/>
			<point x="268" y="160"/>
			<point x="239" y="184"/>
		</contour>
	</outline>
</glyph>
<glyph name="ampersand" format="2">
  <advance width="1519"/>
  <unicode hex="0026"/>
  <guideline x="639.0" y="826" angle="359.621806962424" identifier="UCEDjso9BI"/>
  <outline>
    <contour>
      <point x="997.0" y="194.0" type="line"/>
      <point x="1118.0" y="317.0"/>
      <point x="1245.0" y="508.0"/>
      <point x="1376.0" y="803.0" type="curve"/>
      <point x="1557.0" y="819.0" type="line"/>
      <point x="1571.0" y="864.0" type="line"/>
      <point x="1132.0" y="864.0" type="line"/>
      <point x="1118.0" y="819.0" type="line"/>
      <point x="1301.0" y="803.0" type="line"/>
      <point x="1188.0" y="524.0"/>
      <point x="1079.0" y="343.0"/>
      <point x="972.0" y="230.0" type="curve"/>
      <point x="948.0" y="205.0" type="line"/>
      <point x="836" y="93"/>
      <point x="707" y="39.0"/>
      <point x="533.0" y="39.0" type="curve" smooth="yes"/>
      <point x="300" y="39"/>
      <point x="192" y="155"/>
      <point x="192.0" y="332.0" type="curve" smooth="yes"/>
      <point x="192" y="508"/>
      <point x="281" y="637"/>
      <point x="613.0" y="751.0" type="curve"/>
      <point x="658.0" y="767.0" type="line"/>
      <point x="979.0" y="883.0"/>
      <point x="1104.0" y="1019.0"/>
      <point x="1104.0" y="1196.0" type="curve" smooth="yes"/>
      <point x="1104.0" y="1342.0"/>
      <point x="1012.0" y="1434.0"/>
      <point x="815.0" y="1434.0" type="curve" smooth="yes"/>
      <point x="563.0" y="1434.0"/>
      <point x="451" y="1296"/>
      <point x="451.0" y="1105.0" type="curve" smooth="yes"/>
      <point x="451.0" y="1014"/>
      <point x="477" y="951"/>
      <point x="588.0" y="768.0" type="curve" smooth="yes"/>
      <point x="1054.0" y="0.0" type="line"/>
      <point x="1307.0" y="0.0" type="line"/>
      <point x="1321.0" y="45.0" type="line"/>
      <point x="1101.0" y="61.0" type="line"/>
      <point x="637.0" y="826.0" type="line" smooth="yes"/>
      <point x="553" y="965"/>
      <point x="522.0" y="1046.0"/>
      <point x="522.0" y="1126.0" type="curve" smooth="yes"/>
      <point x="522" y="1275"/>
      <point x="609.0" y="1382.0"/>
      <point x="794.0" y="1382.0" type="curve" smooth="yes"/>
      <point x="969.0" y="1382.0"/>
      <point x="1033" y="1315"/>
      <point x="1033.0" y="1188.0" type="curve" smooth="yes"/>
      <point x="1033.0" y="1026"/>
      <point x="925" y="916"/>
      <point x="641.0" y="805.0" type="curve"/>
      <point x="598.0" y="792.0" type="line"/>
      <point x="211.0" y="658.0"/>
      <point x="117" y="524"/>
      <point x="117.0" y="313.0" type="curve" smooth="yes"/>
      <point x="117" y="118"/>
      <point x="245" y="-20"/>
      <point x="509.0" y="-20.0" type="curve" smooth="yes"/>
      <point x="689.0" y="-20.0"/>
      <point x="837" y="41.0"/>
      <point x="972.0" y="169.0" type="curve"/>
    </contour>
  </outline>
</glyph>
<glyph name="quotesingle" format="2">
	<unicode hex="0027"/>
	<advance width="380"/>
	<outline>
		<contour>
			<point x="305" y="990" type="line"/>
			<point x="354" y="990" type="line"/>
			<point x="498" y="1394" type="line"/>
			<point x="504" y="1414" type="line"/>
			<point x="415" y="1414" type="line"/>
			<point x="409" y="1394" type="line"/>
		</contour>
	</outline>
</glyph>
<glyph name="parenleft" format="2">
  <advance width="639"/>
  <unicode hex="0028"/>
  <outline>
    <contour>
      <point x="838.0" y="1439.0" type="curve"/>
      <point x="805.0" y="1484.0" type="line"/>
      <point x="242.0" y="1034.0"/>
      <point x="119.0" y="721.0"/>
      <point x="119.0" y="325.0" type="curve" smooth="yes"/>
      <point x="119.0" y="153.0"/>
      <point x="169.0" y="-22.0"/>
      <point x="287.0" y="-242.0" type="curve"/>
      <point x="337.0" y="-212.0" type="line"/>
      <point x="238.0" y="-30.0"/>
      <point x="192.0" y="146.0"/>
      <point x="192.0" y="314.0" type="curve" smooth="yes"/>
      <point x="192.0" y="756.0"/>
      <point x="379.0" y="1074.0"/>
    </contour>
  </outline>
</glyph>
<glyph name="parenright" format="2">
	<unicode hex="0029"/>
	<advance width="639"/>
	<outline>
		<contour>
			<point x="-133" y="-197" type="curve"/>
			<point x="-100" y="-242" type="line"/>
			<point x="463" y="208"/>
			<point x="586" y="521"/>
			<point x="586" y="917" type="curve" smooth="yes"/>
			<point x="586" y="1089"/>
			<point x="536" y="1264"/>
			<point x="418" y="1484" type="curve"/>
			<point x="368" y="1454" type="line"/>
			<point x="467" y="1272"/>
			<point x="513" y="1096"/>
			<point x="513" y="928" type="curve" smooth="yes"/>
			<point x="513" y="486"/>
			<point x="326" y="168"/>
		</contour>
	</outline>
</glyph>
<glyph name="asterisk" format="2">
	<unicode hex="002A"/>
	<advance width="856"/>
	<outline>
		<contour>
			<point x="732" y="818" type="line"/>
			<point x="643" y="1076" type="line"/>
			<point x="915" y="1093" type="line"/>
			<point x="913" y="1139" type="line"/>
			<point x="640" y="1134" type="line"/>
			<point x="708" y="1397" type="line"/>
			<point x="663" y="1410" type="line"/>
			<point x="585" y="1149" type="line"/>
			<point x="354" y="1294" type="line"/>
			<point x="329" y="1257" type="line"/>
			<point x="553" y="1101" type="line"/>
			<point x="343" y="927" type="line"/>
			<point x="371" y="891" type="line"/>
			<point x="588" y="1055" type="line"/>
			<point x="689" y="802" type="line"/>
		</contour>
	</outline>
</glyph>
<glyph name="plus" format="2">
	<unicode hex="002B"/>
	<advance width="1200"/>
	<outline>
		<contour>
			<point x="440" y="101" type="line"/>
			<point x="508" y="101" type="line"/>
			<point x="760" y="923" type="line"/>
			<point x="692" y="923" type="line"/>
		</contour>
		<contour>
			<point x="199" y="545" type="line"/>
			<point x="179" y="479" type="line"/>
			<point x="1001" y="479" type="line"/>
			<point x="1021" y="545" type="line"/>
		</contour>
	</outline>
</glyph>
<glyph name="comma" format="2">
	<unicode hex="002C"/>
	<advance width="474"/>
	<outline>
		<contour>
			<point x="-143" y="-294" type="curve"/>
			<point x="-118" y="-331" type="line"/>
			<point x="178" y="-125"/>
			<point x="229" y="-1"/>
			<point x="229" y="103" type="curve" smooth="yes"/>
			<point x="229" y="163"/>
			<point x="202" y="184"/>
			<point x="152" y="184" type="curve" smooth="yes"/>
			<point x="70" y="184"/>
			<point x="28" y="126"/>
			<point x="28" y="81" type="curve" smooth="yes"/>
			<point x="28" y="53"/>
			<point x="84" y="23"/>
			<point x="84" y="-32" type="curve" smooth="yes"/>
			<point x="84" y="-92"/>
			<point x="37" y="-167"/>
		</contour>
	</outline>
</glyph>
<glyph name="hyphen" format="2">
	<unicode hex="002D"/>
	<advance width="661"/>
	<outline>
		<contour>
			<point x="135" y="560" type="line"/>
			<point x="112" y="484" type="line"/>
			<point x="531" y="484" type="line"/>
			<point x="554" y="560" type="line"/>
		</contour>
	</outline>
</glyph>
<glyph name="period" format="2">
	<unicode hex="002E"/>
	<advance width="468"/>
	<outline>
		<contour>
			<point x="151" y="184" type="curve" smooth="yes"/>
			<point x="65" y="184"/>
			<point x="24" y="123"/>
			<point x="24" y="57" type="curve" smooth="yes"/>
			<point x="24" y="10"/>
			<point x="53" y="-14"/>
			<point x="102" y="-14" type="curve" smooth="yes"/>
			<point x="188" y="-14"/>
			<point x="229" y="47"/>
			<point x="229" y="113" type="curve" smooth="yes"/>
			<point x="229" y="160"/>
			<point x="200" y="184"/>
		</contour>
	</outline>
</glyph>
<glyph name="slash" format="2">
	<unicode hex="002F"/>
	<advance width="795"/>
	<outline>
		<contour>
			<point x="-72" y="0" type="line"/>
			<point x="2" y="0" type="line"/>
			<point x="988" y="1414" type="line"/>
			<point x="914" y="1414" type="line"/>
		</contour>
	</outline>
</glyph>
<glyph name="zero" format="2">
	<unicode hex="0030"/>
	<advance width="1300"/>
	<outline>
		<contour>
			<point x="219.5" y="392" type="curve" smooth="yes"/>
			<point x="219.5" y="807"/>
			<point x="478.5" y="1375"/>
			<point x="897.5" y="1375" type="curve" smooth="yes"/>
			<point x="1102.5" y="1375"/>
			<point x="1199.5" y="1241"/>
			<point x="1199.5" y="1022" type="curve" smooth="yes"/>
			<point x="1199.5" y="607"/>
			<point x="940.5" y="39"/>
			<point x="521.5" y="39" type="curve" smooth="yes"/>
			<point x="316.5" y="39"/>
			<point x="219.5" y="173"/>
		</contour>
		<contour>
			<point x="899.5" y="1434" type="curve" smooth="yes"/>
			<point x="435.5" y="1434"/>
			<point x="140.5" y="861"/>
			<point x="140.5" y="387" type="curve" smooth="yes"/>
			<point x="140.5" y="138"/>
			<point x="256.5" y="-20"/>
			<point x="519.5" y="-20" type="curve" smooth="yes"/>
			<point x="983.5" y="-20"/>
			<point x="1278.5" y="553"/>
			<point x="1278.5" y="1027" type="curve" smooth="yes"/>
			<point x="1278.5" y="1276"/>
			<point x="1162.5" y="1434"/>
		</contour>
	</outline>
</glyph>
<glyph name="one" format="2">
	<unicode hex="0031"/>
	<advance width="1300"/>
	<outline>
		<contour>
			<point x="556" y="63" type="line"/>
			<point x="235" y="47" type="line"/>
			<point x="220" y="0" type="line"/>
			<point x="924" y="0" type="line"/>
			<point x="939" y="47" type="line"/>
			<point x="630" y="63" type="line"/>
			<point x="1049" y="1434" type="line"/>
			<point x="994" y="1434" type="line"/>
			<point x="453" y="1219" type="line"/>
			<point x="469" y="1171" type="line"/>
			<point x="981" y="1352" type="line"/>
			<point x="954" y="1366" type="line"/>
		</contour>
	</outline>
</glyph>
<glyph name="colon" format="2">
	<unicode hex="003A"/>
	<advance width="527"/>
	<outline>
		<contour>
			<point x="157" y="184" type="curve" smooth="yes"/>
			<point x="71" y="184"/>
			<point x="30" y="123"/>
			<point x="30" y="57" type="curve" smooth="yes"/>
			<point x="30" y="10"/>
			<point x="59" y="-14"/>
			<point x="108" y="-14" type="curve" smooth="yes"/>
			<point x="194" y="-14"/>
			<point x="235" y="47"/>
			<point x="235" y="113" type="curve" smooth="yes"/>
			<point x="235" y="160"/>
			<point x="206" y="184"/>
		</contour>
		<contour>
			<point x="418" y="1038" type="curve" smooth="yes"/>
			<point x="332" y="1038"/>
			<point x="291" y="977"/>
			<point x="291" y="911" type="curve" smooth="yes"/>
			<point x="291" y="864"/>
			<point x="320" y="840"/>
			<point x="369" y="840" type="curve" smooth="yes"/>
			<point x="455" y="840"/>
			<point x="496" y="901"/>
			<point x="496" y="967" type="curve" smooth="yes"/>
			<point x="496" y="1014"/>
			<point x="467" y="1038"/>
		</contour>
	</outline>
</glyph>
<glyph name="semicolon" format="2">
	<unicode hex="003B"/>
	<advance width="569"/>
	<outline>
		<contour>
			<point x="-115" y="-294" type="curve"/>
			<point x="-90" y="-331" type="line"/>
			<point x="206" y="-125"/>
			<point x="257" y="-1"/>
			<point x="257" y="103" type="curve" smooth="yes"/>
			<point x="257" y="163"/>
			<point x="230" y="184"/>
			<point x="180" y="184" type="curve" smooth="yes"/>
			<point x="98" y="184"/>
			<point x="56" y="126"/>
			<point x="56" y="81" type="curve" smooth="yes"/>
			<point x="56" y="53"/>
			<point x="112" y="23"/>
			<point x="112" y="-32" type="curve" smooth="yes"/>
			<point x="112" y="-92"/>
			<point x="65" y="-167"/>
		</contour>
		<contour>
			<point x="449" y="1038" type="curve" smooth="yes"/>
			<point x="363" y="1038"/>
			<point x="322" y="977"/>
			<point x="322" y="911" type="curve" smooth="yes"/>
			<point x="322" y="864"/>
			<point x="351" y="840"/>
			<point x="400" y="840" type="curve" smooth="yes"/>
			<point x="486" y="840"/>
			<point x="527" y="901"/>
			<point x="527" y="967" type="curve" smooth="yes"/>
			<point x="527" y="1014"/>
			<point x="498" y="1038"/>
		</contour>
	</outline>
</glyph>
<glyph name="less" format="2">
  <advance width="1200"/>
  <unicode hex="003C"/>
  <guideline x="1124.0" y="909" angle="176.27903736280896" identifier="7Ybe3DVTSS"/>
  <outline>
    <contour>
      <point x="220.0" y="496.0" type="line"/>
      <point x="1100.0" y="828.0" type="line"/>
      <point x="1124.0" y="909.0" type="line"/>
      <point x="177.0" y="545.0" type="line"/>
      <point x="157.0" y="479.0" type="line"/>
      <point x="882.0" y="115.0" type="line"/>
      <point x="902.0" y="180.0" type="line"/>
      <point x="226.0" y="518.0" type="line"/>
    </contour>
  </outline>
</glyph>
<glyph name="greater" format="2">
	<unicode hex="003E"/>
	<advance width="1200"/>
	<outline>
		<contour>
			<point x="979" y="528" type="line"/>
			<point x="99" y="196" type="line"/>
			<point x="75" y="115" type="line"/>
			<point x="1022" y="479" type="line"/>
			<point x="1042" y="545" type="line"/>
			<point x="317" y="909" type="line"/>
			<point x="297" y="844" type="line"/>
			<point x="973" y="506" type="line"/>
		</contour>
	</outline>
</glyph>
<glyph name="question" format="2">
	<unicode hex="003F"/>
	<advance width="1031"/>
	<outline>
		<contour>
			<point x="376" y="184" type="curve" smooth="yes"/>
			<point x="290" y="184"/>
			<point x="249" y="123"/>
			<point x="249" y="57" type="curve" smooth="yes"/>
			<point x="249" y="10"/>
			<point x="278" y="-14"/>
			<point x="327" y="-14" type="curve" smooth="yes"/>
			<point x="413" y="-14"/>
			<point x="454" y="47"/>
			<point x="454" y="113" type="curve" smooth="yes"/>
			<point x="454" y="160"/>
			<point x="425" y="184"/>
		</contour>
		<contour>
			<point x="560" y="1434" type="curve" smooth="yes"/>
			<point x="366" y="1434"/>
			<point x="309" y="1372"/>
			<point x="309" y="1321" type="curve" smooth="yes"/>
			<point x="309" y="1289"/>
			<point x="335" y="1270"/>
			<point x="372" y="1270" type="curve" smooth="yes"/>
			<point x="411" y="1270"/>
			<point x="451" y="1383"/>
			<point x="635" y="1383" type="curve" smooth="yes"/>
			<point x="876" y="1383"/>
			<point x="977" y="1211"/>
			<point x="977" y="1041" type="curve" smooth="yes"/>
			<point x="977" y="837"/>
			<point x="828" y="732"/>
			<point x="490" y="763" type="curve"/>
			<point x="410" y="396" type="line"/>
			<point x="449" y="396" type="line"/>
			<point x="547" y="734" type="line"/>
			<point x="495" y="688" type="line"/>
			<point x="878" y="649"/>
			<point x="1038" y="795"/>
			<point x="1038" y="1022" type="curve" smooth="yes"/>
			<point x="1038" y="1217"/>
			<point x="915" y="1434"/>
		</contour>
	</outline>
</glyph>
<glyph name="at" format="2">
	<unicode hex="0040"/>
	<advance width="1953"/>
	<outline>
		<contour>
			<point x="1397" y="267" type="curve" smooth="yes"/>
			<point x="1304" y="267"/>
			<point x="1244" y="298"/>
			<point x="1244" y="377" type="curve" smooth="yes"/>
			<point x="1244" y="408"/>
			<point x="1251" y="445"/>
			<point x="1266" y="490" type="curve" smooth="yes"/>
			<point x="1431" y="999" type="line"/>
			<point x="1359" y="999" type="line"/>
			<point x="1318" y="873" type="line"/>
			<point x="1275" y="740" type="line" smooth="yes"/>
			<point x="1195" y="495"/>
			<point x="995" y="271"/>
			<point x="833" y="271" type="curve" smooth="yes"/>
			<point x="723" y="271"/>
			<point x="678" y="317"/>
			<point x="678" y="420" type="curve" smooth="yes"/>
			<point x="678" y="630"/>
			<point x="872" y="958"/>
			<point x="1110" y="958" type="curve" smooth="yes"/>
			<point x="1206" y="958"/>
			<point x="1282" y="915"/>
			<point x="1332" y="829" type="curve"/>
			<point x="1345" y="855" type="line"/>
			<point x="1298" y="950"/>
			<point x="1229" y="1015"/>
			<point x="1111" y="1015" type="curve" smooth="yes"/>
			<point x="809" y="1015"/>
			<point x="597" y="646"/>
			<point x="597" y="411" type="curve" smooth="yes"/>
			<point x="597" y="291"/>
			<point x="666" y="212"/>
			<point x="812" y="212" type="curve" smooth="yes"/>
			<point x="941" y="212"/>
			<point x="1065" y="297"/>
			<point x="1229" y="549" type="curve"/>
			<point x="1236" y="549" type="line"/>
			<point x="1215" y="490" type="line" smooth="yes"/>
			<point x="1198" y="441"/>
			<point x="1189" y="391"/>
			<point x="1189" y="355" type="curve" smooth="yes"/>
			<point x="1189" y="257"/>
			<point x="1266" y="212"/>
			<point x="1388" y="212" type="curve" smooth="yes"/>
			<point x="1711" y="212"/>
			<point x="1897" y="518"/>
			<point x="1897" y="876" type="curve" smooth="yes"/>
			<point x="1897" y="1234"/>
			<point x="1632" y="1434"/>
			<point x="1212" y="1434" type="curve" smooth="yes"/>
			<point x="436" y="1434"/>
			<point x="139" y="910"/>
			<point x="139" y="417" type="curve" smooth="yes"/>
			<point x="139" y="-11"/>
			<point x="413" y="-242"/>
			<point x="836" y="-242" type="curve" smooth="yes"/>
			<point x="1108" y="-242"/>
			<point x="1347" y="-171"/>
			<point x="1525" y="-50" type="curve"/>
			<point x="1500" y="-8" type="line"/>
			<point x="1310" y="-126"/>
			<point x="1104" y="-186"/>
			<point x="847" y="-186" type="curve" smooth="yes"/>
			<point x="443" y="-186"/>
			<point x="214" y="50"/>
			<point x="214" y="423" type="curve" smooth="yes"/>
			<point x="214" y="863"/>
			<point x="473" y="1379"/>
			<point x="1207" y="1379" type="curve" smooth="yes"/>
			<point x="1573" y="1379"/>
			<point x="1828" y="1208"/>
			<point x="1828" y="872" type="curve" smooth="yes"/>
			<point x="1828" y="513"/>
			<point x="1662" y="267"/>
		</contour>
	</outline>
</glyph>
<glyph name="A" format="2">
	<unicode hex="0041"/>
	<advance width="1505"/>
	<outline>
		<contour>
			<point x="422" y="522" type="line"/>
			<point x="1075" y="522" type="line"/>
			<point x="1095" y="586" type="line"/>
			<point x="443" y="586" type="line"/>
		</contour>
		<contour>
			<point x="1179" y="62" type="line"/>
			<point x="1060" y="1414" type="line"/>
			<point x="969" y="1414" type="line"/>
			<point x="75" y="63" type="line"/>
			<point x="-116" y="47" type="line"/>
			<point x="-130" y="0" type="line"/>
			<point x="322" y="0" type="line"/>
			<point x="337" y="47" type="line"/>
			<point x="147" y="62" type="line"/>
			<point x="1010" y="1372" type="line"/>
			<point x="990" y="1372" type="line"/>
			<point x="1102" y="63" type="line"/>
			<point x="884" y="47" type="line"/>
			<point x="869" y="0" type="line"/>
			<point x="1351" y="0" type="line"/>
			<point x="1365" y="47" type="line"/>
		</contour>
	</outline>
	<anchor name="UCtop" x="994" y="1414"/>
	<anchor name="bottom" x="601" y="0"/>
	<anchor name="right" x="1258" y="0"/>
</glyph>
<glyph name="B" format="2">
	<unicode hex="0042"/>
	<advance width="1299"/>
	<outline>
		<contour>
			<point x="608" y="1350" type="line"/>
			<point x="857" y="1350" type="line" smooth="yes"/>
			<point x="1084" y="1350"/>
			<point x="1171" y="1275"/>
			<point x="1171" y="1136" type="curve" smooth="yes"/>
			<point x="1171" y="916"/>
			<point x="1027" y="790"/>
			<point x="775" y="790" type="curve" smooth="yes"/>
			<point x="439" y="790" type="line"/>
			<point x="411" y="726" type="line"/>
			<point x="780" y="726" type="line" smooth="yes"/>
			<point x="981" y="726"/>
			<point x="1072" y="648"/>
			<point x="1072" y="492" type="curve" smooth="yes"/>
			<point x="1072" y="223"/>
			<point x="904" y="64"/>
			<point x="581" y="64" type="curve" smooth="yes"/>
			<point x="212" y="64" type="line"/>
			<point x="184" y="0" type="line"/>
			<point x="577" y="0" type="line" smooth="yes"/>
			<point x="958" y="0"/>
			<point x="1146" y="206"/>
			<point x="1146" y="486" type="curve" smooth="yes"/>
			<point x="1146" y="660"/>
			<point x="1043" y="758"/>
			<point x="851" y="767" type="curve"/>
			<point x="828" y="753" type="line"/>
			<point x="1079" y="758"/>
			<point x="1246" y="903"/>
			<point x="1246" y="1145" type="curve" smooth="yes"/>
			<point x="1246" y="1312"/>
			<point x="1135" y="1414"/>
			<point x="881" y="1414" type="curve" smooth="yes"/>
			<point x="616" y="1414" type="line"/>
		</contour>
		<contour>
			<point x="568" y="1351" type="line"/>
			<point x="174" y="63" type="line"/>
			<point x="-41" y="47" type="line"/>
			<point x="-55" y="0" type="line"/>
			<point x="231" y="0" type="line"/>
			<point x="663" y="1414" type="line"/>
			<point x="377" y="1414" type="line"/>
			<point x="362" y="1367" type="line"/>
		</contour>
	</outline>
	<anchor name="UCtop" x="851" y="1414"/>
	<anchor name="bottom" x="538" y="0"/>
</glyph>
<glyph name="C" format="2">
	<unicode hex="0043"/>
	<advance width="1485"/>
	<outline>
		<contour>
			<point x="1178" y="116" type="line"/>
			<point x="1085" y="72"/>
			<point x="940" y="44"/>
			<point x="798" y="44" type="curve" smooth="yes"/>
			<point x="439" y="44"/>
			<point x="268" y="213"/>
			<point x="268" y="554" type="curve" smooth="yes"/>
			<point x="268" y="917"/>
			<point x="475" y="1368"/>
			<point x="1058" y="1368" type="curve" smooth="yes"/>
			<point x="1216" y="1368"/>
			<point x="1381" y="1342"/>
			<point x="1508" y="1249" type="curve"/>
			<point x="1467" y="1348" type="line"/>
			<point x="1396" y="991" type="line"/>
			<point x="1452" y="991" type="line"/>
			<point x="1596" y="1464" type="line"/>
			<point x="1551" y="1464" type="line"/>
			<point x="1475" y="1337" type="line"/>
			<point x="1533" y="1349" type="line"/>
			<point x="1441" y="1397"/>
			<point x="1246" y="1434"/>
			<point x="1077" y="1434" type="curve" smooth="yes"/>
			<point x="422" y="1434"/>
			<point x="185" y="946"/>
			<point x="185" y="529" type="curve" smooth="yes"/>
			<point x="185" y="183"/>
			<point x="395" y="-20"/>
			<point x="791" y="-20" type="curve" smooth="yes"/>
			<point x="929" y="-20"/>
			<point x="1080" y="9"/>
			<point x="1201" y="55" type="curve"/>
			<point x="1358" y="395" type="line"/>
			<point x="1303" y="395" type="line"/>
			<point x="1087" y="36" type="line"/>
		</contour>
	</outline>
	<anchor name="UCtop" x="1066" y="1414"/>
	<anchor name="bottom" x="693" y="0"/>
	<anchor name="right" x="1199" y="0"/>
</glyph>
<glyph name="D" format="2">
	<unicode hex="0044"/>
	<advance width="1539"/>
	<outline>
		<contour>
			<point x="590" y="64" type="curve" smooth="yes"/>
			<point x="202" y="64" type="line"/>
			<point x="181" y="0" type="line"/>
			<point x="576" y="0" type="line" smooth="yes"/>
			<point x="1125" y="0"/>
			<point x="1475" y="361"/>
			<point x="1475" y="898" type="curve" smooth="yes"/>
			<point x="1475" y="1253"/>
			<point x="1308" y="1414"/>
			<point x="898" y="1414" type="curve" smooth="yes"/>
			<point x="614" y="1414" type="line"/>
			<point x="593" y="1350" type="line"/>
			<point x="849" y="1350" type="line" smooth="yes"/>
			<point x="1265" y="1350"/>
			<point x="1391" y="1196"/>
			<point x="1391" y="894" type="curve" smooth="yes"/>
			<point x="1391" y="370"/>
			<point x="1058" y="64"/>
		</contour>
		<contour>
			<point x="568" y="1351" type="line"/>
			<point x="174" y="63" type="line"/>
			<point x="-41" y="47" type="line"/>
			<point x="-55" y="0" type="line"/>
			<point x="231" y="0" type="line"/>
			<point x="663" y="1414" type="line"/>
			<point x="377" y="1414" type="line"/>
			<point x="362" y="1367" type="line"/>
		</contour>
	</outline>
	<anchor name="UCtop" x="1036" y="1414"/>
	<anchor name="bottom" x="593" y="0"/>
</glyph>
<glyph name="E" format="2">
	<unicode hex="0045"/>
	<advance width="1379"/>
	<outline>
		<contour>
			<point x="568" y="1351" type="line"/>
			<point x="174" y="63" type="line"/>
			<point x="-41" y="47" type="line"/>
			<point x="-55" y="0" type="line"/>
			<point x="231" y="0" type="line"/>
			<point x="663" y="1414" type="line"/>
			<point x="377" y="1414" type="line"/>
			<point x="362" y="1367" type="line"/>
		</contour>
		<contour>
			<point x="1405" y="1402" type="line"/>
			<point x="1331" y="1068" type="line"/>
			<point x="1389" y="1068" type="line"/>
			<point x="1523" y="1484" type="line"/>
			<point x="1478" y="1484" type="line"/>
			<point x="1418" y="1414" type="line"/>
			<point x="597" y="1414" type="line"/>
			<point x="576" y="1350" type="line"/>
			<point x="1431" y="1350" type="line"/>
		</contour>
		<contour>
			<point x="968" y="-72" type="line"/>
			<point x="1030" y="-72" type="line"/>
			<point x="1237" y="380" type="line"/>
			<point x="1181" y="380" type="line"/>
			<point x="981" y="42" type="line"/>
			<point x="1058" y="64" type="line"/>
			<point x="185" y="64" type="line"/>
			<point x="164" y="0" type="line"/>
			<point x="977" y="0" type="line"/>
		</contour>
		<contour>
			<point x="906" y="477" type="line"/>
			<point x="984" y="732" type="line"/>
			<point x="1062" y="988" type="line"/>
			<point x="1014" y="988" type="line"/>
			<point x="917" y="766" type="line"/>
			<point x="451" y="766" type="line"/>
			<point x="430" y="702" type="line"/>
			<point x="898" y="702" type="line"/>
			<point x="858" y="477" type="line"/>
		</contour>
	</outline>
	<anchor name="UCtop" x="950" y="1414"/>
	<anchor name="right" x="1036" y="0"/>
	<anchor name="bottom" x="547" y="0"/>
</glyph>
<glyph name="F" format="2">
	<unicode hex="0046"/>
	<advance width="1259"/>
	<outline>
		<contour>
			<point x="1046" y="938" type="line"/>
			<point x="998" y="938" type="line"/>
			<point x="901" y="716" type="line"/>
			<point x="435" y="716" type="line"/>
			<point x="414" y="652" type="line"/>
			<point x="882" y="652" type="line"/>
			<point x="842" y="427" type="line"/>
			<point x="890" y="427" type="line"/>
			<point x="968" y="682" type="line"/>
		</contour>
		<contour>
			<point x="1332" y="1068" type="line"/>
			<point x="1466" y="1484" type="line"/>
			<point x="1421" y="1484" type="line"/>
			<point x="1361" y="1414" type="line"/>
			<point x="597" y="1414" type="line"/>
			<point x="576" y="1350" type="line"/>
			<point x="1374" y="1350" type="line"/>
			<point x="1348" y="1402" type="line"/>
			<point x="1274" y="1068" type="line"/>
		</contour>
		<contour>
			<point x="250" y="63" type="line"/>
			<point x="663" y="1414" type="line"/>
			<point x="377" y="1414" type="line"/>
			<point x="362" y="1367" type="line"/>
			<point x="568" y="1351" type="line"/>
			<point x="174" y="63" type="line"/>
			<point x="-41" y="47" type="line"/>
			<point x="-55" y="0" type="line"/>
			<point x="441" y="0" type="line"/>
			<point x="455" y="47" type="line"/>
		</contour>
	</outline>
	<anchor name="UCtop" x="921" y="1414"/>
	<anchor name="bottom" x="193" y="0"/>
</glyph>
<glyph name="G" format="2">
	<unicode hex="0047"/>
	<advance width="1581"/>
	<outline>
		<contour>
			<point x="799" y="44" type="curve" smooth="yes"/>
			<point x="462" y="44"/>
			<point x="269" y="215"/>
			<point x="269" y="554" type="curve" smooth="yes"/>
			<point x="269" y="917"/>
			<point x="468.1392405063" y="1368"/>
			<point x="1029" y="1368" type="curve" smooth="yes"/>
			<point x="1179.9777777778" y="1368"/>
			<point x="1335.6448507306" y="1339.3309360791"/>
			<point x="1459" y="1249" type="curve"/>
			<point x="1418" y="1348" type="line"/>
			<point x="1347" y="991" type="line"/>
			<point x="1403" y="991" type="line"/>
			<point x="1547" y="1464" type="line"/>
			<point x="1502" y="1464" type="line"/>
			<point x="1426" y="1337" type="line"/>
			<point x="1484" y="1349" type="line"/>
			<point x="1395.1562982834" y="1395.3532356782"/>
			<point x="1209.5877192982" y="1434"/>
			<point x="1048" y="1434" type="curve" smooth="yes"/>
			<point x="415.0291479821" y="1434"/>
			<point x="186" y="946"/>
			<point x="186" y="529" type="curve" smooth="yes"/>
			<point x="186" y="183"/>
			<point x="416" y="-20"/>
			<point x="792" y="-20" type="curve" smooth="yes"/>
			<point x="989" y="-20"/>
			<point x="1189.2744505749" y="18.1533668542"/>
			<point x="1339" y="67" type="curve"/>
			<point x="1349" y="100" type="line"/>
			<point x="1183" y="100" type="line"/>
			<point x="1339" y="610" type="line"/>
			<point x="1525" y="626" type="line"/>
			<point x="1541" y="677" type="line"/>
			<point x="1045" y="677" type="line"/>
			<point x="1029" y="626" type="line"/>
			<point x="1263" y="610" type="line"/>
			<point x="1093" y="55" type="line"/>
			<point x="1142" y="96" type="line"/>
			<point x="1017.1985147777" y="58.4491106411"/>
			<point x="905" y="44"/>
		</contour>
	</outline>
	<anchor name="UCtop" x="1043" y="1414"/>
	<anchor name="bottom" x="770" y="0"/>
</glyph>
<glyph name="H" format="2">
	<unicode hex="0048"/>
	<advance width="1615"/>
	<outline>
		<contour>
			<point x="394" y="698" type="line"/>
			<point x="1333" y="698" type="line"/>
			<point x="1353" y="762" type="line"/>
			<point x="415" y="762" type="line"/>
		</contour>
		<contour>
			<point x="568" y="1351" type="line"/>
			<point x="174" y="63" type="line"/>
			<point x="-41" y="47" type="line"/>
			<point x="-55" y="0" type="line"/>
			<point x="441" y="0" type="line"/>
			<point x="455" y="47" type="line"/>
			<point x="250" y="63" type="line"/>
			<point x="644" y="1351" type="line"/>
			<point x="858" y="1367" type="line"/>
			<point x="873" y="1414" type="line"/>
			<point x="377" y="1414" type="line"/>
			<point x="362" y="1367" type="line"/>
		</contour>
		<contour>
			<point x="1483" y="1351" type="line"/>
			<point x="1090" y="63" type="line"/>
			<point x="875" y="47" type="line"/>
			<point x="861" y="0" type="line"/>
			<point x="1356" y="0" type="line"/>
			<point x="1371" y="47" type="line"/>
			<point x="1166" y="63" type="line"/>
			<point x="1559" y="1351" type="line"/>
			<point x="1774" y="1367" type="line"/>
			<point x="1789" y="1414" type="line"/>
			<point x="1293" y="1414" type="line"/>
			<point x="1278" y="1367" type="line"/>
		</contour>
	</outline>
	<anchor name="UCtop" x="1053" y="1414"/>
	<anchor name="bottom" x="650" y="0"/>
</glyph>
<glyph name="I" format="2">
	<unicode hex="0049"/>
	<advance width="699"/>
	<outline>
		<contour>
			<point x="568" y="1351" type="line"/>
			<point x="174" y="63" type="line"/>
			<point x="-41" y="47" type="line"/>
			<point x="-55" y="0" type="line"/>
			<point x="441" y="0" type="line"/>
			<point x="455" y="47" type="line"/>
			<point x="250" y="63" type="line"/>
			<point x="644" y="1351" type="line"/>
			<point x="858" y="1367" type="line"/>
			<point x="873" y="1414" type="line"/>
			<point x="377" y="1414" type="line"/>
			<point x="362" y="1367" type="line"/>
		</contour>
	</outline>
	<anchor name="UCtop" x="605" y="1414"/>
	<anchor name="right" x="295" y="0"/>
	<anchor name="bottom" x="202" y="0"/>
</glyph>
<glyph name="J" format="2">
	<unicode hex="004A"/>
	<advance width="907"/>
	<outline>
		<contour>
			<point x="567" y="322" type="curve" smooth="yes"/>
			<point x="873" y="1351" type="line"/>
			<point x="1088" y="1367" type="line"/>
			<point x="1102" y="1414" type="line"/>
			<point x="606" y="1414" type="line"/>
			<point x="592" y="1367" type="line"/>
			<point x="797" y="1351" type="line"/>
			<point x="481" y="315" type="line" smooth="yes"/>
			<point x="420" y="114"/>
			<point x="326" y="44"/>
			<point x="133" y="44" type="curve" smooth="yes"/>
			<point x="29" y="44"/>
			<point x="-7" y="120"/>
			<point x="-44" y="120" type="curve" smooth="yes"/>
			<point x="-74" y="120"/>
			<point x="-94" y="97"/>
			<point x="-94" y="70" type="curve" smooth="yes"/>
			<point x="-94" y="14"/>
			<point x="-34" y="-18"/>
			<point x="117" y="-18" type="curve" smooth="yes"/>
			<point x="357" y="-18"/>
			<point x="490" y="63"/>
		</contour>
	</outline>
	<anchor name="UCtop" x="840" y="1414"/>
	<anchor name="bottom" x="247" y="0"/>
</glyph>
<glyph name="K" format="2">
  <advance width="1467"/>
  <unicode hex="004B"/>
  <guideline x="1353.0" y="1351" angle="163.73110506599215" identifier="0RpfwYOrFB"/>
  <anchor x="1005.0" y="1414" name="UCtop"/>
  <anchor x="622.0" y="0" name="bottom"/>
  <outline>
    <contour>
      <point x="1111.0" y="63.0" type="line"/>
      <point x="710.0" y="787.0" type="line"/>
      <point x="698.0" y="720.0" type="line"/>
      <point x="1442.0" y="1351.0" type="line"/>
      <point x="1618.0" y="1367.0" type="line"/>
      <point x="1633.0" y="1414.0" type="line"/>
      <point x="1185.0" y="1414.0" type="line"/>
      <point x="1171.0" y="1367.0" type="line"/>
      <point x="1353.0" y="1351.0" type="line"/>
      <point x="678.0" y="777.0" type="line"/>
      <point x="459.0" y="777.0" type="line"/>
      <point x="439.0" y="713.0" type="line"/>
      <point x="668.0" y="713.0" type="line"/>
      <point x="1028.0" y="58.0" type="line"/>
      <point x="823.0" y="47.0" type="line"/>
      <point x="808.0" y="0.0" type="line"/>
      <point x="1290.0" y="0.0" type="line"/>
      <point x="1305.0" y="47.0" type="line"/>
    </contour>
    <contour>
      <point x="568.0" y="1351.0" type="line"/>
      <point x="174.0" y="63.0" type="line"/>
      <point x="-41.0" y="47.0" type="line"/>
      <point x="-55.0" y="0.0" type="line"/>
      <point x="441.0" y="0.0" type="line"/>
      <point x="455.0" y="47.0" type="line"/>
      <point x="250.0" y="63.0" type="line"/>
      <point x="644.0" y="1351.0" type="line"/>
      <point x="858.0" y="1367.0" type="line"/>
      <point x="873.0" y="1414.0" type="line"/>
      <point x="377.0" y="1414.0" type="line"/>
      <point x="362.0" y="1367.0" type="line"/>
    </contour>
  </outline>
</glyph>
<glyph name="L" format="2">
	<unicode hex="004C"/>
	<advance width="1240"/>
	<outline>
		<contour>
			<point x="644" y="1351" type="line"/>
			<point x="858" y="1367" type="line"/>
			<point x="873" y="1414" type="line"/>
			<point x="377" y="1414" type="line"/>
			<point x="362" y="1367" type="line"/>
			<point x="568" y="1351" type="line"/>
			<point x="174" y="63" type="line"/>
			<point x="-41" y="47" type="line"/>
			<point x="-55" y="0" type="line"/>
			<point x="231" y="0" type="line"/>
		</contour>
		<contour>
			<point x="890" y="42" type="line"/>
			<point x="961" y="60" type="line"/>
			<point x="183" y="60" type="line"/>
			<point x="164" y="0" type="line"/>
			<point x="882" y="0" type="line"/>
			<point x="873" y="-72" type="line"/>
			<point x="935" y="-72" type="line"/>
			<point x="1142" y="380" type="line"/>
			<point x="1086" y="380" type="line"/>
		</contour>
	</outline>
	<anchor name="UCtop" x="619" y="1414"/>
	<anchor name="right" x="918" y="1414"/>
	<anchor name="bottom" x="506" y="0"/>
	<anchor name="mid" x="1029" y="772"/>
</glyph>
<glyph name="M" format="2">
	<unicode hex="004D"/>
	<advance width="1977"/>
	<outline>
		<contour>
			<point x="680" y="1356" type="line"/>
			<point x="657" y="1386" type="line"/>
			<point x="798" y="0" type="line"/>
			<point x="877" y="0" type="line"/>
			<point x="1821" y="1391" type="line"/>
			<point x="1828" y="1414" type="line"/>
			<point x="1771" y="1414" type="line"/>
			<point x="834" y="27" type="line"/>
			<point x="867" y="27" type="line"/>
			<point x="726" y="1414" type="line"/>
			<point x="417" y="1414" type="line"/>
			<point x="402" y="1367" type="line"/>
			<point x="613" y="1344" type="line"/>
			<point x="149" y="63" type="line"/>
			<point x="-66" y="47" type="line"/>
			<point x="-80" y="0" type="line"/>
			<point x="403" y="0" type="line"/>
			<point x="418" y="47" type="line"/>
			<point x="213" y="63" type="line"/>
		</contour>
		<contour>
			<point x="1800" y="1414" type="line"/>
			<point x="1485" y="63" type="line"/>
			<point x="1270" y="47" type="line"/>
			<point x="1255" y="0" type="line"/>
			<point x="1749" y="0" type="line"/>
			<point x="1764" y="47" type="line"/>
			<point x="1559" y="63" type="line"/>
			<point x="1858" y="1348" type="line"/>
			<point x="2072" y="1368" type="line"/>
			<point x="2087" y="1414" type="line"/>
		</contour>
	</outline>
	<anchor name="UCtop" x="1210" y="1414"/>
	<anchor name="bottom" x="867" y="0"/>
</glyph>
<glyph name="N" format="2">
	<unicode hex="004E"/>
	<advance width="1627"/>
	<outline>
		<contour>
			<point x="1146" y="11" type="line"/>
			<point x="664" y="1414" type="line"/>
			<point x="378" y="1414" type="line"/>
			<point x="362" y="1363" type="line"/>
			<point x="568" y="1347" type="line"/>
			<point x="175" y="63" type="line"/>
			<point x="-40" y="47" type="line"/>
			<point x="-54" y="0" type="line"/>
			<point x="428" y="0" type="line"/>
			<point x="443" y="47" type="line"/>
			<point x="238" y="63" type="line"/>
			<point x="632" y="1352" type="line"/>
			<point x="611" y="1346" type="line"/>
			<point x="1082" y="-20" type="line"/>
			<point x="1174" y="-20" type="line"/>
			<point x="1593" y="1351" type="line"/>
			<point x="1807" y="1367" type="line"/>
			<point x="1822" y="1414" type="line"/>
			<point x="1339" y="1414" type="line"/>
			<point x="1325" y="1367" type="line"/>
			<point x="1530" y="1351" type="line"/>
			<point x="1116" y="-4" type="line"/>
		</contour>
	</outline>
	<anchor name="UCtop" x="1080" y="1414"/>
	<anchor name="bottom" x="707" y="0"/>
</glyph>
<glyph name="O" format="2">
	<unicode hex="004F"/>
	<advance width="1582"/>
	<outline>
		<contour>
			<point x="247" y="486" type="curve" smooth="yes"/>
			<point x="247" y="884"/>
			<point x="514" y="1368"/>
			<point x="992" y="1368" type="curve" smooth="yes"/>
			<point x="1283" y="1368"/>
			<point x="1453" y="1226"/>
			<point x="1453" y="928" type="curve" smooth="yes"/>
			<point x="1453" y="530"/>
			<point x="1186" y="46"/>
			<point x="708" y="46" type="curve" smooth="yes"/>
			<point x="417" y="46"/>
			<point x="247" y="188"/>
		</contour>
		<contour>
			<point x="1530" y="931" type="curve" smooth="yes"/>
			<point x="1530" y="1239"/>
			<point x="1349" y="1434"/>
			<point x="1009" y="1434" type="curve" smooth="yes"/>
			<point x="471" y="1434"/>
			<point x="170" y="929"/>
			<point x="170" y="483" type="curve" smooth="yes"/>
			<point x="170" y="175"/>
			<point x="351" y="-20"/>
			<point x="691" y="-20" type="curve" smooth="yes"/>
			<point x="1229" y="-20"/>
			<point x="1530" y="485"/>
		</contour>
	</outline>
	<anchor name="UCtop" x="1066" y="1414"/>
	<anchor name="bottom" x="633" y="0"/>
	<anchor name="right" x="773" y="0"/>
	<anchor name="horn" x="1396" y="1414"/>
</glyph>
<glyph name="P" format="2">
	<unicode hex="0050"/>
	<advance width="1280"/>
	<outline>
		<contour>
			<point x="812" y="675" type="curve" smooth="yes"/>
			<point x="403" y="675" type="line"/>
			<point x="383" y="611" type="line"/>
			<point x="826" y="611" type="line" smooth="yes"/>
			<point x="1193" y="611"/>
			<point x="1338" y="858"/>
			<point x="1338" y="1105" type="curve" smooth="yes"/>
			<point x="1338" y="1306"/>
			<point x="1220" y="1414"/>
			<point x="909" y="1414" type="curve" smooth="yes"/>
			<point x="618" y="1414" type="line"/>
			<point x="598" y="1350" type="line"/>
			<point x="877" y="1350" type="line" smooth="yes"/>
			<point x="1159" y="1350"/>
			<point x="1258" y="1266"/>
			<point x="1258" y="1097" type="curve" smooth="yes"/>
			<point x="1258" y="849"/>
			<point x="1116" y="675"/>
		</contour>
		<contour>
			<point x="250" y="63" type="line"/>
			<point x="663" y="1414" type="line"/>
			<point x="377" y="1414" type="line"/>
			<point x="362" y="1367" type="line"/>
			<point x="568" y="1351" type="line"/>
			<point x="174" y="63" type="line"/>
			<point x="-41" y="47" type="line"/>
			<point x="-55" y="0" type="line"/>
			<point x="441" y="0" type="line"/>
			<point x="455" y="47" type="line"/>
		</contour>
	</outline>
	<anchor name="UCtop" x="937" y="1414"/>
	<anchor name="bottom" x="193" y="0"/>
</glyph>
<glyph name="Q" format="2">
	<unicode hex="0051"/>
	<advance width="1582"/>
	<outline>
		<contour>
			<point x="827" y="-333" type="line" smooth="yes"/>
			<point x="930" y="-422"/>
			<point x="987" y="-455"/>
			<point x="1099" y="-455" type="curve" smooth="yes"/>
			<point x="1137" y="-455"/>
			<point x="1201" y="-450"/>
			<point x="1248" y="-445" type="curve"/>
			<point x="1265" y="-389" type="line"/>
			<point x="1112" y="-402"/>
			<point x="1045" y="-412"/>
			<point x="863" y="-264" type="curve" smooth="yes"/>
			<point x="475" y="52" type="line"/>
			<point x="503" y="13" type="line"/>
			<point x="1072" y="-126"/>
			<point x="1530" y="366"/>
			<point x="1530" y="931" type="curve" smooth="yes"/>
			<point x="1530" y="1239"/>
			<point x="1349" y="1434"/>
			<point x="1009" y="1434" type="curve" smooth="yes"/>
			<point x="471" y="1434"/>
			<point x="170" y="929"/>
			<point x="170" y="483" type="curve" smooth="yes"/>
			<point x="170" y="292"/>
			<point x="240" y="173"/>
			<point x="360" y="70" type="curve" smooth="yes"/>
		</contour>
		<contour>
			<point x="247" y="486" type="curve" smooth="yes"/>
			<point x="247" y="884"/>
			<point x="514" y="1368"/>
			<point x="992" y="1368" type="curve" smooth="yes"/>
			<point x="1283" y="1368"/>
			<point x="1453" y="1226"/>
			<point x="1453" y="928" type="curve" smooth="yes"/>
			<point x="1453" y="530"/>
			<point x="1186" y="46"/>
			<point x="708" y="46" type="curve" smooth="yes"/>
			<point x="417" y="46"/>
			<point x="247" y="188"/>
		</contour>
	</outline>
	<anchor name="bottom" x="474" y="-159"/>
	<anchor name="UCtop" x="1070" y="1414"/>
</glyph>
<glyph name="R" format="2">
	<unicode hex="0052"/>
	<advance width="1380"/>
	<outline>
		<contour>
			<point x="782" y="739" type="curve" smooth="yes"/>
			<point x="410" y="739" type="line"/>
			<point x="423" y="675" type="line"/>
			<point x="827" y="675" type="line" smooth="yes"/>
			<point x="940" y="675"/>
			<point x="991" y="632"/>
			<point x="991" y="498" type="curve" smooth="yes"/>
			<point x="991" y="152" type="line" smooth="yes"/>
			<point x="991" y="28"/>
			<point x="1041" y="-1"/>
			<point x="1229" y="0" type="curve"/>
			<point x="1239" y="56" type="line"/>
			<point x="1089" y="57"/>
			<point x="1061" y="74"/>
			<point x="1061" y="177" type="curve" smooth="yes"/>
			<point x="1061" y="494" type="line" smooth="yes"/>
			<point x="1061" y="626"/>
			<point x="1029" y="695"/>
			<point x="897" y="713" type="curve"/>
			<point x="897" y="704" type="line"/>
			<point x="1178" y="739"/>
			<point x="1297" y="911"/>
			<point x="1297" y="1134" type="curve" smooth="yes"/>
			<point x="1297" y="1308"/>
			<point x="1190" y="1414"/>
			<point x="883" y="1414" type="curve" smooth="yes"/>
			<point x="574" y="1414" type="line"/>
			<point x="584" y="1350" type="line"/>
			<point x="858" y="1350" type="line" smooth="yes"/>
			<point x="1123" y="1350"/>
			<point x="1218" y="1271"/>
			<point x="1218" y="1122" type="curve" smooth="yes"/>
			<point x="1218" y="893"/>
			<point x="1086" y="739"/>
		</contour>
		<contour>
			<point x="250" y="63" type="line"/>
			<point x="663" y="1414" type="line"/>
			<point x="377" y="1414" type="line"/>
			<point x="362" y="1367" type="line"/>
			<point x="568" y="1351" type="line"/>
			<point x="174" y="63" type="line"/>
			<point x="-41" y="47" type="line"/>
			<point x="-55" y="0" type="line"/>
			<point x="441" y="0" type="line"/>
			<point x="455" y="47" type="line"/>
		</contour>
	</outline>
	<anchor name="UCtop" x="877" y="1414"/>
	<anchor name="bottom" x="674" y="0"/>
</glyph>
<glyph name="S" format="2">
	<unicode hex="0053"/>
	<advance width="1206"/>
	<outline>
		<contour>
			<point x="1165" y="1265" type="curve"/>
			<point x="1137" y="1304" type="line"/>
			<point x="1095" y="999" type="line"/>
			<point x="1155" y="999" type="line"/>
			<point x="1250" y="1464" type="line"/>
			<point x="1199" y="1464" type="line"/>
			<point x="1156" y="1350" type="line"/>
			<point x="1177" y="1358" type="line"/>
			<point x="1098" y="1399"/>
			<point x="972" y="1433"/>
			<point x="840" y="1433" type="curve" smooth="yes"/>
			<point x="460" y="1433"/>
			<point x="328" y="1252"/>
			<point x="328" y="1049" type="curve" smooth="yes"/>
			<point x="328" y="872"/>
			<point x="458" y="802"/>
			<point x="614" y="738" type="curve" smooth="yes"/>
			<point x="770" y="674"/>
			<point x="961" y="621"/>
			<point x="961" y="421" type="curve" smooth="yes"/>
			<point x="961" y="194"/>
			<point x="785" y="42"/>
			<point x="476" y="42" type="curve" smooth="yes"/>
			<point x="342" y="42"/>
			<point x="217" y="61"/>
			<point x="132" y="113" type="curve"/>
			<point x="175" y="24" type="line"/>
			<point x="145" y="399" type="line"/>
			<point x="95" y="399" type="line"/>
			<point x="75" y="42" type="line"/>
			<point x="164" y="9"/>
			<point x="325" y="-20"/>
			<point x="461" y="-20" type="curve" smooth="yes"/>
			<point x="816" y="-20"/>
			<point x="1039" y="154"/>
			<point x="1039" y="440" type="curve" smooth="yes"/>
			<point x="1039" y="651"/>
			<point x="867" y="717"/>
			<point x="709" y="778" type="curve" smooth="yes"/>
			<point x="551" y="839"/>
			<point x="401" y="896"/>
			<point x="401" y="1062" type="curve" smooth="yes"/>
			<point x="401" y="1220"/>
			<point x="504" y="1370"/>
			<point x="815" y="1370" type="curve" smooth="yes"/>
			<point x="982" y="1370"/>
			<point x="1082" y="1334"/>
		</contour>
	</outline>
	<anchor name="UCtop" x="818" y="1414"/>
	<anchor name="bottom" x="535" y="0"/>
</glyph>
<glyph name="T" format="2">
	<unicode hex="0054"/>
	<advance width="1323"/>
	<outline>
		<contour>
			<point x="1428" y="1350" type="line"/>
			<point x="1384" y="1372" type="line"/>
			<point x="1364" y="1044" type="line"/>
			<point x="1422" y="1044" type="line"/>
			<point x="1492" y="1484" type="line"/>
			<point x="1433" y="1484" type="line"/>
			<point x="1395" y="1398" type="line"/>
			<point x="1466" y="1414" type="line"/>
			<point x="425" y="1414" type="line"/>
			<point x="474" y="1398" type="line"/>
			<point x="488" y="1484" type="line"/>
			<point x="423" y="1484" type="line"/>
			<point x="226" y="1044" type="line"/>
			<point x="288" y="1044" type="line"/>
			<point x="468" y="1372" type="line"/>
			<point x="402" y="1350" type="line"/>
		</contour>
		<contour>
			<point x="896" y="1407" type="line"/>
			<point x="485" y="63" type="line"/>
			<point x="270" y="47" type="line"/>
			<point x="256" y="0" type="line"/>
			<point x="752" y="0" type="line"/>
			<point x="766" y="47" type="line"/>
			<point x="561" y="63" type="line"/>
			<point x="972" y="1407" type="line"/>
		</contour>
	</outline>
	<anchor name="UCtop" x="915" y="1414"/>
	<anchor name="bottom" x="522" y="0"/>
</glyph>
<glyph name="U" format="2">
	<unicode hex="0055"/>
	<advance width="1586"/>
	<outline>
		<contour>
			<point x="385" y="570" type="curve" smooth="yes"/>
			<point x="624" y="1351" type="line"/>
			<point x="838" y="1367" type="line"/>
			<point x="853" y="1414" type="line"/>
			<point x="357" y="1414" type="line"/>
			<point x="342" y="1367" type="line"/>
			<point x="548" y="1351" type="line"/>
			<point x="308" y="568" type="line" smooth="yes"/>
			<point x="172" y="124"/>
			<point x="327" y="-20"/>
			<point x="681" y="-20" type="curve" smooth="yes"/>
			<point x="983" y="-20"/>
			<point x="1179" y="118"/>
			<point x="1300" y="514" type="curve" smooth="yes"/>
			<point x="1555" y="1351" type="line"/>
			<point x="1770" y="1367" type="line"/>
			<point x="1785" y="1414" type="line"/>
			<point x="1300" y="1414" type="line"/>
			<point x="1286" y="1367" type="line"/>
			<point x="1491" y="1351" type="line"/>
			<point x="1254" y="574" type="line" smooth="yes"/>
			<point x="1131" y="173"/>
			<point x="975" y="50"/>
			<point x="693" y="50" type="curve" smooth="yes"/>
			<point x="370" y="50"/>
			<point x="264" y="174"/>
		</contour>
	</outline>
	<anchor name="UCtop" x="1058" y="1414"/>
	<anchor name="right" x="818" y="0"/>
	<anchor name="bottom" x="652" y="0"/>
	<anchor name="horn" x="1591" y="1414"/>
</glyph>
<glyph name="V" format="2">
	<unicode hex="0056"/>
	<advance width="1487"/>
	<outline>
		<contour>
			<point x="445" y="1352" type="line"/>
			<point x="552" y="0" type="line"/>
			<point x="643" y="0" type="line"/>
			<point x="1530" y="1351" type="line"/>
			<point x="1721" y="1367" type="line"/>
			<point x="1736" y="1414" type="line"/>
			<point x="1281" y="1414" type="line"/>
			<point x="1267" y="1367" type="line"/>
			<point x="1456" y="1352" type="line"/>
			<point x="600" y="42" type="line"/>
			<point x="622" y="42" type="line"/>
			<point x="523" y="1351" type="line"/>
			<point x="738" y="1367" type="line"/>
			<point x="753" y="1414" type="line"/>
			<point x="274" y="1414" type="line"/>
			<point x="259" y="1367" type="line"/>
		</contour>
	</outline>
	<anchor name="UCtop" x="1023" y="1414"/>
	<anchor name="bottom" x="610" y="0"/>
</glyph>
<glyph name="W" format="2">
	<unicode hex="0057"/>
	<advance width="2005"/>
	<outline>
		<contour>
			<point x="1979" y="1352" type="line"/>
			<point x="1297" y="61" type="line"/>
			<point x="1312" y="61" type="line"/>
			<point x="1333" y="1414" type="line"/>
			<point x="1235" y="1414" type="line"/>
			<point x="417" y="61" type="line"/>
			<point x="434" y="61" type="line"/>
			<point x="538" y="1351" type="line"/>
			<point x="751" y="1367" type="line"/>
			<point x="766" y="1414" type="line"/>
			<point x="281" y="1414" type="line"/>
			<point x="266" y="1367" type="line"/>
			<point x="467" y="1352" type="line"/>
			<point x="353" y="0" type="line"/>
			<point x="449" y="0" type="line"/>
			<point x="1284" y="1378" type="line"/>
			<point x="1262" y="1378" type="line"/>
			<point x="1236" y="0" type="line"/>
			<point x="1332" y="0" type="line"/>
			<point x="2050" y="1351" type="line"/>
			<point x="2233" y="1367" type="line"/>
			<point x="2248" y="1414" type="line"/>
			<point x="1796" y="1414" type="line"/>
			<point x="1782" y="1367" type="line"/>
		</contour>
	</outline>
	<anchor name="UCtop" x="1233" y="1414"/>
	<anchor name="bottom" x="900" y="0"/>
</glyph>
<glyph name="X" format="2">
	<unicode hex="0058"/>
	<advance width="1540"/>
	<outline>
		<contour>
			<point x="834" y="704" type="line"/>
			<point x="870" y="733" type="line"/>
			<point x="1532" y="1351" type="line"/>
			<point x="1715" y="1367" type="line"/>
			<point x="1730" y="1414" type="line"/>
			<point x="1269" y="1414" type="line"/>
			<point x="1250" y="1367" type="line"/>
			<point x="1447" y="1352" type="line"/>
			<point x="846" y="780" type="line"/>
			<point x="805" y="750" type="line"/>
			<point x="81" y="63" type="line"/>
			<point x="-103" y="47" type="line"/>
			<point x="-117" y="0" type="line"/>
			<point x="351" y="0" type="line"/>
			<point x="366" y="47" type="line"/>
			<point x="169" y="62" type="line"/>
		</contour>
		<contour>
			<point x="1092" y="63" type="line"/>
			<point x="868" y="47" type="line"/>
			<point x="853" y="0" type="line"/>
			<point x="1351" y="0" type="line"/>
			<point x="1366" y="47" type="line"/>
			<point x="1175" y="62" type="line"/>
			<point x="873" y="762" type="line"/>
			<point x="866" y="779" type="line"/>
			<point x="620" y="1351" type="line"/>
			<point x="844" y="1367" type="line"/>
			<point x="864" y="1414" type="line"/>
			<point x="361" y="1414" type="line"/>
			<point x="346" y="1367" type="line"/>
			<point x="537" y="1352" type="line"/>
			<point x="805" y="730" type="line"/>
			<point x="814" y="709" type="line"/>
		</contour>
	</outline>
	<anchor name="UCtop" x="1030" y="1414"/>
	<anchor name="bottom" x="647" y="0"/>
</glyph>
<glyph name="Y" format="2">
	<unicode hex="0059"/>
	<advance width="1430"/>
	<outline>
		<contour>
			<point x="1392" y="1352" type="line"/>
			<point x="747" y="648" type="line"/>
			<point x="764" y="648" type="line"/>
			<point x="548" y="1351" type="line"/>
			<point x="763" y="1367" type="line"/>
			<point x="781" y="1414" type="line"/>
			<point x="286" y="1414" type="line"/>
			<point x="271" y="1367" type="line"/>
			<point x="472" y="1352" type="line"/>
			<point x="707" y="609" type="line"/>
			<point x="540" y="63" type="line"/>
			<point x="325" y="47" type="line"/>
			<point x="311" y="0" type="line"/>
			<point x="807" y="0" type="line"/>
			<point x="821" y="47" type="line"/>
			<point x="616" y="63" type="line"/>
			<point x="783" y="609" type="line"/>
			<point x="1467" y="1351" type="line"/>
			<point x="1651" y="1367" type="line"/>
			<point x="1665" y="1414" type="line"/>
			<point x="1214" y="1414" type="line"/>
			<point x="1196" y="1367" type="line"/>
		</contour>
	</outline>
	<anchor name="UCtop" x="954" y="1414"/>
	<anchor name="bottom" x="581" y="0"/>
</glyph>
<glyph name="Z" format="2">
	<unicode hex="005A"/>
	<advance width="1287"/>
	<outline>
		<contour>
			<point x="1401" y="1414" type="line"/>
			<point x="489" y="1414" type="line"/>
			<point x="473" y="1484" type="line"/>
			<point x="427" y="1484" type="line"/>
			<point x="300" y="1048" type="line"/>
			<point x="358" y="1048" type="line"/>
			<point x="486" y="1350" type="line"/>
			<point x="1332" y="1350" type="line"/>
			<point x="1303" y="1374" type="line"/>
			<point x="-8" y="55" type="line"/>
			<point x="-25" y="0" type="line"/>
			<point x="898" y="0" type="line"/>
			<point x="889" y="-70" type="line"/>
			<point x="952" y="-70" type="line"/>
			<point x="1151" y="370" type="line"/>
			<point x="1089" y="370" type="line"/>
			<point x="914" y="64" type="line"/>
			<point x="53" y="64" type="line"/>
			<point x="75" y="40" type="line"/>
			<point x="1384" y="1358" type="line"/>
		</contour>
	</outline>
	<anchor name="UCtop" x="914" y="1414"/>
	<anchor name="bottom" x="491" y="0"/>
</glyph>
<glyph name="bracketleft" format="2">
	<unicode hex="005B"/>
	<advance width="673"/>
	<outline>
		<contour>
			<point x="16" y="-223" type="line"/>
			<point x="395" y="-223" type="line"/>
			<point x="413" y="-165" type="line"/>
			<point x="106" y="-165" type="line"/>
			<point x="586" y="1406" type="line"/>
			<point x="893" y="1406" type="line"/>
			<point x="911" y="1464" type="line"/>
			<point x="532" y="1464" type="line"/>
		</contour>
	</outline>
</glyph>
<glyph name="backslash" format="2">
	<unicode hex="005C"/>
	<advance width="792"/>
	<outline>
		<contour>
			<point x="551" y="0" type="line"/>
			<point x="417" y="1414" type="line"/>
			<point x="357" y="1414" type="line"/>
			<point x="491" y="0" type="line"/>
		</contour>
	</outline>
</glyph>
<glyph name="bracketright" format="2">
	<unicode hex="005D"/>
	<advance width="675"/>
	<outline>
		<contour>
			<point x="724" y="1464" type="line"/>
			<point x="345" y="1464" type="line"/>
			<point x="328" y="1406" type="line"/>
			<point x="634" y="1406" type="line"/>
			<point x="154" y="-165" type="line"/>
			<point x="-153" y="-165" type="line"/>
			<point x="-170" y="-223" type="line"/>
			<point x="209" y="-223" type="line"/>
		</contour>
	</outline>
</glyph>
<glyph name="asciicircum" format="2">
  <advance width="1200"/>
  <unicode hex="005E"/>
  <outline>
    <contour>
      <point x="862.0" y="1351.0" type="line"/>
      <point x="975.0" y="646.0" type="line"/>
      <point x="1038.0" y="646.0" type="line"/>
      <point x="911.0" y="1414.0" type="line"/>
      <point x="849.0" y="1414.0" type="line"/>
      <point x="254.0" y="646.0" type="line"/>
      <point x="335.0" y="646.0" type="line"/>
      <point x="877.0" y="1351.0" type="line"/>
    </contour>
  </outline>
</glyph>
<glyph name="a" format="2">
	<unicode hex="0061"/>
	<advance width="1242"/>
	<outline>
		<contour>
			<point x="748" y="79" type="line" smooth="yes"/>
			<point x="720" y="11"/>
			<point x="732" y="-20"/>
			<point x="790" y="-20" type="curve" smooth="yes"/>
			<point x="854" y="-20"/>
			<point x="989" y="6"/>
			<point x="1176" y="122" type="curve"/>
			<point x="1161" y="154" type="line"/>
			<point x="970" y="56"/>
			<point x="857" y="42"/>
			<point x="776" y="50" type="curve"/>
			<point x="796" y="13" type="line"/>
			<point x="1153" y="1024" type="line"/>
			<point x="1077" y="1024" type="line"/>
			<point x="1024" y="867" type="line"/>
			<point x="962" y="680" type="line" smooth="yes"/>
			<point x="862" y="381"/>
			<point x="592" y="40"/>
			<point x="334" y="40" type="curve" smooth="yes"/>
			<point x="196" y="40"/>
			<point x="133" y="102"/>
			<point x="133" y="240" type="curve" smooth="yes"/>
			<point x="133" y="525"/>
			<point x="421" y="993"/>
			<point x="754" y="993" type="curve" smooth="yes"/>
			<point x="882" y="993"/>
			<point x="980" y="936"/>
			<point x="1044" y="821" type="curve"/>
			<point x="1050" y="833" type="line"/>
			<point x="995" y="959"/>
			<point x="906" y="1044"/>
			<point x="757" y="1044" type="curve" smooth="yes"/>
			<point x="351" y="1044"/>
			<point x="54" y="535"/>
			<point x="54" y="225" type="curve" smooth="yes"/>
			<point x="54" y="85"/>
			<point x="132" y="-20"/>
			<point x="311" y="-20" type="curve" smooth="yes"/>
			<point x="483" y="-20"/>
			<point x="664" y="92"/>
			<point x="881" y="427" type="curve"/>
			<point x="890" y="427" type="line"/>
		</contour>
	</outline>
	<anchor name="top" x="812" y="1024"/>
	<anchor name="right" x="1099" y="0"/>
	<anchor name="bottom" x="498" y="0"/>
</glyph>
<glyph name="b" format="2">
  <advance width="1171"/>
  <unicode hex="0062"/>
  <guideline x="546.0" y="1484" angle="178.01661089402228" identifier="rlLRG719jC"/>
  <anchor x="801.0" y="1414" name="UCtop"/>
  <anchor x="423.0" y="0" name="bottom"/>
  <outline>
    <contour>
      <point x="218" y="361" type="curve" smooth="yes"/>
      <point x="259" y="502" type="line" smooth="yes"/>
      <point x="297" y="635"/>
      <point x="520" y="985"/>
      <point x="815" y="985" type="curve" smooth="yes"/>
      <point x="931" y="985"/>
      <point x="1016" y="894"/>
      <point x="1016" y="761" type="curve" smooth="yes"/>
      <point x="1016" y="401"/>
      <point x="773" y="31"/>
      <point x="437" y="31" type="curve" smooth="yes"/>
      <point x="271" y="31"/>
      <point x="195" y="97"/>
      <point x="195" y="222" type="curve" smooth="yes"/>
      <point x="195" y="263"/>
      <point x="203" y="309"/>
    </contour>
    <contour>
      <point x="447" y="1391" type="curve"/>
      <point x="151" y="377" type="line" smooth="yes"/>
      <point x="134" y="319"/>
      <point x="125" y="266"/>
      <point x="125" y="220" type="curve" smooth="yes"/>
      <point x="125" y="63"/>
      <point x="227" y="-20"/>
      <point x="435" y="-20" type="curve" smooth="yes"/>
      <point x="804" y="-20"/>
      <point x="1094" y="370"/>
      <point x="1094" y="757" type="curve" smooth="yes"/>
      <point x="1094" y="918"/>
      <point x="1008" y="1044"/>
      <point x="822" y="1044" type="curve" smooth="yes"/>
      <point x="618" y="1044"/>
      <point x="443" y="873"/>
      <point x="307" y="679" type="curve"/>
      <point x="298" y="679" type="line"/>
      <point x="546" y="1484" type="line"/>
      <point x="513" y="1484" type="line"/>
      <point x="212" y="1446" type="line"/>
      <point x="204" y="1407" type="line"/>
      <point x="262" y="1403"/>
      <point x="409" y="1394"/>
    </contour>
  </outline>
</glyph>
<glyph name="c" format="2">
  <advance width="991"/>
  <unicode hex="0063"/>
  <anchor x="667.0" y="1024" name="top"/>
  <anchor x="769.0" y="0" name="right"/>
  <anchor x="442.0" y="0" name="bottom"/>
  <outline>
    <contour>
      <point x="705" y="996" type="curve" smooth="yes"/>
      <point x="748.0" y="996.0"/>
      <point x="786" y="980"/>
      <point x="825" y="941" type="curve" smooth="yes"/>
      <point x="864" y="902"/>
      <point x="885" y="865"/>
      <point x="900" y="865" type="curve" smooth="yes"/>
      <point x="939.0" y="865.0"/>
      <point x="966.0" y="893.0"/>
      <point x="966" y="935" type="curve" smooth="yes"/>
      <point x="966" y="981"/>
      <point x="902.0" y="1044.0"/>
      <point x="722" y="1044" type="curve" smooth="yes"/>
      <point x="343" y="1044"/>
      <point x="92" y="689"/>
      <point x="92" y="320" type="curve" smooth="yes"/>
      <point x="92" y="82"/>
      <point x="223" y="-20"/>
      <point x="409" y="-20" type="curve" smooth="yes"/>
      <point x="614.0" y="-20.0"/>
      <point x="755" y="68.0"/>
      <point x="880" y="351" type="curve"/>
      <point x="833" y="351" type="line"/>
      <point x="709" y="109"/>
      <point x="588" y="44"/>
      <point x="416" y="44" type="curve" smooth="yes"/>
      <point x="257" y="44"/>
      <point x="168" y="124"/>
      <point x="168" y="345" type="curve" smooth="yes"/>
      <point x="168" y="692"/>
      <point x="404" y="996"/>
    </contour>
  </outline>
</glyph>
<glyph name="d" format="2">
	<unicode hex="0064"/>
	<advance width="1260"/>
	<outline>
		<contour>
			<point x="1043" y="821" type="curve"/>
			<point x="1049" y="833" type="line"/>
			<point x="994" y="959"/>
			<point x="905" y="1044"/>
			<point x="756" y="1044" type="curve" smooth="yes"/>
			<point x="350" y="1044"/>
			<point x="55" y="535"/>
			<point x="55" y="225" type="curve" smooth="yes"/>
			<point x="55" y="85"/>
			<point x="131" y="-20"/>
			<point x="310" y="-20" type="curve" smooth="yes"/>
			<point x="482" y="-20"/>
			<point x="674" y="96"/>
			<point x="891" y="431" type="curve"/>
			<point x="900" y="431" type="line"/>
			<point x="781" y="79" type="line" smooth="yes"/>
			<point x="758" y="10"/>
			<point x="765" y="-20"/>
			<point x="823" y="-20" type="curve" smooth="yes"/>
			<point x="887" y="-20"/>
			<point x="1022" y="6"/>
			<point x="1209" y="122" type="curve"/>
			<point x="1194" y="154" type="line"/>
			<point x="1003" y="56"/>
			<point x="890" y="42"/>
			<point x="809" y="50" type="curve"/>
			<point x="829" y="13" type="line"/>
			<point x="1263" y="1484" type="line"/>
			<point x="1230" y="1484" type="line"/>
			<point x="932" y="1446" type="line"/>
			<point x="924" y="1407" type="line"/>
			<point x="981" y="1403.2469135802"/>
			<point x="1131" y="1393.3703703704"/>
			<point x="1167" y="1391" type="curve"/>
			<point x="935" y="597" type="line" smooth="yes"/>
			<point x="880" y="410"/>
			<point x="603" y="40"/>
			<point x="333" y="40" type="curve" smooth="yes"/>
			<point x="197" y="40"/>
			<point x="132" y="107"/>
			<point x="132" y="249" type="curve" smooth="yes"/>
			<point x="132" y="525"/>
			<point x="420" y="993"/>
			<point x="753" y="993" type="curve" smooth="yes"/>
			<point x="881" y="993"/>
			<point x="979" y="936"/>
		</contour>
	</outline>
	<anchor name="UCtop" x="924" y="1414"/>
	<anchor name="right" x="1256" y="1464"/>
	<anchor name="bottom" x="522" y="0"/>
	<anchor name="center" x="1095" y="1207"/>
</glyph>
<glyph name="e" format="2">
	<unicode hex="0065"/>
	<advance width="1051"/>
	<outline>
		<contour>
			<point x="715" y="992" type="curve" smooth="yes"/>
			<point x="922" y="992"/>
			<point x="957" y="844"/>
			<point x="901" y="677" type="curve"/>
			<point x="774" y="631"/>
			<point x="563" y="583"/>
			<point x="173" y="518" type="curve"/>
			<point x="175" y="472" type="line"/>
			<point x="527" y="530"/>
			<point x="753" y="574"/>
			<point x="957" y="629" type="curve"/>
			<point x="983" y="701"/>
			<point x="996" y="765"/>
			<point x="996" y="819" type="curve" smooth="yes"/>
			<point x="996" y="965"/>
			<point x="904" y="1044"/>
			<point x="729" y="1044" type="curve" smooth="yes"/>
			<point x="350" y="1044"/>
			<point x="99" y="749"/>
			<point x="99" y="320" type="curve" smooth="yes"/>
			<point x="99" y="82"/>
			<point x="234" y="-20"/>
			<point x="425" y="-20" type="curve" smooth="yes"/>
			<point x="619" y="-20"/>
			<point x="771" y="46"/>
			<point x="909" y="351" type="curve"/>
			<point x="860" y="351" type="line"/>
			<point x="733" y="109"/>
			<point x="617" y="44"/>
			<point x="432" y="44" type="curve" smooth="yes"/>
			<point x="260" y="44"/>
			<point x="173" y="144"/>
			<point x="173" y="347" type="curve" smooth="yes"/>
			<point x="173" y="751"/>
			<point x="412" y="992"/>
		</contour>
	</outline>
	<anchor name="top" x="634" y="1024"/>
	<anchor name="right" x="819" y="0"/>
	<anchor name="bottom" x="440" y="0"/>
</glyph>
<glyph name="g" format="2">
	<unicode hex="0067"/>
	<advance width="974"/>
	<outline>
		<contour>
			<point x="1053" y="966" type="curve" smooth="yes"/>
			<point x="1067" y="966"/>
			<point x="1074" y="977"/>
			<point x="1074" y="1007" type="curve" smooth="yes"/>
			<point x="1074" y="1019"/>
			<point x="1072" y="1024"/>
			<point x="1063" y="1024" type="curve" smooth="yes"/>
			<point x="981" y="1024"/>
			<point x="820" y="1024"/>
			<point x="667" y="1024" type="curve"/>
			<point x="740" y="966" type="line"/>
			<point x="913" y="966"/>
			<point x="984" y="966"/>
		</contour>
		<contour>
			<point x="410" y="371" type="curve" smooth="yes"/>
			<point x="278" y="371"/>
			<point x="215" y="436.2421052632"/>
			<point x="215" y="570" type="curve" smooth="yes"/>
			<point x="215" y="770.9180722892"/>
			<point x="341" y="994"/>
			<point x="588" y="994" type="curve" smooth="yes"/>
			<point x="720" y="994"/>
			<point x="783" y="928.7578947368"/>
			<point x="783" y="795" type="curve" smooth="yes"/>
			<point x="783" y="594.0819277108"/>
			<point x="657" y="371"/>
		</contour>
		<contour>
			<point x="592" y="1044" type="curve" smooth="yes"/>
			<point x="299" y="1044"/>
			<point x="145" y="784"/>
			<point x="145" y="554" type="curve" smooth="yes"/>
			<point x="145" y="407"/>
			<point x="228" y="321"/>
			<point x="406" y="321" type="curve" smooth="yes"/>
			<point x="698" y="321"/>
			<point x="853" y="581"/>
			<point x="853" y="811" type="curve" smooth="yes"/>
			<point x="853" y="958"/>
			<point x="770" y="1044"/>
		</contour>
		<contour>
			<point x="320" y="-465" type="curve" smooth="yes"/>
			<point x="700" y="-465"/>
			<point x="860" y="-334"/>
			<point x="860" y="-168" type="curve" smooth="yes"/>
			<point x="860" y="-51"/>
			<point x="790" y="27"/>
			<point x="509" y="66" type="curve" smooth="yes"/>
			<point x="227" y="105"/>
			<point x="185" y="129"/>
			<point x="185" y="207" type="curve" smooth="yes"/>
			<point x="185" y="269"/>
			<point x="224" y="311"/>
			<point x="376" y="327" type="curve"/>
			<point x="388" y="349" type="line"/>
			<point x="169" y="330"/>
			<point x="122" y="267"/>
			<point x="122" y="186" type="curve" smooth="yes"/>
			<point x="122" y="96"/>
			<point x="169" y="45"/>
			<point x="454" y="7" type="curve" smooth="yes"/>
			<point x="739" y="-31"/>
			<point x="781" y="-75"/>
			<point x="781" y="-187" type="curve" smooth="yes"/>
			<point x="781" y="-313"/>
			<point x="640" y="-416"/>
			<point x="328" y="-416" type="curve" smooth="yes"/>
			<point x="61" y="-416"/>
			<point x="-4" y="-332"/>
			<point x="-4" y="-219" type="curve" smooth="yes"/>
			<point x="-4" y="-83"/>
			<point x="107" y="16"/>
			<point x="442" y="28" type="curve"/>
			<point x="367" y="44" type="line"/>
			<point x="315" y="43" type="line"/>
			<point x="8" y="3"/>
			<point x="-79" y="-102"/>
			<point x="-79" y="-234" type="curve" smooth="yes"/>
			<point x="-79" y="-374"/>
			<point x="13" y="-465"/>
		</contour>
	</outline>
	<anchor name="top" x="584" y="1024"/>
	<anchor name="bottom" x="398" y="-445"/>
</glyph>
<glyph name="h" format="2">
	<unicode hex="0068"/>
	<advance width="1240"/>
	<outline>
		<contour>
			<point x="251" y="392" type="line" smooth="yes"/>
			<point x="349" y="727"/>
			<point x="615" y="971"/>
			<point x="848" y="971" type="curve" smooth="yes"/>
			<point x="956" y="971"/>
			<point x="1005" y="930"/>
			<point x="1005" y="850" type="curve" smooth="yes"/>
			<point x="1005" y="805"/>
			<point x="989" y="747"/>
			<point x="959" y="677" type="curve" smooth="yes"/>
			<point x="701" y="79" type="line" smooth="yes"/>
			<point x="672" y="12"/>
			<point x="688" y="-20"/>
			<point x="746" y="-20" type="curve" smooth="yes"/>
			<point x="813" y="-20"/>
			<point x="954" y="11"/>
			<point x="1152" y="135" type="curve"/>
			<point x="1137" y="167" type="line"/>
			<point x="934" y="62"/>
			<point x="817" y="42"/>
			<point x="732" y="50" type="curve"/>
			<point x="752" y="13" type="line"/>
			<point x="1030" y="660" type="line" smooth="yes"/>
			<point x="1064" y="740"/>
			<point x="1083" y="811"/>
			<point x="1083" y="869" type="curve" smooth="yes"/>
			<point x="1083" y="979"/>
			<point x="1016" y="1044"/>
			<point x="862" y="1044" type="curve" smooth="yes"/>
			<point x="688" y="1044"/>
			<point x="476" y="916"/>
			<point x="301" y="597" type="curve"/>
			<point x="292" y="597" type="line"/>
			<point x="565" y="1484" type="line"/>
			<point x="532" y="1484" type="line"/>
			<point x="231" y="1446" type="line"/>
			<point x="223" y="1407" type="line"/>
			<point x="280" y="1403.2469135802"/>
			<point x="430" y="1393.3703703704"/>
			<point x="466" y="1391" type="curve"/>
			<point x="60" y="0" type="line"/>
			<point x="136" y="0" type="line"/>
		</contour>
	</outline>
	<anchor name="UCtop" x="857" y="1414"/>
	<anchor name="bottom" x="469" y="0"/>
	<anchor name="center" x="498" y="1207"/>
</glyph>
<glyph name="i" format="2">
	<unicode hex="0069"/>
	<advance width="675"/>
	<outline>
		<contour>
			<point x="134" y="58" type="line" smooth="yes"/>
			<point x="113" y="0"/>
			<point x="130" y="-20"/>
			<point x="180" y="-20" type="curve" smooth="yes"/>
			<point x="245" y="-20"/>
			<point x="385" y="5"/>
			<point x="576" y="124" type="curve"/>
			<point x="561" y="156" type="line"/>
			<point x="366" y="55"/>
			<point x="249" y="42"/>
			<point x="166" y="50" type="curve"/>
			<point x="190" y="11" type="line"/>
			<point x="543" y="966" type="line" smooth="yes"/>
			<point x="563" y="1021"/>
			<point x="551" y="1044"/>
			<point x="491" y="1044" type="curve" smooth="yes"/>
			<point x="422" y="1044"/>
			<point x="278" y="1003"/>
			<point x="85" y="861" type="curve"/>
			<point x="102" y="830" type="line"/>
			<point x="302" y="954"/>
			<point x="417" y="982"/>
			<point x="505" y="974" type="curve"/>
			<point x="483" y="1005" type="line"/>
		</contour>
		<contour>
			<point x="524" y="1376" type="curve" smooth="yes"/>
			<point x="524" y="1330"/>
			<point x="552" y="1305"/>
			<point x="598" y="1305" type="curve" smooth="yes"/>
			<point x="661" y="1305"/>
			<point x="698" y="1343"/>
			<point x="698" y="1404" type="curve" smooth="yes"/>
			<point x="698" y="1450"/>
			<point x="670" y="1475"/>
			<point x="624" y="1475" type="curve" smooth="yes"/>
			<point x="561" y="1475"/>
			<point x="524" y="1437"/>
		</contour>
	</outline>
	<anchor name="top" x="626" y="1414"/>
	<anchor name="bottom" x="204" y="0"/>
	<anchor name="right" x="351" y="0"/>
</glyph>
<glyph name="j" format="2">
  <advance width="590"/>
  <unicode hex="006A"/>
  <anchor x="576.0" y="1414" name="top"/>
  <anchor x="-109.0" y="-445" name="bottom"/>
  <outline>
    <contour>
      <point x="501.0" y="1376.0" type="curve" smooth="yes"/>
      <point x="501.0" y="1330.0"/>
      <point x="529.0" y="1305.0"/>
      <point x="575.0" y="1305.0" type="curve" smooth="yes"/>
      <point x="638.0" y="1305.0"/>
      <point x="675.0" y="1343.0"/>
      <point x="675.0" y="1404.0" type="curve" smooth="yes"/>
      <point x="675.0" y="1450.0"/>
      <point x="647.0" y="1475.0"/>
      <point x="601.0" y="1475.0" type="curve" smooth="yes"/>
      <point x="538.0" y="1475.0"/>
      <point x="501.0" y="1437.0"/>
    </contour>
    <contour>
      <point x="249" y="79" type="curve" smooth="yes"/>
      <point x="520" y="966" type="line" smooth="yes"/>
      <point x="537" y="1021"/>
      <point x="528" y="1044"/>
      <point x="468" y="1044" type="curve" smooth="yes"/>
      <point x="399" y="1044"/>
      <point x="256" y="998"/>
      <point x="68" y="850" type="curve"/>
      <point x="87" y="819" type="line"/>
      <point x="282" y="950"/>
      <point x="394" y="982"/>
      <point x="482" y="974" type="curve"/>
      <point x="460" y="1005" type="line"/>
      <point x="185" y="101" type="line" smooth="yes"/>
      <point x="60" y="-310"/>
      <point x="-71" y="-408"/>
      <point x="-186" y="-408" type="curve" smooth="yes"/>
      <point x="-209.0" y="-408.0"/>
      <point x="-231" y="-392"/>
      <point x="-250" y="-366" type="curve" smooth="yes"/>
      <point x="-269.0" y="-340"/>
      <point x="-279" y="-316"/>
      <point x="-283" y="-316" type="curve" smooth="yes"/>
      <point x="-324" y="-316"/>
      <point x="-355" y="-354"/>
      <point x="-355" y="-395" type="curve" smooth="yes"/>
      <point x="-355" y="-442"/>
      <point x="-301" y="-465"/>
      <point x="-234" y="-465" type="curve" smooth="yes"/>
      <point x="-47" y="-465"/>
      <point x="125" y="-328"/>
    </contour>
  </outline>
</glyph>
<glyph name="k" format="2">
	<unicode hex="006B"/>
	<advance width="1093"/>
	<outline>
		<contour>
			<point x="561" y="1484" type="line"/>
			<point x="528" y="1484" type="line"/>
			<point x="231" y="1446" type="line"/>
			<point x="223" y="1407" type="line"/>
			<point x="280" y="1403.2469135802"/>
			<point x="430" y="1393.3703703704"/>
			<point x="466" y="1391" type="curve"/>
			<point x="60" y="0" type="line"/>
			<point x="128" y="0" type="line"/>
		</contour>
		<contour>
			<point x="290" y="584" type="line"/>
			<point x="487" y="148"/>
			<point x="595" y="-20"/>
			<point x="696" y="-20" type="curve" smooth="yes"/>
			<point x="770" y="-20"/>
			<point x="839" y="16"/>
			<point x="1002" y="181" type="curve"/>
			<point x="981" y="203" type="line"/>
			<point x="823" y="58"/>
			<point x="766" y="37"/>
			<point x="726" y="37" type="curve" smooth="yes"/>
			<point x="644" y="37"/>
			<point x="543" y="185"/>
			<point x="338" y="628" type="curve"/>
			<point x="331" y="574" type="line"/>
			<point x="580" y="846"/>
			<point x="812" y="976"/>
			<point x="909" y="976" type="curve" smooth="yes"/>
			<point x="929" y="976"/>
			<point x="956" y="954"/>
			<point x="979" y="927" type="curve" smooth="yes"/>
			<point x="1003" y="899"/>
			<point x="1024" y="870"/>
			<point x="1031" y="870" type="curve" smooth="yes"/>
			<point x="1061" y="870"/>
			<point x="1116" y="912"/>
			<point x="1116" y="963" type="curve" smooth="yes"/>
			<point x="1116" y="1015"/>
			<point x="1072" y="1044"/>
			<point x="997" y="1044" type="curve" smooth="yes"/>
			<point x="783" y="1044"/>
			<point x="572" y="884"/>
			<point x="291" y="589" type="curve"/>
		</contour>
	</outline>
	<anchor name="UCtop" x="766" y="1414"/>
	<anchor name="bottom" x="451" y="0"/>
</glyph>
<glyph name="l" format="2">
	<unicode hex="006C"/>
	<advance width="610"/>
	<outline>
		<contour>
			<point x="484" y="1391" type="curve"/>
			<point x="98" y="67" type="line" smooth="yes"/>
			<point x="79" y="2"/>
			<point x="94" y="-20"/>
			<point x="148" y="-20" type="curve" smooth="yes"/>
			<point x="213" y="-20"/>
			<point x="353" y="5"/>
			<point x="544" y="124" type="curve"/>
			<point x="529" y="156" type="line"/>
			<point x="334" y="55"/>
			<point x="217" y="42"/>
			<point x="134" y="50" type="curve"/>
			<point x="153" y="13" type="line"/>
			<point x="583" y="1484" type="line"/>
			<point x="550" y="1484" type="line"/>
			<point x="249" y="1446" type="line"/>
			<point x="241" y="1407" type="line"/>
			<point x="298" y="1403.2469135802"/>
			<point x="448" y="1393.3703703704"/>
		</contour>
	</outline>
	<anchor name="UCtop" x="503" y="1414"/>
	<anchor name="right" x="577" y="1464"/>
	<anchor name="bottom" x="160" y="0"/>
	<anchor name="mid" x="550" y="512"/>
</glyph>
<glyph name="m" format="2">
	<unicode hex="006D"/>
	<advance width="1829"/>
	<outline>
		<contour>
			<point x="1340" y="13" type="line"/>
			<point x="1627" y="680" type="line" smooth="yes"/>
			<point x="1659" y="754"/>
			<point x="1675" y="820"/>
			<point x="1675" y="875" type="curve" smooth="yes"/>
			<point x="1675" y="980"/>
			<point x="1615" y="1044"/>
			<point x="1491" y="1044" type="curve" smooth="yes"/>
			<point x="1330" y="1044"/>
			<point x="1146" y="910"/>
			<point x="974" y="597" type="curve"/>
			<point x="965" y="597" type="line"/>
			<point x="1009" y="738" type="line" smooth="yes"/>
			<point x="1028" y="799"/>
			<point x="1038" y="851"/>
			<point x="1038" y="895" type="curve" smooth="yes"/>
			<point x="1038" y="991"/>
			<point x="989" y="1044"/>
			<point x="878" y="1044" type="curve" smooth="yes"/>
			<point x="724" y="1044"/>
			<point x="553" y="907"/>
			<point x="383" y="597" type="curve"/>
			<point x="374" y="597" type="line"/>
			<point x="515" y="1030" type="line"/>
			<point x="494" y="1035"/>
			<point x="452" y="1039"/>
			<point x="423" y="1039" type="curve" smooth="yes"/>
			<point x="267" y="1039"/>
			<point x="150" y="1001"/>
			<point x="82" y="808" type="curve"/>
			<point x="105" y="808" type="line"/>
			<point x="156" y="913"/>
			<point x="237" y="969"/>
			<point x="361" y="969" type="curve" smooth="yes"/>
			<point x="384" y="969"/>
			<point x="413" y="969"/>
			<point x="432" y="963" type="curve"/>
			<point x="142" y="0" type="line"/>
			<point x="218" y="0" type="line"/>
			<point x="339" y="401" type="line" smooth="yes"/>
			<point x="439" y="733"/>
			<point x="657" y="971"/>
			<point x="864" y="971" type="curve" smooth="yes"/>
			<point x="948" y="971"/>
			<point x="985" y="935"/>
			<point x="985" y="860" type="curve" smooth="yes"/>
			<point x="985" y="814"/>
			<point x="971" y="753"/>
			<point x="945" y="677" type="curve" smooth="yes"/>
			<point x="716" y="0" type="line"/>
			<point x="792" y="0" type="line"/>
			<point x="932" y="420" type="line" smooth="yes"/>
			<point x="1043" y="751"/>
			<point x="1266" y="971"/>
			<point x="1477" y="971" type="curve" smooth="yes"/>
			<point x="1554" y="971"/>
			<point x="1597" y="933"/>
			<point x="1597" y="858" type="curve" smooth="yes"/>
			<point x="1597" y="816"/>
			<point x="1584" y="764"/>
			<point x="1557" y="701" type="curve" smooth="yes"/>
			<point x="1289" y="79" type="line" smooth="yes"/>
			<point x="1260" y="12"/>
			<point x="1276" y="-20"/>
			<point x="1334" y="-20" type="curve" smooth="yes"/>
			<point x="1401" y="-20"/>
			<point x="1542" y="11"/>
			<point x="1740" y="135" type="curve"/>
			<point x="1725" y="167" type="line"/>
			<point x="1522" y="62"/>
			<point x="1405" y="42"/>
			<point x="1320" y="50" type="curve"/>
		</contour>
	</outline>
	<anchor name="top" x="1088" y="1024"/>
	<anchor name="bottom" x="774" y="0"/>
</glyph>
<glyph name="n" format="2">
	<unicode hex="006E"/>
	<advance width="1322"/>
	<outline>
		<contour>
			<point x="105" y="808" type="line"/>
			<point x="156" y="913"/>
			<point x="237" y="969"/>
			<point x="361" y="969" type="curve" smooth="yes"/>
			<point x="384" y="969"/>
			<point x="413" y="969"/>
			<point x="432" y="963" type="curve"/>
			<point x="142" y="0" type="line"/>
			<point x="218" y="0" type="line"/>
			<point x="339" y="401" type="line" smooth="yes"/>
			<point x="440" y="736"/>
			<point x="697" y="971"/>
			<point x="930" y="971" type="curve" smooth="yes"/>
			<point x="1038" y="971"/>
			<point x="1087" y="930"/>
			<point x="1087" y="850" type="curve" smooth="yes"/>
			<point x="1087" y="805"/>
			<point x="1071" y="747"/>
			<point x="1041" y="677" type="curve" smooth="yes"/>
			<point x="783" y="79" type="line" smooth="yes"/>
			<point x="754" y="12"/>
			<point x="770" y="-20"/>
			<point x="828" y="-20" type="curve" smooth="yes"/>
			<point x="895" y="-20"/>
			<point x="1036" y="11"/>
			<point x="1234" y="135" type="curve"/>
			<point x="1219" y="167" type="line"/>
			<point x="1016" y="62"/>
			<point x="899" y="42"/>
			<point x="814" y="50" type="curve"/>
			<point x="834" y="13" type="line"/>
			<point x="1112" y="660" type="line" smooth="yes"/>
			<point x="1146" y="740"/>
			<point x="1165" y="811"/>
			<point x="1165" y="869" type="curve" smooth="yes"/>
			<point x="1165" y="979"/>
			<point x="1098" y="1044"/>
			<point x="944" y="1044" type="curve" smooth="yes"/>
			<point x="770" y="1044"/>
			<point x="558" y="916"/>
			<point x="383" y="597" type="curve"/>
			<point x="374" y="597" type="line"/>
			<point x="515" y="1030" type="line"/>
			<point x="494" y="1035"/>
			<point x="452" y="1039"/>
			<point x="423" y="1039" type="curve" smooth="yes"/>
			<point x="267" y="1039"/>
			<point x="150" y="1001"/>
			<point x="82" y="808" type="curve"/>
		</contour>
	</outline>
	<anchor name="top" x="835" y="1024"/>
	<anchor name="bottom" x="560" y="0"/>
</glyph>
<glyph name="o" format="2">
	<unicode hex="006F"/>
	<advance width="1159"/>
	<outline>
		<contour>
			<point x="712" y="1044" type="curve" smooth="yes"/>
			<point x="314" y="1044"/>
			<point x="93" y="662.4708333333"/>
			<point x="93" y="323" type="curve" smooth="yes"/>
			<point x="93" y="106.3684210526"/>
			<point x="211" y="-20"/>
			<point x="447" y="-20" type="curve" smooth="yes"/>
			<point x="845" y="-20"/>
			<point x="1066" y="361.5291666667"/>
			<point x="1066" y="701" type="curve" smooth="yes"/>
			<point x="1066" y="917.6315789474"/>
			<point x="947" y="1044"/>
		</contour>
		<contour>
			<point x="443" y="36" type="curve" smooth="yes"/>
			<point x="265" y="36"/>
			<point x="169" y="129"/>
			<point x="169" y="335" type="curve" smooth="yes"/>
			<point x="169" y="648"/>
			<point x="360" y="988"/>
			<point x="716" y="988" type="curve" smooth="yes"/>
			<point x="894" y="988"/>
			<point x="990" y="895"/>
			<point x="990" y="689" type="curve" smooth="yes"/>
			<point x="990" y="376"/>
			<point x="799" y="36"/>
		</contour>
	</outline>
	<anchor name="top" x="736" y="1024"/>
	<anchor name="bottom" x="422" y="0"/>
	<anchor name="horn" x="930" y="1024"/>
	<anchor name="right" x="529" y="0"/>
</glyph>
<glyph name="p" format="2">
	<unicode hex="0070"/>
	<advance width="1288"/>
	<outline>
		<contour>
			<point x="316" y="294" type="curve" smooth="yes"/>
			<point x="376" y="502" type="line" smooth="yes"/>
			<point x="413" y="629"/>
			<point x="606" y="985"/>
			<point x="911" y="985" type="curve" smooth="yes"/>
			<point x="1043" y="985"/>
			<point x="1127" y="888"/>
			<point x="1127" y="725" type="curve" smooth="yes"/>
			<point x="1127" y="385"/>
			<point x="898" y="31"/>
			<point x="563" y="31" type="curve" smooth="yes"/>
			<point x="387" y="31"/>
			<point x="304" y="109"/>
			<point x="304" y="218" type="curve" smooth="yes"/>
			<point x="304" y="242"/>
			<point x="308" y="268"/>
		</contour>
		<contour>
			<point x="264" y="179" type="line"/>
			<point x="282" y="51"/>
			<point x="381" y="-20"/>
			<point x="568" y="-20" type="curve" smooth="yes"/>
			<point x="930" y="-20"/>
			<point x="1205" y="357"/>
			<point x="1205" y="737" type="curve" smooth="yes"/>
			<point x="1205" y="920"/>
			<point x="1117" y="1044"/>
			<point x="916" y="1044" type="curve" smooth="yes"/>
			<point x="761" y="1044"/>
			<point x="592" y="955"/>
			<point x="422" y="679" type="curve"/>
			<point x="413" y="679" type="line"/>
			<point x="514" y="1030" type="line"/>
			<point x="493" y="1035"/>
			<point x="451" y="1039"/>
			<point x="422" y="1039" type="curve" smooth="yes"/>
			<point x="266" y="1039"/>
			<point x="149" y="1001"/>
			<point x="81" y="808" type="curve"/>
			<point x="104" y="808" type="line"/>
			<point x="155" y="913"/>
			<point x="236" y="969"/>
			<point x="360" y="969" type="curve" smooth="yes"/>
			<point x="383" y="969"/>
			<point x="412" y="969"/>
			<point x="431" y="963" type="curve"/>
			<point x="50" y="-381" type="line"/>
			<point x="-122" y="-397" type="line"/>
			<point x="-137" y="-445" type="line"/>
			<point x="292" y="-445" type="line"/>
			<point x="307" y="-397" type="line"/>
			<point x="125" y="-381" type="line"/>
			<point x="298" y="233" type="line"/>
		</contour>
	</outline>
	<anchor name="top" x="761" y="1024"/>
	<anchor name="bottom" x="68" y="-445"/>
</glyph>
<glyph name="q" format="2">
	<unicode hex="0071"/>
	<advance width="1168"/>
	<outline>
		<contour>
			<point x="657" y="-381" type="line"/>
			<point x="465" y="-397" type="line"/>
			<point x="450" y="-445" type="line"/>
			<point x="878" y="-445" type="line"/>
			<point x="893" y="-397" type="line"/>
			<point x="731" y="-381" type="line"/>
			<point x="1131" y="1024" type="line"/>
			<point x="1055" y="1024" type="line"/>
			<point x="1015" y="880" type="line"/>
			<point x="946" y="634" type="line" smooth="yes"/>
			<point x="874" y="377"/>
			<point x="599" y="40"/>
			<point x="333" y="40" type="curve" smooth="yes"/>
			<point x="197" y="40"/>
			<point x="132" y="107"/>
			<point x="132" y="249" type="curve" smooth="yes"/>
			<point x="132" y="525"/>
			<point x="420" y="993"/>
			<point x="753" y="993" type="curve" smooth="yes"/>
			<point x="881" y="993"/>
			<point x="979" y="936"/>
			<point x="1043" y="821" type="curve"/>
			<point x="1049" y="833" type="line"/>
			<point x="994" y="959"/>
			<point x="905" y="1044"/>
			<point x="756" y="1044" type="curve" smooth="yes"/>
			<point x="350" y="1044"/>
			<point x="55" y="535"/>
			<point x="55" y="225" type="curve" smooth="yes"/>
			<point x="55" y="85"/>
			<point x="131" y="-20"/>
			<point x="310" y="-20" type="curve" smooth="yes"/>
			<point x="488" y="-20"/>
			<point x="681" y="81"/>
			<point x="894" y="427" type="curve"/>
			<point x="903" y="427" type="line"/>
		</contour>
	</outline>
	<anchor name="top" x="770" y="1024"/>
	<anchor name="bottom" x="674" y="-445"/>
</glyph>
<glyph name="t" format="2">
	<unicode hex="0074"/>
	<advance width="754"/>
	<outline>
		<contour>
			<point x="159" y="967" type="line"/>
			<point x="790" y="967" type="line"/>
			<point x="790" y="1024" type="line"/>
			<point x="159" y="1024" type="line"/>
		</contour>
		<contour>
			<point x="279" y="246" type="curve" smooth="yes"/>
			<point x="583" y="1233" type="line"/>
			<point x="513" y="1233" type="line"/>
			<point x="212" y="258" type="line" smooth="yes"/>
			<point x="194" y="199"/>
			<point x="186" y="151"/>
			<point x="186" y="113" type="curve" smooth="yes"/>
			<point x="186" y="11"/>
			<point x="245" y="-20"/>
			<point x="319" y="-20" type="curve" smooth="yes"/>
			<point x="427" y="-20"/>
			<point x="508" y="29"/>
			<point x="652" y="175" type="curve"/>
			<point x="628" y="203" type="line"/>
			<point x="473" y="59"/>
			<point x="405" y="38"/>
			<point x="333" y="38" type="curve" smooth="yes"/>
			<point x="285" y="38"/>
			<point x="255" y="57"/>
			<point x="255" y="119" type="curve" smooth="yes"/>
			<point x="255" y="150"/>
			<point x="262" y="191"/>
		</contour>
	</outline>
	<anchor name="right" x="633" y="1535"/>
	<anchor name="bottom" x="375" y="0"/>
</glyph>
<glyph name="u" format="2">
	<unicode hex="0075"/>
	<advance width="1292"/>
	<outline>
		<contour>
			<point x="795" y="52" type="line" smooth="yes"/>
			<point x="776" y="-1"/>
			<point x="788" y="-20"/>
			<point x="838" y="-20" type="curve" smooth="yes"/>
			<point x="902" y="-20"/>
			<point x="1037" y="6"/>
			<point x="1224" y="122" type="curve"/>
			<point x="1209" y="154" type="line"/>
			<point x="1018" y="56"/>
			<point x="905" y="42"/>
			<point x="824" y="50" type="curve"/>
			<point x="846" y="14" type="line"/>
			<point x="1172" y="1024" type="line"/>
			<point x="1096" y="1024" type="line"/>
			<point x="966" y="623" type="line" smooth="yes"/>
			<point x="858" y="289"/>
			<point x="613" y="53"/>
			<point x="392" y="53" type="curve" smooth="yes"/>
			<point x="294" y="53"/>
			<point x="250" y="94"/>
			<point x="250" y="173" type="curve" smooth="yes"/>
			<point x="250" y="219"/>
			<point x="264" y="277"/>
			<point x="291" y="347" type="curve" smooth="yes"/>
			<point x="526" y="966" type="line" smooth="yes"/>
			<point x="547" y="1021"/>
			<point x="534" y="1044"/>
			<point x="474" y="1044" type="curve" smooth="yes"/>
			<point x="405" y="1044"/>
			<point x="261" y="1003"/>
			<point x="68" y="861" type="curve"/>
			<point x="85" y="830" type="line"/>
			<point x="285" y="954"/>
			<point x="400" y="982"/>
			<point x="488" y="974" type="curve"/>
			<point x="466" y="1005" type="line"/>
			<point x="220" y="364" type="line" smooth="yes"/>
			<point x="189" y="284"/>
			<point x="172" y="213"/>
			<point x="172" y="155" type="curve" smooth="yes"/>
			<point x="172" y="45"/>
			<point x="233" y="-20"/>
			<point x="378" y="-20" type="curve" smooth="yes"/>
			<point x="543" y="-20"/>
			<point x="737" y="112"/>
			<point x="917" y="427" type="curve"/>
			<point x="926" y="427" type="line"/>
		</contour>
	</outline>
	<anchor name="top" x="773" y="1024"/>
	<anchor name="right" x="1107" y="0"/>
	<anchor name="bottom" x="519" y="0"/>
	<anchor name="horn" x="1201" y="1024"/>
</glyph>
<glyph name="v" format="2">
  <advance width="1193"/>
  <unicode hex="0076"/>
  <anchor x="750.0" y="1024" name="top"/>
  <anchor x="456.0" y="0" name="bottom"/>
  <outline>
    <contour>
      <point x="1081" y="803" type="curve" smooth="yes"/>
      <point x="1081" y="984"/>
      <point x="1041" y="1044"/>
      <point x="980" y="1044" type="curve" smooth="yes"/>
      <point x="932" y="1044"/>
      <point x="904" y="1008"/>
      <point x="904" y="962" type="curve" smooth="yes"/>
      <point x="904" y="939"/>
      <point x="1015" y="937"/>
      <point x="1015" y="701" type="curve" smooth="yes"/>
      <point x="1015" y="296"/>
      <point x="756" y="35"/>
      <point x="482" y="35" type="curve" smooth="yes"/>
      <point x="369" y="35"/>
      <point x="294" y="88"/>
      <point x="294" y="213" type="curve" smooth="yes"/>
      <point x="294" y="262"/>
      <point x="305" y="322"/>
      <point x="331" y="395" type="curve" smooth="yes"/>
      <point x="555" y="1030" type="line"/>
      <point x="533" y="1035"/>
      <point x="488" y="1039"/>
      <point x="457" y="1039" type="curve" smooth="yes"/>
      <point x="290" y="1039"/>
      <point x="173" y="1001"/>
      <point x="105" y="808" type="curve"/>
      <point x="128" y="808" type="line"/>
      <point x="179" y="913"/>
      <point x="260" y="969"/>
      <point x="384" y="969" type="curve" smooth="yes"/>
      <point x="407" y="969"/>
      <point x="436" y="969"/>
      <point x="455" y="963" type="curve"/>
      <point x="256" y="396" type="line" smooth="yes"/>
      <point x="230" y="321"/>
      <point x="218" y="257"/>
      <point x="218" y="204" type="curve" smooth="yes"/>
      <point x="218" y="48"/>
      <point x="321" y="-20"/>
      <point x="480" y="-20" type="curve" smooth="yes"/>
      <point x="741" y="-20"/>
      <point x="1081" y="248"/>
    </contour>
  </outline>
</glyph>
<glyph name="w" format="2">
	<unicode hex="0077"/>
	<advance width="1641"/>
	<outline>
		<contour>
			<point x="983" y="1024" type="line"/>
			<point x="845" y="493" type="line" smooth="yes"/>
			<point x="766" y="188"/>
			<point x="561" y="35"/>
			<point x="408" y="35" type="curve" smooth="yes"/>
			<point x="316" y="35"/>
			<point x="266" y="82"/>
			<point x="266" y="176" type="curve" smooth="yes"/>
			<point x="266" y="221"/>
			<point x="277" y="276"/>
			<point x="301" y="343" type="curve" smooth="yes"/>
			<point x="543" y="1030" type="line"/>
			<point x="521" y="1035"/>
			<point x="476" y="1039"/>
			<point x="445" y="1039" type="curve" smooth="yes"/>
			<point x="278" y="1039"/>
			<point x="161" y="1001"/>
			<point x="93" y="808" type="curve"/>
			<point x="116" y="808" type="line"/>
			<point x="167" y="913"/>
			<point x="248" y="969"/>
			<point x="372" y="969" type="curve" smooth="yes"/>
			<point x="395" y="969"/>
			<point x="424" y="969"/>
			<point x="443" y="963" type="curve"/>
			<point x="228" y="350" type="line" smooth="yes"/>
			<point x="204" y="280"/>
			<point x="192" y="220"/>
			<point x="192" y="171" type="curve" smooth="yes"/>
			<point x="192" y="42"/>
			<point x="270" y="-20"/>
			<point x="405" y="-20" type="curve" smooth="yes"/>
			<point x="560" y="-20"/>
			<point x="712" y="92"/>
			<point x="837" y="350" type="curve"/>
			<point x="846" y="350" type="line"/>
			<point x="823" y="256" type="line" smooth="yes"/>
			<point x="814" y="220"/>
			<point x="810" y="188"/>
			<point x="810" y="159" type="curve" smooth="yes"/>
			<point x="810" y="38"/>
			<point x="887" y="-20"/>
			<point x="1027" y="-20" type="curve" smooth="yes"/>
			<point x="1256" y="-20"/>
			<point x="1529" y="248"/>
			<point x="1529" y="803" type="curve" smooth="yes"/>
			<point x="1529" y="984"/>
			<point x="1489" y="1044"/>
			<point x="1428" y="1044" type="curve" smooth="yes"/>
			<point x="1380" y="1044"/>
			<point x="1352" y="1008"/>
			<point x="1352" y="962" type="curve" smooth="yes"/>
			<point x="1352" y="939"/>
			<point x="1463" y="937"/>
			<point x="1463" y="739" type="curve" smooth="yes"/>
			<point x="1463" y="296"/>
			<point x="1259" y="35"/>
			<point x="1024" y="35" type="curve" smooth="yes"/>
			<point x="918" y="35"/>
			<point x="857" y="80"/>
			<point x="857" y="195" type="curve" smooth="yes"/>
			<point x="857" y="236"/>
			<point x="864" y="285"/>
			<point x="880" y="343" type="curve" smooth="yes"/>
			<point x="1060" y="1024" type="line"/>
		</contour>
	</outline>
	<anchor name="top" x="998" y="1024"/>
	<anchor name="bottom" x="784" y="0"/>
</glyph>
<glyph name="x" format="2">
	<unicode hex="0078"/>
	<advance width="1180"/>
	<outline>
		<contour>
			<point x="608" y="515" type="line"/>
			<point x="773" y="722" type="line" smooth="yes"/>
			<point x="924" y="911"/>
			<point x="1023" y="959"/>
			<point x="1059" y="959" type="curve" smooth="yes"/>
			<point x="1067" y="959"/>
			<point x="1089" y="942"/>
			<point x="1110" y="925" type="curve" smooth="yes"/>
			<point x="1131" y="908"/>
			<point x="1153" y="889"/>
			<point x="1159" y="889" type="curve" smooth="yes"/>
			<point x="1171" y="889"/>
			<point x="1219" y="931"/>
			<point x="1219" y="976" type="curve" smooth="yes"/>
			<point x="1219" y="1014"/>
			<point x="1201" y="1044"/>
			<point x="1126" y="1044" type="curve" smooth="yes"/>
			<point x="1017" y="1044"/>
			<point x="912" y="962"/>
			<point x="754" y="767" type="curve" smooth="yes"/>
			<point x="591" y="565" type="line"/>
			<point x="557" y="534" type="line"/>
			<point x="379" y="306" type="line" smooth="yes"/>
			<point x="231" y="116"/>
			<point x="139" y="65"/>
			<point x="103" y="65" type="curve" smooth="yes"/>
			<point x="95" y="65"/>
			<point x="75" y="80"/>
			<point x="53" y="98" type="curve" smooth="yes"/>
			<point x="31" y="116"/>
			<point x="9" y="135"/>
			<point x="3" y="135" type="curve" smooth="yes"/>
			<point x="-9" y="135"/>
			<point x="-51" y="96"/>
			<point x="-51" y="48" type="curve" smooth="yes"/>
			<point x="-51" y="2"/>
			<point x="-25" y="-20"/>
			<point x="42" y="-20" type="curve" smooth="yes"/>
			<point x="151" y="-20"/>
			<point x="245" y="59"/>
			<point x="399" y="257" type="curve" smooth="yes"/>
			<point x="577" y="487" type="line"/>
		</contour>
		<contour>
			<point x="1094" y="266" type="curve"/>
			<point x="1060" y="295" type="line"/>
			<point x="910" y="119"/>
			<point x="807" y="48"/>
			<point x="755" y="48" type="curve" smooth="yes"/>
			<point x="742" y="48"/>
			<point x="738" y="58"/>
			<point x="728" y="100" type="curve" smooth="yes"/>
			<point x="522" y="962" type="line" smooth="yes"/>
			<point x="507" y="1024"/>
			<point x="489" y="1044"/>
			<point x="444" y="1044" type="curve" smooth="yes"/>
			<point x="373" y="1044"/>
			<point x="273" y="980"/>
			<point x="123" y="735" type="curve"/>
			<point x="160" y="711" type="line"/>
			<point x="289" y="907"/>
			<point x="378" y="968"/>
			<point x="430" y="968" type="curve" smooth="yes"/>
			<point x="446" y="968"/>
			<point x="452" y="962"/>
			<point x="460" y="929" type="curve" smooth="yes"/>
			<point x="669" y="51" type="line" smooth="yes"/>
			<point x="683" y="-8"/>
			<point x="696" y="-20"/>
			<point x="737" y="-20" type="curve" smooth="yes"/>
			<point x="808" y="-20"/>
			<point x="914" y="42"/>
		</contour>
	</outline>
	<anchor name="top" x="751" y="1024"/>
	<anchor name="bottom" x="437" y="0"/>
</glyph>
<glyph name="y" format="2">
	<unicode hex="0079"/>
	<advance width="1197"/>
	<outline>
		<contour>
			<point x="99" y="572" type="line"/>
			<point x="188" y="821"/>
			<point x="304" y="970"/>
			<point x="364" y="970" type="curve" smooth="yes"/>
			<point x="384" y="970"/>
			<point x="396" y="957"/>
			<point x="431" y="842" type="curve" smooth="yes"/>
			<point x="466" y="727"/>
			<point x="569" y="238"/>
			<point x="588" y="-135" type="curve"/>
			<point x="660" y="-69" type="line"/>
			<point x="609" y="457"/>
			<point x="528" y="798"/>
			<point x="487" y="913" type="curve" smooth="yes"/>
			<point x="446" y="1028"/>
			<point x="428" y="1044"/>
			<point x="381" y="1044" type="curve" smooth="yes"/>
			<point x="303" y="1044"/>
			<point x="187" y="964"/>
			<point x="62" y="584" type="curve"/>
		</contour>
		<contour>
			<point x="606" y="-103" type="line"/>
			<point x="472" y="-259"/>
			<point x="245" y="-396"/>
			<point x="110" y="-396" type="curve" smooth="yes"/>
			<point x="89" y="-396"/>
			<point x="66" y="-378"/>
			<point x="48" y="-349" type="curve" smooth="yes"/>
			<point x="30" y="-320"/>
			<point x="17" y="-288"/>
			<point x="10" y="-288" type="curve" smooth="yes"/>
			<point x="-28" y="-288"/>
			<point x="-75" y="-341"/>
			<point x="-75" y="-379" type="curve" smooth="yes"/>
			<point x="-75" y="-437"/>
			<point x="-32" y="-465"/>
			<point x="57" y="-465" type="curve" smooth="yes"/>
			<point x="226" y="-465"/>
			<point x="478" y="-337"/>
			<point x="702" y="-75" type="curve" smooth="yes"/>
			<point x="926" y="187"/>
			<point x="1118" y="694"/>
			<point x="1118" y="1000" type="curve" smooth="yes"/>
			<point x="1118" y="1022"/>
			<point x="1106" y="1027"/>
			<point x="1075" y="1027" type="curve" smooth="yes"/>
			<point x="1057" y="1027"/>
			<point x="1049" y="1025"/>
			<point x="1033" y="1024" type="curve"/>
			<point x="1023" y="600"/>
			<point x="867" y="197"/>
			<point x="640" y="-61" type="curve"/>
		</contour>
	</outline>
	<anchor name="top" x="708" y="1024"/>
	<anchor name="bottom" x="814" y="-159"/>
</glyph>
<glyph name="z" format="2">
	<unicode hex="007A"/>
	<advance width="1043"/>
	<outline>
		<contour>
			<point x="26" y="21" type="line"/>
			<point x="64" y="-20" type="line"/>
			<point x="1024" y="1004" type="line"/>
			<point x="985" y="1044" type="line"/>
		</contour>
		<contour>
			<point x="173" y="717" type="line"/>
			<point x="327" y="953"/>
			<point x="397" y="1000"/>
			<point x="522" y="953" type="curve" smooth="yes"/>
			<point x="826" y="840" type="line"/>
			<point x="875" y="906" type="line"/>
			<point x="539" y="1026" type="line" smooth="yes"/>
			<point x="418" y="1069"/>
			<point x="308" y="1026"/>
			<point x="138" y="738" type="curve"/>
		</contour>
		<contour>
			<point x="455" y="13" type="line" smooth="yes"/>
			<point x="612" y="-53"/>
			<point x="694" y="-37"/>
			<point x="932" y="274" type="curve"/>
			<point x="903" y="297" type="line"/>
			<point x="675" y="34"/>
			<point x="620" y="28"/>
			<point x="495" y="80" type="curve" smooth="yes"/>
			<point x="230" y="191" type="line"/>
			<point x="151" y="140" type="line"/>
		</contour>
	</outline>
	<anchor name="top" x="642" y="1024"/>
	<anchor name="bottom" x="418" y="0"/>
</glyph>
<glyph name="braceleft" format="2">
	<unicode hex="007B"/>
	<advance width="672"/>
	<outline>
		<contour>
			<point x="102" y="592" type="line"/>
			<point x="173" y="592" type="line" smooth="yes"/>
			<point x="248" y="592"/>
			<point x="286" y="561"/>
			<point x="286" y="498" type="curve" smooth="yes"/>
			<point x="286" y="362"/>
			<point x="110" y="97"/>
			<point x="110" y="-54" type="curve" smooth="yes"/>
			<point x="110" y="-146"/>
			<point x="164" y="-223"/>
			<point x="297" y="-236" type="curve" smooth="yes"/>
			<point x="358" y="-242" type="line"/>
			<point x="373" y="-191" type="line"/>
			<point x="307" y="-183" type="line" smooth="yes"/>
			<point x="224" y="-173"/>
			<point x="187" y="-139"/>
			<point x="187" y="-69" type="curve" smooth="yes"/>
			<point x="187" y="64"/>
			<point x="347" y="371"/>
			<point x="347" y="491" type="curve" smooth="yes"/>
			<point x="347" y="572"/>
			<point x="299" y="619"/>
			<point x="205" y="626" type="curve"/>
			<point x="198" y="606" type="line"/>
			<point x="337" y="615"/>
			<point x="425" y="688"/>
			<point x="467" y="825" type="curve" smooth="yes"/>
			<point x="509" y="962"/>
			<point x="507" y="1120"/>
			<point x="541" y="1229" type="curve" smooth="yes"/>
			<point x="575" y="1338"/>
			<point x="641" y="1409"/>
			<point x="787" y="1425" type="curve" smooth="yes"/>
			<point x="858" y="1433" type="line"/>
			<point x="859" y="1484" type="line"/>
			<point x="794" y="1478" type="line" smooth="yes"/>
			<point x="592" y="1459"/>
			<point x="495" y="1354"/>
			<point x="457" y="1230" type="curve" smooth="yes"/>
			<point x="419" y="1106"/>
			<point x="430" y="957"/>
			<point x="391" y="827" type="curve" smooth="yes"/>
			<point x="352" y="697"/>
			<point x="289" y="650"/>
			<point x="190" y="650" type="curve" smooth="yes"/>
			<point x="120" y="650" type="line"/>
		</contour>
	</outline>
</glyph>
<glyph name="bar" format="2">
  <advance width="551"/>
  <unicode hex="007C"/>
  <guideline x="575.0" y="1535" angle="2.5811480271881413" identifier="OcQTrgMz1g"/>
  <outline>
    <contour>
      <point x="-46.0" y="-465.0" type="line"/>
      <point x="22.0" y="-465.0" type="line"/>
      <point x="610.0" y="1535.0" type="line"/>
      <point x="542.0" y="1535.0" type="line"/>
    </contour>
  </outline>
</glyph>
<glyph name="braceright" format="2">
	<unicode hex="007D"/>
	<advance width="672"/>
	<outline>
		<contour>
			<point x="636" y="651" type="line"/>
			<point x="565" y="651" type="line" smooth="yes"/>
			<point x="490" y="651"/>
			<point x="452" y="682"/>
			<point x="452" y="745" type="curve" smooth="yes"/>
			<point x="452" y="881"/>
			<point x="628" y="1146"/>
			<point x="628" y="1297" type="curve" smooth="yes"/>
			<point x="628" y="1389"/>
			<point x="574" y="1466"/>
			<point x="441" y="1479" type="curve" smooth="yes"/>
			<point x="380" y="1485" type="line"/>
			<point x="365" y="1434" type="line"/>
			<point x="431" y="1426" type="line" smooth="yes"/>
			<point x="514" y="1416"/>
			<point x="551" y="1382"/>
			<point x="551" y="1312" type="curve" smooth="yes"/>
			<point x="551" y="1179"/>
			<point x="391" y="872"/>
			<point x="391" y="752" type="curve" smooth="yes"/>
			<point x="391" y="671"/>
			<point x="439" y="624"/>
			<point x="533" y="617" type="curve"/>
			<point x="540" y="637" type="line"/>
			<point x="401" y="628"/>
			<point x="313" y="555"/>
			<point x="271" y="418" type="curve" smooth="yes"/>
			<point x="229" y="281"/>
			<point x="231" y="123"/>
			<point x="197" y="14" type="curve" smooth="yes"/>
			<point x="163" y="-95"/>
			<point x="97" y="-166"/>
			<point x="-49" y="-182" type="curve" smooth="yes"/>
			<point x="-120" y="-190" type="line"/>
			<point x="-121" y="-241" type="line"/>
			<point x="-56" y="-235" type="line" smooth="yes"/>
			<point x="146" y="-216"/>
			<point x="243" y="-111"/>
			<point x="281" y="13" type="curve" smooth="yes"/>
			<point x="319" y="137"/>
			<point x="308" y="286"/>
			<point x="347" y="416" type="curve" smooth="yes"/>
			<point x="386" y="546"/>
			<point x="449" y="593"/>
			<point x="548" y="593" type="curve" smooth="yes"/>
			<point x="618" y="593" type="line"/>
		</contour>
	</outline>
</glyph>
<glyph name="asciitilde" format="2">
	<unicode hex="007E"/>
	<advance width="1200"/>
	<outline>
		<contour>
			<point x="1048" y="628" type="curve"/>
			<point x="980" y="628" type="line"/>
			<point x="932" y="512"/>
			<point x="875" y="456"/>
			<point x="782" y="456" type="curve" smooth="yes"/>
			<point x="635" y="456"/>
			<point x="596" y="636"/>
			<point x="428" y="636" type="curve" smooth="yes"/>
			<point x="315" y="636"/>
			<point x="217" y="584"/>
			<point x="152" y="396" type="curve"/>
			<point x="220" y="396" type="line"/>
			<point x="268" y="512"/>
			<point x="325" y="568"/>
			<point x="418" y="568" type="curve" smooth="yes"/>
			<point x="565" y="568"/>
			<point x="604" y="388"/>
			<point x="772" y="388" type="curve" smooth="yes"/>
			<point x="885" y="388"/>
			<point x="983" y="440"/>
		</contour>
	</outline>
</glyph>
<glyph name="exclamdown" format="2">
	<unicode hex="00A1"/>
	<advance width="541"/>
	<outline>
		<contour>
			<point x="-44" y="-390" type="line" smooth="yes"/>
			<point x="-48" y="-404"/>
			<point x="-32" y="-410"/>
			<point x="-2" y="-410" type="curve" smooth="yes"/>
			<point x="25" y="-410"/>
			<point x="41" y="-404"/>
			<point x="45" y="-390" type="curve" smooth="yes"/>
			<point x="66" y="-323" type="line"/>
			<point x="104.3280757098" y="-188"/>
			<point x="236.0630914826" y="276"/>
			<point x="336" y="628" type="curve"/>
			<point x="287" y="628" type="line"/>
			<point x="171.8874868559" y="276"/>
			<point x="20.1482649842" y="-188"/>
			<point x="-24" y="-323" type="curve"/>
		</contour>
		<contour>
			<point x="372" y="840" type="curve" smooth="yes"/>
			<point x="458" y="840"/>
			<point x="499" y="901"/>
			<point x="499" y="967" type="curve" smooth="yes"/>
			<point x="499" y="1014"/>
			<point x="470" y="1038"/>
			<point x="421" y="1038" type="curve" smooth="yes"/>
			<point x="335" y="1038"/>
			<point x="294" y="977"/>
			<point x="294" y="911" type="curve" smooth="yes"/>
			<point x="294" y="864"/>
			<point x="323" y="840"/>
		</contour>
	</outline>
</glyph>
<glyph name="currency" format="2">
	<unicode hex="00A4"/>
	<advance width="1012"/>
	<outline>
		<contour>
			<point x="246" y="819" type="line"/>
			<point x="331" y="692" type="line"/>
			<point x="388" y="736" type="line"/>
			<point x="302" y="861" type="line"/>
		</contour>
		<contour>
			<point x="885" y="827" type="line"/>
			<point x="721" y="702" type="line"/>
			<point x="757" y="651" type="line"/>
			<point x="921" y="773" type="line"/>
		</contour>
		<contour>
			<point x="765" y="205" type="line"/>
			<point x="680" y="332" type="line"/>
			<point x="623" y="288" type="line"/>
			<point x="709" y="163" type="line"/>
		</contour>
		<contour>
			<point x="90" y="251" type="line"/>
			<point x="126" y="197" type="line"/>
			<point x="290" y="322" type="line"/>
			<point x="254" y="373" type="line"/>
		</contour>
		<contour>
			<point x="544" y="808" type="curve" smooth="yes"/>
			<point x="345" y="808"/>
			<point x="201" y="651"/>
			<point x="201" y="462" type="curve" smooth="yes"/>
			<point x="201" y="319"/>
			<point x="304" y="216"/>
			<point x="467" y="216" type="curve" smooth="yes"/>
			<point x="666" y="216"/>
			<point x="810" y="373"/>
			<point x="810" y="562" type="curve" smooth="yes"/>
			<point x="810" y="705"/>
			<point x="707" y="808"/>
		</contour>
		<contour>
			<point x="475" y="275" type="curve" smooth="yes"/>
			<point x="349" y="275"/>
			<point x="266" y="351"/>
			<point x="266" y="468" type="curve" smooth="yes"/>
			<point x="266" y="622"/>
			<point x="376" y="749"/>
			<point x="536" y="749" type="curve" smooth="yes"/>
			<point x="662" y="749"/>
			<point x="745" y="673"/>
			<point x="745" y="556" type="curve" smooth="yes"/>
			<point x="745" y="402"/>
			<point x="635" y="275"/>
		</contour>
	</outline>
</glyph>
<glyph name="brokenbar" format="2">
	<unicode hex="00A6"/>
	<advance width="551"/>
	<outline>
		<contour>
			<point x="387" y="775" type="line"/>
			<point x="610" y="1535" type="line"/>
			<point x="542" y="1535" type="line"/>
			<point x="319" y="775" type="line"/>
		</contour>
		<contour>
			<point x="-46" y="-465" type="line"/>
			<point x="22" y="-465" type="line"/>
			<point x="246" y="295" type="line"/>
			<point x="178" y="295" type="line"/>
		</contour>
	</outline>
</glyph>
<glyph name="section" format="2">
	<unicode hex="00A7"/>
	<advance width="1094"/>
	<outline>
		<contour>
			<point x="604" y="872" type="curve"/>
			<point x="605" y="904" type="line"/>
			<point x="303" y="904"/>
			<point x="140" y="793"/>
			<point x="140" y="578" type="curve" smooth="yes"/>
			<point x="140" y="218"/>
			<point x="674" y="365"/>
			<point x="674" y="79" type="curve" smooth="yes"/>
			<point x="674" y="-57"/>
			<point x="564" y="-187"/>
			<point x="315" y="-187" type="curve" smooth="yes"/>
			<point x="128" y="-187"/>
			<point x="72" y="-72"/>
			<point x="55" y="-72" type="curve" smooth="yes"/>
			<point x="25" y="-72"/>
			<point x="-6" y="-96"/>
			<point x="-6" y="-137" type="curve" smooth="yes"/>
			<point x="-6" y="-191"/>
			<point x="67" y="-243"/>
			<point x="266" y="-243" type="curve" smooth="yes"/>
			<point x="571" y="-243"/>
			<point x="737" y="-93"/>
			<point x="737" y="100" type="curve" smooth="yes"/>
			<point x="737" y="446"/>
			<point x="200" y="272"/>
			<point x="200" y="599" type="curve" smooth="yes"/>
			<point x="200" y="775"/>
			<point x="344" y="872"/>
		</contour>
		<contour>
			<point x="945" y="592" type="curve" smooth="yes"/>
			<point x="945" y="426"/>
			<point x="801" y="319"/>
			<point x="541" y="319" type="curve"/>
			<point x="540" y="287" type="line"/>
			<point x="842" y="287"/>
			<point x="1005" y="408"/>
			<point x="1005" y="613" type="curve" smooth="yes"/>
			<point x="1005" y="973"/>
			<point x="471" y="826"/>
			<point x="471" y="1112" type="curve" smooth="yes"/>
			<point x="471" y="1248"/>
			<point x="581" y="1378"/>
			<point x="830" y="1378" type="curve" smooth="yes"/>
			<point x="1017" y="1378"/>
			<point x="1073" y="1263"/>
			<point x="1090" y="1263" type="curve" smooth="yes"/>
			<point x="1120" y="1263"/>
			<point x="1151" y="1287"/>
			<point x="1151" y="1328" type="curve" smooth="yes"/>
			<point x="1151" y="1382"/>
			<point x="1078" y="1434"/>
			<point x="879" y="1434" type="curve" smooth="yes"/>
			<point x="574" y="1434"/>
			<point x="408" y="1284"/>
			<point x="408" y="1091" type="curve" smooth="yes"/>
			<point x="408" y="745"/>
			<point x="945" y="919"/>
		</contour>
	</outline>
</glyph>
<glyph name="copyright" format="2">
	<unicode hex="00A9"/>
	<advance width="1778"/>
	<outline>
		<contour>
			<point x="897" y="368" type="curve" smooth="yes"/>
			<point x="720" y="368"/>
			<point x="618" y="433"/>
			<point x="618" y="603" type="curve" smooth="yes"/>
			<point x="618" y="839"/>
			<point x="749" y="1055"/>
			<point x="1053" y="1055" type="curve" smooth="yes"/>
			<point x="1161" y="1055"/>
			<point x="1219" y="1039"/>
			<point x="1288" y="996" type="curve"/>
			<point x="1273" y="1075" type="line"/>
			<point x="1235" y="873" type="line"/>
			<point x="1290" y="873" type="line"/>
			<point x="1372" y="1140" type="line"/>
			<point x="1323" y="1140" type="line"/>
			<point x="1278" y="1069" type="line"/>
			<point x="1335" y="1075" type="line"/>
			<point x="1278" y="1106"/>
			<point x="1197" y="1123"/>
			<point x="1095" y="1123" type="curve" smooth="yes"/>
			<point x="717" y="1123"/>
			<point x="538" y="866"/>
			<point x="538" y="600" type="curve" smooth="yes"/>
			<point x="538" y="399"/>
			<point x="665" y="301"/>
			<point x="888" y="301" type="curve" smooth="yes"/>
			<point x="975" y="301"/>
			<point x="1063" y="318"/>
			<point x="1129" y="343" type="curve"/>
			<point x="1221" y="536" type="line"/>
			<point x="1169" y="536" type="line"/>
			<point x="1039" y="333" type="line"/>
			<point x="1106" y="407" type="line"/>
			<point x="1045" y="379"/>
			<point x="955" y="368"/>
		</contour>
		<contour>
			<point x="872" y="39" type="curve" smooth="yes"/>
			<point x="489" y="39"/>
			<point x="259" y="214"/>
			<point x="259" y="561" type="curve" smooth="yes"/>
			<point x="259" y="984"/>
			<point x="536" y="1376"/>
			<point x="1024" y="1376" type="curve" smooth="yes"/>
			<point x="1407" y="1376"/>
			<point x="1637" y="1201"/>
			<point x="1637" y="854" type="curve" smooth="yes"/>
			<point x="1637" y="430"/>
			<point x="1360" y="39"/>
		</contour>
		<contour>
			<point x="1028" y="1434" type="curve" smooth="yes"/>
			<point x="502" y="1434"/>
			<point x="193" y="1018"/>
			<point x="193" y="558" type="curve" smooth="yes"/>
			<point x="193" y="181"/>
			<point x="461" y="-20"/>
			<point x="868" y="-20" type="curve" smooth="yes"/>
			<point x="1394" y="-20"/>
			<point x="1703" y="397"/>
			<point x="1703" y="857" type="curve" smooth="yes"/>
			<point x="1703" y="1234"/>
			<point x="1435" y="1434"/>
		</contour>
	</outline>
</glyph>
<glyph name="ordfeminine" format="2">
	<unicode hex="00AA"/>
	<advance width="977"/>
	<outline>
		<contour>
			<point x="215" y="547" type="line"/>
			<point x="811" y="547" type="line"/>
			<point x="831" y="611" type="line"/>
			<point x="236" y="611" type="line"/>
		</contour>
		<contour>
			<point x="710" y="829" type="line" smooth="yes"/>
			<point x="693" y="786"/>
			<point x="700" y="767"/>
			<point x="735" y="767" type="curve" smooth="yes"/>
			<point x="773" y="767"/>
			<point x="854" y="783"/>
			<point x="965" y="855" type="curve"/>
			<point x="955" y="881" type="line"/>
			<point x="840" y="820"/>
			<point x="772" y="811"/>
			<point x="724" y="816" type="curve"/>
			<point x="760" y="787" type="line"/>
			<point x="974" y="1414" type="line"/>
			<point x="900" y="1414" type="line"/>
			<point x="867" y="1317" type="line"/>
			<point x="822" y="1177" type="line" smooth="yes"/>
			<point x="771" y="1020"/>
			<point x="619" y="820"/>
			<point x="475" y="820" type="curve" smooth="yes"/>
			<point x="397" y="820"/>
			<point x="361" y="857"/>
			<point x="361" y="938" type="curve" smooth="yes"/>
			<point x="361" y="1105"/>
			<point x="523" y="1377"/>
			<point x="710" y="1377" type="curve" smooth="yes"/>
			<point x="781" y="1377"/>
			<point x="836" y="1343"/>
			<point x="872" y="1277" type="curve"/>
			<point x="890" y="1296" type="line"/>
			<point x="857" y="1374"/>
			<point x="804" y="1426"/>
			<point x="715" y="1426" type="curve" smooth="yes"/>
			<point x="472" y="1426"/>
			<point x="294" y="1111"/>
			<point x="294" y="919" type="curve" smooth="yes"/>
			<point x="294" y="833"/>
			<point x="340" y="767"/>
			<point x="447" y="767" type="curve" smooth="yes"/>
			<point x="550" y="767"/>
			<point x="657" y="827"/>
			<point x="787" y="1035" type="curve"/>
			<point x="793" y="1035" type="line"/>
		</contour>
	</outline>
</glyph>
<glyph name="guillemotleft" format="2">
	<unicode hex="00AB"/>
	<advance width="979"/>
	<outline>
		<contour>
			<point x="162" y="527" type="line"/>
			<point x="149" y="485" type="line"/>
			<point x="614" y="887" type="line"/>
			<point x="585" y="928" type="line"/>
			<point x="115" y="555" type="line"/>
			<point x="94" y="489" type="line"/>
			<point x="343" y="116" type="line"/>
			<point x="384" y="141" type="line"/>
		</contour>
		<contour>
			<point x="523" y="527" type="line"/>
			<point x="510" y="485" type="line"/>
			<point x="975" y="887" type="line"/>
			<point x="946" y="928" type="line"/>
			<point x="476" y="555" type="line"/>
			<point x="455" y="489" type="line"/>
			<point x="704" y="116" type="line"/>
			<point x="745" y="141" type="line"/>
		</contour>
	</outline>
</glyph>
<glyph name="logicalnot" format="2">
	<unicode hex="00AC"/>
	<advance width="1200"/>
	<outline>
		<contour>
			<point x="254" y="742" type="line"/>
			<point x="234" y="675" type="line"/>
			<point x="989" y="675" type="line"/>
			<point x="864" y="268" type="line"/>
			<point x="931" y="268" type="line"/>
			<point x="1076" y="742" type="line"/>
		</contour>
	</outline>
</glyph>
<glyph name="registered" format="2">
	<unicode hex="00AE"/>
	<advance width="1157"/>
	<outline>
		<contour>
			<point x="923" y="831" type="line"/>
			<point x="884" y="831"/>
			<point x="880" y="836"/>
			<point x="874" y="873" type="curve" smooth="yes"/>
			<point x="862" y="948" type="line" smooth="yes"/>
			<point x="855" y="992"/>
			<point x="843" y="1017"/>
			<point x="789" y="1021" type="curve"/>
			<point x="799" y="1016" type="line"/>
			<point x="901" y="1031"/>
			<point x="940" y="1083"/>
			<point x="940" y="1147" type="curve" smooth="yes"/>
			<point x="940" y="1203"/>
			<point x="905" y="1240"/>
			<point x="792" y="1240" type="curve" smooth="yes"/>
			<point x="683" y="1240" type="line"/>
			<point x="670" y="1197" type="line"/>
			<point x="783" y="1197" type="line" smooth="yes"/>
			<point x="855" y="1197"/>
			<point x="878" y="1180"/>
			<point x="878" y="1136" type="curve" smooth="yes"/>
			<point x="878" y="1075"/>
			<point x="838" y="1037"/>
			<point x="738" y="1037" type="curve" smooth="yes"/>
			<point x="621" y="1037" type="line"/>
			<point x="608" y="994" type="line"/>
			<point x="751" y="994" type="line" smooth="yes"/>
			<point x="797" y="994"/>
			<point x="802" y="990"/>
			<point x="808" y="949" type="curve" smooth="yes"/>
			<point x="825" y="840" type="line" smooth="yes"/>
			<point x="832" y="791"/>
			<point x="852" y="786"/>
			<point x="915" y="791" type="curve"/>
		</contour>
		<contour>
			<point x="708" y="1240" type="line"/>
			<point x="581" y="1240" type="line"/>
			<point x="570" y="1203" type="line"/>
			<point x="638" y="1198" type="line"/>
			<point x="526" y="833" type="line"/>
			<point x="455" y="828" type="line"/>
			<point x="444" y="791" type="line"/>
			<point x="650" y="791" type="line"/>
			<point x="661" y="828" type="line"/>
			<point x="584" y="833" type="line"/>
		</contour>
		<contour>
			<point x="678" y="633" type="curve" smooth="yes"/>
			<point x="450" y="633"/>
			<point x="340" y="730"/>
			<point x="340" y="934" type="curve" smooth="yes"/>
			<point x="340" y="1167"/>
			<point x="478" y="1381"/>
			<point x="771" y="1381" type="curve" smooth="yes"/>
			<point x="999" y="1381"/>
			<point x="1109" y="1284"/>
			<point x="1109" y="1080" type="curve" smooth="yes"/>
			<point x="1109" y="847"/>
			<point x="971" y="633"/>
		</contour>
		<contour>
			<point x="779" y="1434" type="curve" smooth="yes"/>
			<point x="443" y="1434"/>
			<point x="281" y="1190"/>
			<point x="281" y="928" type="curve" smooth="yes"/>
			<point x="281" y="704"/>
			<point x="402" y="580"/>
			<point x="670" y="580" type="curve" smooth="yes"/>
			<point x="1006" y="580"/>
			<point x="1168" y="824"/>
			<point x="1168" y="1086" type="curve" smooth="yes"/>
			<point x="1168" y="1310"/>
			<point x="1047" y="1434"/>
		</contour>
	</outline>
</glyph>
<glyph name="degree" format="2">
	<unicode hex="00B0"/>
	<advance width="829"/>
	<outline>
		<contour>
			<point x="637" y="1434" type="curve" smooth="yes"/>
			<point x="439" y="1434"/>
			<point x="296" y="1278"/>
			<point x="296" y="1090" type="curve" smooth="yes"/>
			<point x="296" y="948"/>
			<point x="398" y="846"/>
			<point x="560" y="846" type="curve" smooth="yes"/>
			<point x="758" y="846"/>
			<point x="901" y="1002"/>
			<point x="901" y="1190" type="curve" smooth="yes"/>
			<point x="901" y="1332"/>
			<point x="799" y="1434"/>
		</contour>
		<contour>
			<point x="568" y="905" type="curve" smooth="yes"/>
			<point x="443" y="905"/>
			<point x="361" y="980"/>
			<point x="361" y="1096" type="curve" smooth="yes"/>
			<point x="361" y="1249"/>
			<point x="470" y="1375"/>
			<point x="629" y="1375" type="curve" smooth="yes"/>
			<point x="754" y="1375"/>
			<point x="836" y="1300"/>
			<point x="836" y="1184" type="curve" smooth="yes"/>
			<point x="836" y="1031"/>
			<point x="727" y="905"/>
		</contour>
	</outline>
</glyph>
<glyph name="plusminus" format="2">
  <advance width="1200"/>
  <unicode hex="00B1"/>
  <outline>
    <contour>
      <point x="722.0" y="1024.0" type="line"/>
      <point x="470.0" y="202.0" type="line"/>
      <point x="538.0" y="202.0" type="line"/>
      <point x="790.0" y="1024.0" type="line"/>
    </contour>
    <contour>
      <point x="229.0" y="646.0" type="line"/>
      <point x="209.0" y="580.0" type="line"/>
      <point x="1031.0" y="580.0" type="line"/>
      <point x="1051.0" y="646.0" type="line"/>
    </contour>
    <contour>
      <point x="52.0" y="66.0" type="line"/>
      <point x="31.0" y="0.0" type="line"/>
      <point x="853.0" y="0.0" type="line"/>
      <point x="874.0" y="66.0" type="line"/>
    </contour>
  </outline>
</glyph>
<glyph name="uni00B2" format="2">
	<unicode hex="00B2"/>
	<advance width="730"/>
	<outline>
		<contour>
			<point x="605" y="696" type="line"/>
			<point x="652" y="726" type="line"/>
			<point x="235" y="726" type="line"/>
			<point x="238" y="689" type="line"/>
			<point x="557" y="945" type="line" smooth="yes"/>
			<point x="740" y="1092"/>
			<point x="775" y="1161"/>
			<point x="775" y="1253" type="curve" smooth="yes"/>
			<point x="775" y="1362"/>
			<point x="693" y="1428"/>
			<point x="575" y="1428" type="curve" smooth="yes"/>
			<point x="416" y="1428"/>
			<point x="332" y="1335"/>
			<point x="287" y="1173" type="curve"/>
			<point x="335" y="1163" type="line"/>
			<point x="373" y="1304"/>
			<point x="443" y="1366"/>
			<point x="561" y="1366" type="curve" smooth="yes"/>
			<point x="656" y="1366"/>
			<point x="706" y="1312"/>
			<point x="706" y="1238" type="curve" smooth="yes"/>
			<point x="706" y="1164"/>
			<point x="671" y="1104"/>
			<point x="517" y="977" type="curve" smooth="yes"/>
			<point x="216" y="728" type="line"/>
			<point x="195" y="662" type="line"/>
			<point x="598" y="662" type="line"/>
			<point x="587" y="624" type="line"/>
			<point x="638" y="624" type="line"/>
			<point x="752" y="859" type="line"/>
			<point x="705" y="859" type="line"/>
		</contour>
	</outline>
</glyph>
<glyph name="uni00B3" format="2">
	<unicode hex="00B3"/>
	<advance width="703"/>
	<outline>
		<contour>
			<point x="447" y="1029" type="line"/>
			<point x="494" y="1034" type="line" smooth="yes"/>
			<point x="611" y="1046"/>
			<point x="658" y="1001"/>
			<point x="658" y="932" type="curve" smooth="yes"/>
			<point x="658" y="812"/>
			<point x="562" y="701"/>
			<point x="388" y="701" type="curve" smooth="yes"/>
			<point x="263" y="701"/>
			<point x="225" y="769"/>
			<point x="217" y="769" type="curve" smooth="yes"/>
			<point x="185" y="769"/>
			<point x="167" y="744"/>
			<point x="167" y="719" type="curve" smooth="yes"/>
			<point x="167" y="684"/>
			<point x="209" y="652"/>
			<point x="349" y="652" type="curve" smooth="yes"/>
			<point x="592" y="652"/>
			<point x="726" y="778"/>
			<point x="726" y="941" type="curve" smooth="yes"/>
			<point x="726" y="1031"/>
			<point x="670" y="1094"/>
			<point x="541" y="1088" type="curve"/>
			<point x="540" y="1085" type="line"/>
			<point x="663" y="1097"/>
			<point x="763" y="1174"/>
			<point x="763" y="1285" type="curve" smooth="yes"/>
			<point x="763" y="1373"/>
			<point x="698" y="1434"/>
			<point x="583" y="1434" type="curve" smooth="yes"/>
			<point x="449" y="1434"/>
			<point x="377" y="1368"/>
			<point x="317" y="1240" type="curve"/>
			<point x="359" y="1220" type="line"/>
			<point x="411" y="1325"/>
			<point x="464" y="1374"/>
			<point x="563" y="1374" type="curve" smooth="yes"/>
			<point x="644" y="1374"/>
			<point x="691" y="1333"/>
			<point x="691" y="1260" type="curve" smooth="yes"/>
			<point x="691" y="1176"/>
			<point x="643" y="1105"/>
			<point x="457" y="1084" type="curve"/>
		</contour>
	</outline>
</glyph>
<glyph name="uni00B5" format="2">
  <advance width="1326"/>
  <unicode hex="00B5"/>
  <outline>
    <contour>
      <point x="957.0" y="623.0" type="line" smooth="yes"/>
      <point x="849.0" y="289.0"/>
      <point x="604.0" y="53.0"/>
      <point x="383.0" y="53.0" type="curve" smooth="yes"/>
      <point x="285.0" y="53.0"/>
      <point x="241.0" y="94.0"/>
      <point x="241.0" y="173.0" type="curve" smooth="yes"/>
      <point x="241.0" y="205.0"/>
      <point x="249.0" y="248.0"/>
      <point x="279.0" y="347.0" type="curve" smooth="yes"/>
      <point x="486.0" y="1024.0" type="line"/>
      <point x="410.0" y="1024.0" type="line"/>
      <point x="-42.0" y="-452.0" type="line"/>
      <point x="-23.0" y="-452.0" type="line"/>
      <point x="63.0" y="-445.0" type="line"/>
      <point x="203.0" y="155.0" type="line"/>
      <point x="198.0" y="155.0" type="line"/>
      <point x="194.0" y="45.0"/>
      <point x="253.0" y="-20.0"/>
      <point x="384.0" y="-20.0" type="curve" smooth="yes"/>
      <point x="534.0" y="-20.0"/>
      <point x="728.0" y="112.0"/>
      <point x="908.0" y="427.0" type="curve"/>
      <point x="917.0" y="427.0" type="line"/>
      <point x="786.0" y="52.0" type="line" smooth="yes"/>
      <point x="767.0" y="-1.0"/>
      <point x="779.0" y="-20.0"/>
      <point x="829.0" y="-20.0" type="curve" smooth="yes"/>
      <point x="893.0" y="-20.0"/>
      <point x="1028.0" y="6.0"/>
      <point x="1215.0" y="122.0" type="curve"/>
      <point x="1200.0" y="154.0" type="line"/>
      <point x="1009.0" y="56.0"/>
      <point x="896.0" y="42.0"/>
      <point x="815.0" y="50.0" type="curve"/>
      <point x="837.0" y="14.0" type="line"/>
      <point x="1163.0" y="1024.0" type="line"/>
      <point x="1087.0" y="1024.0" type="line"/>
    </contour>
  </outline>
</glyph>
<glyph name="paragraph" format="2">
	<unicode hex="00B6"/>
	<advance width="1298"/>
	<outline>
		<contour>
			<point x="497" y="-223" type="line"/>
			<point x="977" y="1349" type="line"/>
			<point x="1206" y="1349" type="line"/>
			<point x="1226" y="1414" type="line"/>
			<point x="931" y="1414" type="line"/>
			<point x="430" y="-223" type="line"/>
		</contour>
		<contour>
			<point x="763" y="-223" type="line"/>
			<point x="1243" y="1347" type="line"/>
			<point x="1457" y="1363" type="line"/>
			<point x="1473" y="1414" type="line"/>
			<point x="1197" y="1414" type="line"/>
			<point x="696" y="-223" type="line"/>
		</contour>
		<contour>
			<point x="966" y="1414" type="line"/>
			<point x="760" y="1414" type="line" smooth="yes"/>
			<point x="337.681496001" y="1414"/>
			<point x="220" y="1145.5358747436"/>
			<point x="220" y="953" type="curve" smooth="yes"/>
			<point x="220" y="805"/>
			<point x="311" y="738"/>
			<point x="497" y="738" type="curve" smooth="yes"/>
			<point x="759" y="738" type="line"/>
		</contour>
	</outline>
</glyph>
<glyph name="uni00B9" format="2">
	<unicode hex="00B9"/>
	<advance width="624"/>
	<outline>
		<contour>
			<point x="385" y="719" type="line"/>
			<point x="189" y="703" type="line"/>
			<point x="177" y="662" type="line"/>
			<point x="617" y="662" type="line"/>
			<point x="629" y="703" type="line"/>
			<point x="453" y="719" type="line"/>
			<point x="669" y="1428" type="line"/>
			<point x="611" y="1428" type="line"/>
			<point x="298" y="1278" type="line"/>
			<point x="312" y="1237" type="line"/>
			<point x="597" y="1358" type="line"/>
			<point x="581" y="1360" type="line"/>
		</contour>
	</outline>
</glyph>
<glyph name="ordmasculine" format="2">
	<unicode hex="00BA"/>
	<advance width="960"/>
	<outline>
		<contour>
			<point x="193" y="547" type="line"/>
			<point x="789" y="547" type="line"/>
			<point x="809" y="611" type="line"/>
			<point x="214" y="611" type="line"/>
		</contour>
		<contour>
			<point x="748" y="1428" type="curve" smooth="yes"/>
			<point x="482" y="1428"/>
			<point x="332" y="1194"/>
			<point x="332" y="984" type="curve" smooth="yes"/>
			<point x="332" y="849"/>
			<point x="418" y="768"/>
			<point x="571" y="768" type="curve" smooth="yes"/>
			<point x="837" y="768"/>
			<point x="987" y="1002"/>
			<point x="987" y="1212" type="curve" smooth="yes"/>
			<point x="987" y="1347"/>
			<point x="901" y="1428"/>
		</contour>
		<contour>
			<point x="576" y="822" type="curve" smooth="yes"/>
			<point x="468" y="822"/>
			<point x="399" y="878"/>
			<point x="399" y="998" type="curve" smooth="yes"/>
			<point x="399" y="1180"/>
			<point x="520" y="1374"/>
			<point x="743" y="1374" type="curve" smooth="yes"/>
			<point x="851" y="1374"/>
			<point x="920" y="1318"/>
			<point x="920" y="1198" type="curve" smooth="yes"/>
			<point x="920" y="1016"/>
			<point x="799" y="822"/>
		</contour>
	</outline>
</glyph>
<glyph name="guillemotright" format="2">
	<unicode hex="00BB"/>
	<advance width="995"/>
	<outline>
		<contour>
			<point x="466" y="517" type="line"/>
			<point x="479" y="559" type="line"/>
			<point x="14" y="157" type="line"/>
			<point x="43" y="116" type="line"/>
			<point x="513" y="489" type="line"/>
			<point x="534" y="555" type="line"/>
			<point x="285" y="928" type="line"/>
			<point x="244" y="903" type="line"/>
		</contour>
		<contour>
			<point x="827" y="517" type="line"/>
			<point x="840" y="559" type="line"/>
			<point x="375" y="157" type="line"/>
			<point x="404" y="116" type="line"/>
			<point x="874" y="489" type="line"/>
			<point x="895" y="555" type="line"/>
			<point x="646" y="928" type="line"/>
			<point x="605" y="903" type="line"/>
		</contour>
	</outline>
</glyph>
<glyph name="questiondown" format="2">
	<unicode hex="00BF"/>
	<advance width="1009"/>
	<outline>
		<contour>
			<point x="638" y="840" type="curve" smooth="yes"/>
			<point x="724" y="840"/>
			<point x="765" y="901"/>
			<point x="765" y="967" type="curve" smooth="yes"/>
			<point x="765" y="1014"/>
			<point x="736" y="1038"/>
			<point x="687" y="1038" type="curve" smooth="yes"/>
			<point x="601" y="1038"/>
			<point x="560" y="977"/>
			<point x="560" y="911" type="curve" smooth="yes"/>
			<point x="560" y="864"/>
			<point x="589" y="840"/>
		</contour>
		<contour>
			<point x="454" y="-410" type="curve" smooth="yes"/>
			<point x="648" y="-410"/>
			<point x="705" y="-348"/>
			<point x="705" y="-297" type="curve" smooth="yes"/>
			<point x="705" y="-265"/>
			<point x="679" y="-246"/>
			<point x="642" y="-246" type="curve" smooth="yes"/>
			<point x="603" y="-246"/>
			<point x="563" y="-359"/>
			<point x="379" y="-359" type="curve" smooth="yes"/>
			<point x="138" y="-359"/>
			<point x="37" y="-187"/>
			<point x="37" y="-17" type="curve" smooth="yes"/>
			<point x="37" y="187"/>
			<point x="186" y="292"/>
			<point x="524" y="261" type="curve"/>
			<point x="604" y="628" type="line"/>
			<point x="565" y="628" type="line"/>
			<point x="467" y="290" type="line"/>
			<point x="519" y="336" type="line"/>
			<point x="136" y="375"/>
			<point x="-24" y="229"/>
			<point x="-24" y="2" type="curve" smooth="yes"/>
			<point x="-24" y="-193"/>
			<point x="99" y="-410"/>
		</contour>
	</outline>
</glyph>
<glyph name="AE" format="2">
	<unicode hex="00C6"/>
	<advance width="2161"/>
	<outline>
		<contour>
			<point x="139" y="62" type="line"/>
			<point x="1371" y="1374" type="line"/>
			<point x="1359" y="1381" type="line"/>
			<point x="956" y="63" type="line"/>
			<point x="741" y="47" type="line"/>
			<point x="727" y="0" type="line"/>
			<point x="1013" y="0" type="line"/>
			<point x="1445" y="1414" type="line"/>
			<point x="1109" y="1414" type="line"/>
			<point x="1094" y="1367" type="line"/>
			<point x="1269" y="1355" type="line"/>
			<point x="56" y="63" type="line"/>
			<point x="-135" y="47" type="line"/>
			<point x="-149" y="0" type="line"/>
			<point x="315" y="0" type="line"/>
			<point x="330" y="47" type="line"/>
		</contour>
		<contour>
			<point x="1750" y="-72" type="line"/>
			<point x="1812" y="-72" type="line"/>
			<point x="2019" y="380" type="line"/>
			<point x="1963" y="380" type="line"/>
			<point x="1763" y="42" type="line"/>
			<point x="1840" y="64" type="line"/>
			<point x="967" y="64" type="line"/>
			<point x="946" y="0" type="line"/>
			<point x="1759" y="0" type="line"/>
		</contour>
		<contour>
			<point x="555" y="522" type="line"/>
			<point x="1128" y="522" type="line"/>
			<point x="1148" y="586" type="line"/>
			<point x="576" y="586" type="line"/>
		</contour>
		<contour>
			<point x="1640" y="477" type="line"/>
			<point x="1688" y="477" type="line"/>
			<point x="1766" y="732" type="line"/>
			<point x="1844" y="988" type="line"/>
			<point x="1796" y="988" type="line"/>
			<point x="1699" y="766" type="line"/>
			<point x="1233" y="766" type="line"/>
			<point x="1212" y="702" type="line"/>
			<point x="1680" y="702" type="line"/>
		</contour>
		<contour>
			<point x="2113" y="1068" type="line"/>
			<point x="2171" y="1068" type="line"/>
			<point x="2305" y="1484" type="line"/>
			<point x="2260" y="1484" type="line"/>
			<point x="2200" y="1414" type="line"/>
			<point x="1389" y="1414" type="line"/>
			<point x="1368" y="1350" type="line"/>
			<point x="2213" y="1350" type="line"/>
			<point x="2187" y="1402" type="line"/>
		</contour>
	</outline>
	<anchor name="UCtop" x="1413" y="1414"/>
	<anchor name="bottom" x="975" y="0"/>
</glyph>
<glyph name="Ccedilla" format="2">
	<unicode hex="00C7"/>
	<advance width="1485"/>
	<outline>
		<contour>
			<point x="1178" y="116" type="line"/>
			<point x="1085" y="72"/>
			<point x="940" y="44"/>
			<point x="798" y="44" type="curve" smooth="yes"/>
			<point x="439" y="44"/>
			<point x="268" y="213"/>
			<point x="268" y="554" type="curve" smooth="yes"/>
			<point x="268" y="917"/>
			<point x="475" y="1368"/>
			<point x="1058" y="1368" type="curve" smooth="yes"/>
			<point x="1216" y="1368"/>
			<point x="1381" y="1342"/>
			<point x="1508" y="1249" type="curve"/>
			<point x="1467" y="1348" type="line"/>
			<point x="1396" y="991" type="line"/>
			<point x="1452" y="991" type="line"/>
			<point x="1596" y="1464" type="line"/>
			<point x="1551" y="1464" type="line"/>
			<point x="1475" y="1337" type="line"/>
			<point x="1533" y="1349" type="line"/>
			<point x="1441" y="1397"/>
			<point x="1246" y="1434"/>
			<point x="1077" y="1434" type="curve" smooth="yes"/>
			<point x="422" y="1434"/>
			<point x="185" y="946"/>
			<point x="185" y="529" type="curve" smooth="yes"/>
			<point x="185" y="183"/>
			<point x="395" y="-20"/>
			<point x="791" y="-20" type="curve" smooth="yes"/>
			<point x="929" y="-20"/>
			<point x="1080" y="9"/>
			<point x="1201" y="55" type="curve"/>
			<point x="1358" y="395" type="line"/>
			<point x="1303" y="395" type="line"/>
			<point x="1087" y="36" type="line"/>
		</contour>
		<contour>
			<point x="544" y="-425" type="curve" smooth="yes"/>
			<point x="476" y="-425"/>
			<point x="459" y="-365"/>
			<point x="450" y="-365" type="curve" smooth="yes"/>
			<point x="422" y="-365"/>
			<point x="406" y="-387"/>
			<point x="406" y="-410" type="curve" smooth="yes"/>
			<point x="406" y="-440"/>
			<point x="431" y="-465"/>
			<point x="524" y="-465" type="curve" smooth="yes"/>
			<point x="663" y="-465"/>
			<point x="751" y="-375"/>
			<point x="751" y="-275" type="curve" smooth="yes"/>
			<point x="751" y="-215"/>
			<point x="709" y="-169"/>
			<point x="584" y="-133" type="curve"/>
			<point x="598" y="-155" type="line"/>
			<point x="732" y="0" type="line"/>
			<point x="676" y="0" type="line"/>
			<point x="516" y="-183" type="line"/>
			<point x="515" y="-187" type="line"/>
			<point x="642" y="-219"/>
			<point x="684" y="-254"/>
			<point x="684" y="-303" type="curve" smooth="yes"/>
			<point x="684" y="-374"/>
			<point x="628" y="-425"/>
		</contour>
	</outline>
</glyph>
<glyph name="multiply" format="2">
	<unicode hex="00D7"/>
	<advance width="1200"/>
	<outline>
		<contour>
			<point x="156" y="215" type="line"/>
			<point x="191" y="163" type="line"/>
			<point x="1044" y="809" type="line"/>
			<point x="1009" y="861" type="line"/>
		</contour>
		<contour>
			<point x="350" y="820" type="line"/>
			<point x="795" y="163" type="line"/>
			<point x="850" y="204" type="line"/>
			<point x="405" y="861" type="line"/>
		</contour>
	</outline>
</glyph>
<glyph name="Oslash" format="2">
	<unicode hex="00D8"/>
	<advance width="1609"/>
	<outline>
		<contour>
			<point x="1737" y="1414" type="line"/>
			<point x="1635" y="1414" type="line"/>
			<point x="1431" y="1240" type="line"/>
			<point x="1402" y="1211" type="line"/>
			<point x="283" y="252" type="line"/>
			<point x="251" y="224" type="line"/>
			<point x="-11" y="0" type="line"/>
			<point x="91" y="0" type="line"/>
			<point x="293" y="173" type="line"/>
			<point x="323" y="202" type="line"/>
			<point x="1441" y="1161" type="line"/>
			<point x="1474" y="1189" type="line"/>
		</contour>
		<contour>
			<point x="261" y="486" type="curve" smooth="yes"/>
			<point x="261" y="884"/>
			<point x="528" y="1368"/>
			<point x="1006" y="1368" type="curve" smooth="yes"/>
			<point x="1297" y="1368"/>
			<point x="1467" y="1226"/>
			<point x="1467" y="928" type="curve" smooth="yes"/>
			<point x="1467" y="530"/>
			<point x="1200" y="46"/>
			<point x="722" y="46" type="curve" smooth="yes"/>
			<point x="431" y="46"/>
			<point x="261" y="188"/>
		</contour>
		<contour>
			<point x="1544" y="931" type="curve" smooth="yes"/>
			<point x="1544" y="1239"/>
			<point x="1363" y="1434"/>
			<point x="1023" y="1434" type="curve" smooth="yes"/>
			<point x="485" y="1434"/>
			<point x="184" y="929"/>
			<point x="184" y="483" type="curve" smooth="yes"/>
			<point x="184" y="175"/>
			<point x="365" y="-20"/>
			<point x="705" y="-20" type="curve" smooth="yes"/>
			<point x="1243" y="-20"/>
			<point x="1544" y="485"/>
		</contour>
	</outline>
	<anchor name="UCtop" x="1080" y="1414"/>
	<anchor name="bottom" x="647" y="0"/>
</glyph>
<glyph name="Thorn" format="2">
  <advance width="1298"/>
  <unicode hex="00DE"/>
  <guideline x="1278.0" y="818" angle="160.54733549923608" identifier="YHXhiSfcyl"/>
  <outline>
    <contour>
      <point x="723.0" y="384.0" type="curve" smooth="yes"/>
      <point x="314.0" y="384.0" type="line"/>
      <point x="294.0" y="320.0" type="line"/>
      <point x="737.0" y="320.0" type="line" smooth="yes"/>
      <point x="1104.0" y="320.0"/>
      <point x="1249.0" y="567.0"/>
      <point x="1249.0" y="814.0" type="curve" smooth="yes"/>
      <point x="1249.0" y="1015.0"/>
      <point x="1131.0" y="1123.0"/>
      <point x="820.0" y="1123.0" type="curve" smooth="yes"/>
      <point x="529.0" y="1123.0" type="line"/>
      <point x="509.0" y="1059.0" type="line"/>
      <point x="788.0" y="1059.0" type="line" smooth="yes"/>
      <point x="1070.0" y="1059.0"/>
      <point x="1169.0" y="975.0"/>
      <point x="1169.0" y="806.0" type="curve" smooth="yes"/>
      <point x="1169.0" y="558.0"/>
      <point x="1027.0" y="384.0"/>
    </contour>
    <contour>
      <point x="568.0" y="1351.0" type="line"/>
      <point x="174.0" y="63.0" type="line"/>
      <point x="-41.0" y="47.0" type="line"/>
      <point x="-55.0" y="0.0" type="line"/>
      <point x="441.0" y="0.0" type="line"/>
      <point x="455.0" y="47.0" type="line"/>
      <point x="250.0" y="63.0" type="line"/>
      <point x="644.0" y="1351.0" type="line"/>
      <point x="858.0" y="1367.0" type="line"/>
      <point x="873.0" y="1414.0" type="line"/>
      <point x="377.0" y="1414.0" type="line"/>
      <point x="362.0" y="1367.0" type="line"/>
    </contour>
  </outline>
</glyph>
<glyph name="ae" format="2">
	<unicode hex="00E6"/>
	<advance width="1846"/>
	<outline>
		<contour>
			<point x="1076" y="805" type="line"/>
			<point x="1153" y="1024" type="line"/>
			<point x="1077" y="1024" type="line"/>
			<point x="1024" y="867" type="line"/>
			<point x="962" y="680" type="line" smooth="yes"/>
			<point x="862" y="381"/>
			<point x="592" y="40"/>
			<point x="334" y="40" type="curve" smooth="yes"/>
			<point x="196" y="40"/>
			<point x="133" y="102"/>
			<point x="133" y="240" type="curve" smooth="yes"/>
			<point x="133" y="525"/>
			<point x="421" y="993"/>
			<point x="754" y="993" type="curve" smooth="yes"/>
			<point x="882" y="993"/>
			<point x="980" y="936"/>
			<point x="1044" y="821" type="curve"/>
			<point x="1050" y="833" type="line"/>
			<point x="995" y="959"/>
			<point x="906" y="1044"/>
			<point x="757" y="1044" type="curve" smooth="yes"/>
			<point x="351" y="1044"/>
			<point x="54" y="535"/>
			<point x="54" y="225" type="curve" smooth="yes"/>
			<point x="54" y="85"/>
			<point x="132" y="-20"/>
			<point x="311" y="-20" type="curve" smooth="yes"/>
			<point x="488.7333333333" y="-20"/>
			<point x="677" y="101"/>
			<point x="900" y="457" type="curve"/>
			<point x="909" y="457" type="line"/>
			<point x="867" y="107"/>
			<point x="1000" y="-20"/>
			<point x="1220" y="-20" type="curve" smooth="yes"/>
			<point x="1414" y="-20"/>
			<point x="1566" y="46"/>
			<point x="1704" y="351" type="curve"/>
			<point x="1655" y="351" type="line"/>
			<point x="1528" y="109"/>
			<point x="1412" y="44"/>
			<point x="1227" y="44" type="curve" smooth="yes"/>
			<point x="1055" y="44"/>
			<point x="968" y="144"/>
			<point x="968" y="347" type="curve" smooth="yes"/>
			<point x="968" y="751"/>
			<point x="1207" y="992"/>
			<point x="1510" y="992" type="curve" smooth="yes"/>
			<point x="1717" y="992"/>
			<point x="1752" y="844"/>
			<point x="1696" y="677" type="curve"/>
			<point x="1569" y="631"/>
			<point x="1358" y="583"/>
			<point x="968" y="518" type="curve"/>
			<point x="970" y="472" type="line"/>
			<point x="1322" y="530"/>
			<point x="1548" y="574"/>
			<point x="1752" y="629" type="curve"/>
			<point x="1778" y="701"/>
			<point x="1791" y="765"/>
			<point x="1791" y="819" type="curve" smooth="yes"/>
			<point x="1791" y="965"/>
			<point x="1699" y="1044"/>
			<point x="1524" y="1044" type="curve" smooth="yes"/>
			<point x="1317" y="1044"/>
			<point x="1168" y="956"/>
			<point x="1057" y="805" type="curve"/>
		</contour>
	</outline>
	<anchor name="top" x="1111" y="1024"/>
	<anchor name="bottom" x="798" y="0"/>
</glyph>
<glyph name="ccedilla" format="2">
	<unicode hex="00E7"/>
	<advance width="991"/>
	<outline>
		<contour>
			<point x="273" y="-465" type="curve" smooth="yes"/>
			<point x="412" y="-465"/>
			<point x="500" y="-375"/>
			<point x="500" y="-275" type="curve" smooth="yes"/>
			<point x="500" y="-215"/>
			<point x="458" y="-169"/>
			<point x="333" y="-133" type="curve"/>
			<point x="347" y="-155" type="line"/>
			<point x="481" y="0" type="line"/>
			<point x="425" y="0" type="line"/>
			<point x="265" y="-183" type="line"/>
			<point x="264" y="-187" type="line"/>
			<point x="391" y="-219"/>
			<point x="433" y="-254"/>
			<point x="433" y="-303" type="curve" smooth="yes"/>
			<point x="433" y="-374"/>
			<point x="377" y="-425"/>
			<point x="293" y="-425" type="curve" smooth="yes"/>
			<point x="225" y="-425"/>
			<point x="208" y="-365"/>
			<point x="199" y="-365" type="curve" smooth="yes"/>
			<point x="171" y="-365"/>
			<point x="155" y="-387"/>
			<point x="155" y="-410" type="curve" smooth="yes"/>
			<point x="155" y="-440"/>
			<point x="180" y="-465"/>
		</contour>
		<contour>
			<point x="705" y="996" type="curve" smooth="yes"/>
			<point x="748" y="996"/>
			<point x="786" y="980"/>
			<point x="825" y="941" type="curve" smooth="yes"/>
			<point x="864" y="902"/>
			<point x="885" y="865"/>
			<point x="900" y="865" type="curve" smooth="yes"/>
			<point x="939" y="865"/>
			<point x="966" y="893"/>
			<point x="966" y="935" type="curve" smooth="yes"/>
			<point x="966" y="981"/>
			<point x="902" y="1044"/>
			<point x="722" y="1044" type="curve" smooth="yes"/>
			<point x="343" y="1044"/>
			<point x="92" y="689"/>
			<point x="92" y="320" type="curve" smooth="yes"/>
			<point x="92" y="82"/>
			<point x="223" y="-20"/>
			<point x="409" y="-20" type="curve" smooth="yes"/>
			<point x="614" y="-20"/>
			<point x="755" y="68"/>
			<point x="880" y="351" type="curve"/>
			<point x="833" y="351" type="line"/>
			<point x="709" y="109"/>
			<point x="588" y="44"/>
			<point x="416" y="44" type="curve" smooth="yes"/>
			<point x="257" y="44"/>
			<point x="168" y="124"/>
			<point x="168" y="345" type="curve" smooth="yes"/>
			<point x="168" y="692"/>
			<point x="404" y="996"/>
		</contour>
	</outline>
</glyph>
<glyph name="eth" format="2">
	<unicode hex="00F0"/>
	<advance width="1163"/>
	<outline>
		<contour>
			<point x="1017" y="840" type="line"/>
			<point x="967" y="951"/>
			<point x="868" y="1012"/>
			<point x="707" y="1012" type="curve" smooth="yes"/>
			<point x="309" y="1012"/>
			<point x="88" y="641"/>
			<point x="88" y="313" type="curve" smooth="yes"/>
			<point x="88" y="102"/>
			<point x="207" y="-20"/>
			<point x="442" y="-20" type="curve" smooth="yes"/>
			<point x="802" y="-20"/>
			<point x="1024" y="277"/>
			<point x="1063" y="639" type="curve" smooth="yes"/>
			<point x="1100" y="982"/>
			<point x="1029" y="1337"/>
			<point x="505" y="1480" type="curve"/>
			<point x="488" y="1431" type="line"/>
			<point x="812" y="1328"/>
			<point x="963" y="1159"/>
			<point x="991" y="840" type="curve"/>
		</contour>
		<contour>
			<point x="438" y="36" type="curve" smooth="yes"/>
			<point x="260" y="36"/>
			<point x="164" y="127"/>
			<point x="164" y="324" type="curve" smooth="yes"/>
			<point x="164" y="626"/>
			<point x="355" y="956"/>
			<point x="711" y="956" type="curve" smooth="yes"/>
			<point x="889" y="956"/>
			<point x="985" y="865"/>
			<point x="985" y="668" type="curve" smooth="yes"/>
			<point x="985" y="366"/>
			<point x="794" y="36"/>
		</contour>
		<contour>
			<point x="544" y="1093" type="line"/>
			<point x="1092" y="1430" type="line"/>
			<point x="1063" y="1484" type="line"/>
			<point x="515" y="1147" type="line"/>
		</contour>
	</outline>
</glyph>
<glyph name="divide" format="2">
	<unicode hex="00F7"/>
	<advance width="1200"/>
	<outline>
		<contour>
			<point x="199" y="545" type="line"/>
			<point x="179" y="479" type="line"/>
			<point x="1001" y="479" type="line"/>
			<point x="1021" y="545" type="line"/>
		</contour>
		<contour>
			<point x="709" y="969" type="curve" smooth="yes"/>
			<point x="647" y="969"/>
			<point x="606" y="938"/>
			<point x="606" y="870" type="curve" smooth="yes"/>
			<point x="606" y="802"/>
			<point x="647" y="771"/>
			<point x="709" y="771" type="curve" smooth="yes"/>
			<point x="771" y="771"/>
			<point x="812" y="802"/>
			<point x="812" y="870" type="curve" smooth="yes"/>
			<point x="812" y="938"/>
			<point x="771" y="969"/>
		</contour>
		<contour>
			<point x="491" y="254" type="curve" smooth="yes"/>
			<point x="429" y="254"/>
			<point x="388" y="223"/>
			<point x="388" y="155" type="curve" smooth="yes"/>
			<point x="388" y="87"/>
			<point x="429" y="56"/>
			<point x="491" y="56" type="curve" smooth="yes"/>
			<point x="553" y="56"/>
			<point x="594" y="87"/>
			<point x="594" y="155" type="curve" smooth="yes"/>
			<point x="594" y="223"/>
			<point x="553" y="254"/>
		</contour>
	</outline>
</glyph>
<glyph name="oslash" format="2">
	<unicode hex="00F8"/>
	<advance width="1214"/>
	<outline>
		<contour>
			<point x="739" y="1044" type="curve" smooth="yes"/>
			<point x="341" y="1044"/>
			<point x="120" y="662"/>
			<point x="120" y="323" type="curve" smooth="yes"/>
			<point x="120" y="106"/>
			<point x="239" y="-20"/>
			<point x="474" y="-20" type="curve" smooth="yes"/>
			<point x="872" y="-20"/>
			<point x="1093" y="362"/>
			<point x="1093" y="701" type="curve" smooth="yes"/>
			<point x="1093" y="918"/>
			<point x="974" y="1044"/>
		</contour>
		<contour>
			<point x="470" y="36" type="curve" smooth="yes"/>
			<point x="292" y="36"/>
			<point x="196" y="129"/>
			<point x="196" y="335" type="curve" smooth="yes"/>
			<point x="196" y="648"/>
			<point x="387" y="988"/>
			<point x="743" y="988" type="curve" smooth="yes"/>
			<point x="921" y="988"/>
			<point x="1017" y="895"/>
			<point x="1017" y="689" type="curve" smooth="yes"/>
			<point x="1017" y="376"/>
			<point x="826" y="36"/>
		</contour>
		<contour>
			<point x="1150" y="1024" type="line"/>
			<point x="1012" y="902" type="line"/>
			<point x="986" y="877" type="line"/>
			<point x="186" y="193" type="line"/>
			<point x="155" y="168" type="line"/>
			<point x="-36" y="0" type="line"/>
			<point x="64" y="0" type="line"/>
			<point x="202" y="122" type="line"/>
			<point x="228" y="147" type="line"/>
			<point x="1028" y="831" type="line"/>
			<point x="1059" y="856" type="line"/>
			<point x="1250" y="1024" type="line"/>
		</contour>
	</outline>
	<anchor name="top" x="763" y="1024"/>
	<anchor name="bottom" x="450" y="0"/>
</glyph>
<glyph name="thorn" format="2">
  <advance width="1194"/>
  <unicode hex="00FE"/>
  <outline>
    <contour>
      <point x="222.0" y="294.0" type="curve" smooth="yes"/>
      <point x="282.0" y="502.0" type="line" smooth="yes"/>
      <point x="319.0" y="629.0"/>
      <point x="512.0" y="985.0"/>
      <point x="817.0" y="985.0" type="curve" smooth="yes"/>
      <point x="949.0" y="985.0"/>
      <point x="1033.0" y="888.0"/>
      <point x="1033.0" y="725.0" type="curve" smooth="yes"/>
      <point x="1033.0" y="385.0"/>
      <point x="804.0" y="31.0"/>
      <point x="469.0" y="31.0" type="curve" smooth="yes"/>
      <point x="293.0" y="31.0"/>
      <point x="210.0" y="109.0"/>
      <point x="210.0" y="218.0" type="curve" smooth="yes"/>
      <point x="210.0" y="242.0"/>
      <point x="214.0" y="268.0"/>
    </contour>
    <contour>
      <point x="319.0" y="679.0" type="line"/>
      <point x="558.0" y="1484.0" type="line"/>
      <point x="525.0" y="1484.0" type="line"/>
      <point x="224.0" y="1446.0" type="line"/>
      <point x="216.0" y="1407.0" type="line"/>
      <point x="273.0" y="1403.0"/>
      <point x="423.0" y="1393.0"/>
      <point x="459.0" y="1391.0" type="curve"/>
      <point x="-44.0" y="-381.0" type="line"/>
      <point x="-216.0" y="-397.0" type="line"/>
      <point x="-231.0" y="-445.0" type="line"/>
      <point x="198.0" y="-445.0" type="line"/>
      <point x="213.0" y="-397.0" type="line"/>
      <point x="31.0" y="-381.0" type="line"/>
      <point x="204.0" y="233.0" type="line"/>
      <point x="170.0" y="179.0" type="line"/>
      <point x="188.0" y="51.0"/>
      <point x="287.0" y="-20.0"/>
      <point x="474.0" y="-20.0" type="curve" smooth="yes"/>
      <point x="836.0" y="-20.0"/>
      <point x="1111.0" y="357.0"/>
      <point x="1111.0" y="737.0" type="curve" smooth="yes"/>
      <point x="1111.0" y="920.0"/>
      <point x="1023.0" y="1044.0"/>
      <point x="822.0" y="1044.0" type="curve" smooth="yes"/>
      <point x="667.0" y="1044.0"/>
      <point x="498.0" y="955.0"/>
      <point x="328.0" y="679.0" type="curve"/>
    </contour>
  </outline>
</glyph>
<glyph name="Aogonek" format="2">
	<unicode hex="0104"/>
	<advance width="1505"/>
	<outline>
		<contour>
			<point x="422" y="522" type="line"/>
			<point x="1075" y="522" type="line"/>
			<point x="1095" y="586" type="line"/>
			<point x="443" y="586" type="line"/>
		</contour>
		<contour>
			<point x="1179" y="62" type="line"/>
			<point x="1060" y="1414" type="line"/>
			<point x="969" y="1414" type="line"/>
			<point x="75" y="63" type="line"/>
			<point x="-116" y="47" type="line"/>
			<point x="-130" y="0" type="line"/>
			<point x="322" y="0" type="line"/>
			<point x="337" y="47" type="line"/>
			<point x="147" y="62" type="line"/>
			<point x="1010" y="1372" type="line"/>
			<point x="990" y="1372" type="line"/>
			<point x="1102" y="63" type="line"/>
			<point x="884" y="47" type="line"/>
			<point x="869" y="0" type="line"/>
			<point x="1351" y="0" type="line"/>
			<point x="1365" y="47" type="line"/>
		</contour>
		<contour>
			<point x="962" y="-332" type="curve" smooth="yes"/>
			<point x="962" y="-287"/>
			<point x="976" y="-239"/>
			<point x="1060" y="-130" type="curve" smooth="yes"/>
			<point x="1160" y="0" type="line"/>
			<point x="1104" y="0" type="line"/>
			<point x="1011" y="-116" type="line" smooth="yes"/>
			<point x="904" y="-250"/>
			<point x="885" y="-301"/>
			<point x="885" y="-354" type="curve" smooth="yes"/>
			<point x="885" y="-414"/>
			<point x="920" y="-465"/>
			<point x="1013" y="-465" type="curve" smooth="yes"/>
			<point x="1066" y="-465"/>
			<point x="1119" y="-449"/>
			<point x="1172" y="-411" type="curve"/>
			<point x="1172" y="-367" type="line"/>
			<point x="1117" y="-398"/>
			<point x="1090" y="-406"/>
			<point x="1050" y="-406" type="curve" smooth="yes"/>
			<point x="993" y="-406"/>
			<point x="962" y="-376"/>
		</contour>
	</outline>
</glyph>
<glyph name="aogonek" format="2">
	<unicode hex="0105"/>
	<advance width="1247"/>
	<outline>
		<contour>
			<point x="1176" y="122" type="curve"/>
			<point x="1161" y="154" type="line"/>
			<point x="970" y="56"/>
			<point x="857" y="42"/>
			<point x="776" y="50" type="curve"/>
			<point x="796" y="13" type="line"/>
			<point x="1153" y="1024" type="line"/>
			<point x="1077" y="1024" type="line"/>
			<point x="1024" y="867" type="line"/>
			<point x="962" y="680" type="line" smooth="yes"/>
			<point x="862" y="381"/>
			<point x="592" y="40"/>
			<point x="334" y="40" type="curve" smooth="yes"/>
			<point x="196" y="40"/>
			<point x="133" y="102"/>
			<point x="133" y="240" type="curve" smooth="yes"/>
			<point x="133" y="525"/>
			<point x="421" y="993"/>
			<point x="754" y="993" type="curve" smooth="yes"/>
			<point x="874" y="993"/>
			<point x="968" y="943"/>
			<point x="1032" y="842" type="curve"/>
			<point x="1038" y="859" type="line"/>
			<point x="982" y="971"/>
			<point x="896" y="1044"/>
			<point x="757" y="1044" type="curve" smooth="yes"/>
			<point x="351" y="1044"/>
			<point x="54" y="535"/>
			<point x="54" y="225" type="curve" smooth="yes"/>
			<point x="54" y="85"/>
			<point x="132" y="-20"/>
			<point x="311" y="-20" type="curve" smooth="yes"/>
			<point x="483" y="-20"/>
			<point x="664" y="92"/>
			<point x="881" y="427" type="curve"/>
			<point x="890" y="427" type="line"/>
			<point x="748" y="79" type="line" smooth="yes"/>
			<point x="720" y="11"/>
			<point x="732" y="-20"/>
			<point x="790" y="-20" type="curve" smooth="yes"/>
			<point x="845" y="-20"/>
			<point x="951" y="-1"/>
			<point x="1097" y="77" type="curve"/>
			<point x="1099" y="99" type="line"/>
			<point x="886" y="-93" type="line" smooth="yes"/>
			<point x="755" y="-211"/>
			<point x="726" y="-283"/>
			<point x="726" y="-354" type="curve" smooth="yes"/>
			<point x="726" y="-414"/>
			<point x="761" y="-465"/>
			<point x="844" y="-465" type="curve" smooth="yes"/>
			<point x="898" y="-465"/>
			<point x="950" y="-451"/>
			<point x="1013" y="-409" type="curve"/>
			<point x="1013" y="-367" type="line"/>
			<point x="958" y="-398"/>
			<point x="931" y="-406"/>
			<point x="891" y="-406" type="curve" smooth="yes"/>
			<point x="834" y="-406"/>
			<point x="803" y="-376"/>
			<point x="803" y="-330" type="curve" smooth="yes"/>
			<point x="803" y="-267"/>
			<point x="833" y="-197"/>
			<point x="932" y="-107" type="curve" smooth="yes"/>
			<point x="1014" y="-32" type="line" smooth="yes"/>
			<point x="1053" y="4"/>
			<point x="1119" y="66"/>
		</contour>
	</outline>
</glyph>
<glyph name="Dcroat" format="2">
	<unicode hex="0110"/>
	<advance width="1545"/>
	<outline>
		<contour>
			<point x="158" y="677" type="line"/>
			<point x="791" y="677" type="line"/>
			<point x="812" y="744" type="line"/>
			<point x="179" y="744" type="line"/>
		</contour>
		<contour>
			<point x="596" y="64" type="curve" smooth="yes"/>
			<point x="208" y="64" type="line"/>
			<point x="187" y="0" type="line"/>
			<point x="582" y="0" type="line" smooth="yes"/>
			<point x="1131" y="0"/>
			<point x="1481" y="361"/>
			<point x="1481" y="898" type="curve" smooth="yes"/>
			<point x="1481" y="1253"/>
			<point x="1314" y="1414"/>
			<point x="904" y="1414" type="curve" smooth="yes"/>
			<point x="620" y="1414" type="line"/>
			<point x="599" y="1350" type="line"/>
			<point x="855" y="1350" type="line" smooth="yes"/>
			<point x="1271" y="1350"/>
			<point x="1397" y="1196"/>
			<point x="1397" y="894" type="curve" smooth="yes"/>
			<point x="1397" y="370"/>
			<point x="1064" y="64"/>
		</contour>
		<contour>
			<point x="574" y="1351" type="line"/>
			<point x="180" y="63" type="line"/>
			<point x="-35" y="47" type="line"/>
			<point x="-49" y="0" type="line"/>
			<point x="237" y="0" type="line"/>
			<point x="669" y="1414" type="line"/>
			<point x="383" y="1414" type="line"/>
			<point x="368" y="1367" type="line"/>
		</contour>
	</outline>
</glyph>
<glyph name="Eogonek" format="2">
	<unicode hex="0118"/>
	<advance width="1379"/>
	<outline>
		<contour>
			<point x="568" y="1351" type="line"/>
			<point x="174" y="63" type="line"/>
			<point x="-41" y="47" type="line"/>
			<point x="-55" y="0" type="line"/>
			<point x="231" y="0" type="line"/>
			<point x="663" y="1414" type="line"/>
			<point x="377" y="1414" type="line"/>
			<point x="362" y="1367" type="line"/>
		</contour>
		<contour>
			<point x="858" y="477" type="line"/>
			<point x="906" y="477" type="line"/>
			<point x="984" y="732" type="line"/>
			<point x="1062" y="988" type="line"/>
			<point x="1014" y="988" type="line"/>
			<point x="917" y="766" type="line"/>
			<point x="451" y="766" type="line"/>
			<point x="430" y="702" type="line"/>
			<point x="898" y="702" type="line"/>
		</contour>
		<contour>
			<point x="1389" y="1068" type="line"/>
			<point x="1523" y="1484" type="line"/>
			<point x="1478" y="1484" type="line"/>
			<point x="1418" y="1414" type="line"/>
			<point x="597" y="1414" type="line"/>
			<point x="576" y="1350" type="line"/>
			<point x="1431" y="1350" type="line"/>
			<point x="1405" y="1402" type="line"/>
			<point x="1331" y="1068" type="line"/>
		</contour>
		<contour>
			<point x="968" y="-72" type="line"/>
			<point x="1030" y="-72" type="line"/>
			<point x="1237" y="380" type="line"/>
			<point x="1181" y="380" type="line"/>
			<point x="981" y="42" type="line"/>
			<point x="1058" y="64" type="line"/>
			<point x="185" y="64" type="line"/>
			<point x="164" y="0" type="line"/>
			<point x="977" y="0" type="line"/>
		</contour>
		<contour>
			<point x="740" y="-332" type="curve" smooth="yes"/>
			<point x="740" y="-291"/>
			<point x="750" y="-243"/>
			<point x="851" y="-136" type="curve" smooth="yes"/>
			<point x="980" y="0" type="line"/>
			<point x="924" y="0" type="line"/>
			<point x="804" y="-122" type="line" smooth="yes"/>
			<point x="676" y="-252"/>
			<point x="663" y="-301"/>
			<point x="663" y="-354" type="curve" smooth="yes"/>
			<point x="663" y="-414"/>
			<point x="698" y="-465"/>
			<point x="791" y="-465" type="curve" smooth="yes"/>
			<point x="844" y="-465"/>
			<point x="897" y="-449"/>
			<point x="950" y="-411" type="curve"/>
			<point x="950" y="-367" type="line"/>
			<point x="895" y="-398"/>
			<point x="868" y="-406"/>
			<point x="828" y="-406" type="curve" smooth="yes"/>
			<point x="771" y="-406"/>
			<point x="740" y="-376"/>
		</contour>
	</outline>
</glyph>
<glyph name="eogonek" format="2">
	<unicode hex="0119"/>
	<advance width="1051"/>
	<outline>
		<contour>
			<point x="820" y="190" type="line" smooth="yes"/>
			<point x="851" y="234"/>
			<point x="880" y="287"/>
			<point x="909" y="351" type="curve"/>
			<point x="860" y="351" type="line"/>
			<point x="733" y="109"/>
			<point x="617" y="44"/>
			<point x="432" y="44" type="curve" smooth="yes"/>
			<point x="260" y="44"/>
			<point x="173" y="144"/>
			<point x="173" y="347" type="curve" smooth="yes"/>
			<point x="173" y="751"/>
			<point x="412" y="992"/>
			<point x="715" y="992" type="curve" smooth="yes"/>
			<point x="922" y="992"/>
			<point x="957" y="844"/>
			<point x="901" y="677" type="curve"/>
			<point x="774" y="631"/>
			<point x="563" y="583"/>
			<point x="173" y="518" type="curve"/>
			<point x="175" y="472" type="line"/>
			<point x="527" y="530"/>
			<point x="753" y="574"/>
			<point x="957" y="629" type="curve"/>
			<point x="983" y="701"/>
			<point x="996" y="765"/>
			<point x="996" y="819" type="curve" smooth="yes"/>
			<point x="996" y="965"/>
			<point x="904" y="1044"/>
			<point x="729" y="1044" type="curve" smooth="yes"/>
			<point x="350" y="1044"/>
			<point x="99" y="749"/>
			<point x="99" y="320" type="curve" smooth="yes"/>
			<point x="99" y="82"/>
			<point x="234" y="-20"/>
			<point x="425" y="-20" type="curve" smooth="yes"/>
			<point x="520" y="-20"/>
			<point x="605" y="-4"/>
			<point x="683" y="48" type="curve"/>
			<point x="675" y="54" type="line"/>
			<point x="588" y="-55" type="line" smooth="yes"/>
			<point x="470" y="-202"/>
			<point x="442" y="-287"/>
			<point x="442" y="-347" type="curve" smooth="yes"/>
			<point x="442" y="-414"/>
			<point x="477" y="-465"/>
			<point x="570" y="-465" type="curve" smooth="yes"/>
			<point x="623" y="-465"/>
			<point x="676" y="-449"/>
			<point x="729" y="-411" type="curve"/>
			<point x="729" y="-367" type="line"/>
			<point x="674" y="-398"/>
			<point x="647" y="-406"/>
			<point x="607" y="-406" type="curve" smooth="yes"/>
			<point x="550" y="-406"/>
			<point x="519" y="-376"/>
			<point x="519" y="-329" type="curve" smooth="yes"/>
			<point x="519" y="-276"/>
			<point x="543.1365589943" y="-195.5248990348"/>
			<point x="634" y="-69" type="curve" smooth="yes"/>
		</contour>
	</outline>
</glyph>
<glyph name="Hbar" format="2">
  <advance width="1621"/>
  <unicode hex="0126"/>
  <outline>
    <contour>
      <point x="397.0" y="698.0" type="line"/>
      <point x="1336.0" y="698.0" type="line"/>
      <point x="1356.0" y="762.0" type="line"/>
      <point x="418.0" y="762.0" type="line"/>
    </contour>
    <contour>
      <point x="262.0" y="1027.0" type="line"/>
      <point x="1673.0" y="1027.0" type="line"/>
      <point x="1694.0" y="1094.0" type="line"/>
      <point x="283.0" y="1094.0" type="line"/>
    </contour>
    <contour>
      <point x="571.0" y="1351.0" type="line"/>
      <point x="177.0" y="63.0" type="line"/>
      <point x="-38.0" y="47.0" type="line"/>
      <point x="-52.0" y="0.0" type="line"/>
      <point x="444.0" y="0.0" type="line"/>
      <point x="458.0" y="47.0" type="line"/>
      <point x="253.0" y="63.0" type="line"/>
      <point x="647.0" y="1351.0" type="line"/>
      <point x="861.0" y="1367.0" type="line"/>
      <point x="876.0" y="1414.0" type="line"/>
      <point x="380.0" y="1414.0" type="line"/>
      <point x="365.0" y="1367.0" type="line"/>
    </contour>
    <contour>
      <point x="1486.0" y="1351.0" type="line"/>
      <point x="1093.0" y="63.0" type="line"/>
      <point x="878.0" y="47.0" type="line"/>
      <point x="864.0" y="0.0" type="line"/>
      <point x="1359.0" y="0.0" type="line"/>
      <point x="1374.0" y="47.0" type="line"/>
      <point x="1169.0" y="63.0" type="line"/>
      <point x="1562.0" y="1351.0" type="line"/>
      <point x="1777.0" y="1367.0" type="line"/>
      <point x="1792.0" y="1414.0" type="line"/>
      <point x="1296.0" y="1414.0" type="line"/>
      <point x="1281.0" y="1367.0" type="line"/>
    </contour>
  </outline>
</glyph>
<glyph name="hbar" format="2">
	<unicode hex="0127"/>
	<advance width="1240"/>
	<outline>
		<contour>
			<point x="251" y="392" type="line" smooth="yes"/>
			<point x="349" y="727"/>
			<point x="615" y="971"/>
			<point x="848" y="971" type="curve" smooth="yes"/>
			<point x="956" y="971"/>
			<point x="1005" y="930"/>
			<point x="1005" y="850" type="curve" smooth="yes"/>
			<point x="1005" y="805"/>
			<point x="989" y="747"/>
			<point x="959" y="677" type="curve" smooth="yes"/>
			<point x="701" y="79" type="line" smooth="yes"/>
			<point x="672" y="12"/>
			<point x="688" y="-20"/>
			<point x="746" y="-20" type="curve" smooth="yes"/>
			<point x="813" y="-20"/>
			<point x="954" y="11"/>
			<point x="1152" y="135" type="curve"/>
			<point x="1137" y="167" type="line"/>
			<point x="934" y="62"/>
			<point x="817" y="42"/>
			<point x="732" y="50" type="curve"/>
			<point x="752" y="13" type="line"/>
			<point x="1030" y="660" type="line" smooth="yes"/>
			<point x="1064" y="740"/>
			<point x="1083" y="811"/>
			<point x="1083" y="869" type="curve" smooth="yes"/>
			<point x="1083" y="979"/>
			<point x="1016" y="1044"/>
			<point x="862" y="1044" type="curve" smooth="yes"/>
			<point x="688" y="1044"/>
			<point x="476" y="916"/>
			<point x="301" y="597" type="curve"/>
			<point x="292" y="597" type="line"/>
			<point x="565" y="1484" type="line"/>
			<point x="532" y="1484" type="line"/>
			<point x="231" y="1446" type="line"/>
			<point x="223" y="1407" type="line"/>
			<point x="280" y="1403.2469135802"/>
			<point x="430" y="1393.3703703704"/>
			<point x="466" y="1391" type="curve"/>
			<point x="60" y="0" type="line"/>
			<point x="136" y="0" type="line"/>
		</contour>
		<contour>
			<point x="190" y="1168" type="line"/>
			<point x="783" y="1168" type="line"/>
			<point x="804" y="1235" type="line"/>
			<point x="210" y="1235" type="line"/>
		</contour>
	</outline>
</glyph>
<glyph name="Iogonek" format="2">
	<unicode hex="012E"/>
	<advance width="699"/>
	<outline>
		<contour>
			<point x="568" y="1351" type="line"/>
			<point x="174" y="63" type="line"/>
			<point x="-41" y="47" type="line"/>
			<point x="-55" y="0" type="line"/>
			<point x="441" y="0" type="line"/>
			<point x="455" y="47" type="line"/>
			<point x="250" y="63" type="line"/>
			<point x="644" y="1351" type="line"/>
			<point x="858" y="1367" type="line"/>
			<point x="873" y="1414" type="line"/>
			<point x="377" y="1414" type="line"/>
			<point x="362" y="1367" type="line"/>
		</contour>
		<contour>
			<point x="-1" y="-332" type="curve" smooth="yes"/>
			<point x="-1" y="-291"/>
			<point x="5" y="-242"/>
			<point x="98" y="-135" type="curve" smooth="yes"/>
			<point x="216" y="0" type="line"/>
			<point x="160" y="0" type="line"/>
			<point x="51" y="-121" type="line" smooth="yes"/>
			<point x="-68" y="-253"/>
			<point x="-78" y="-301"/>
			<point x="-78" y="-354" type="curve" smooth="yes"/>
			<point x="-78" y="-414"/>
			<point x="-43" y="-465"/>
			<point x="50" y="-465" type="curve" smooth="yes"/>
			<point x="103" y="-465"/>
			<point x="156" y="-449"/>
			<point x="209" y="-411" type="curve"/>
			<point x="209" y="-367" type="line"/>
			<point x="154" y="-398"/>
			<point x="127" y="-406"/>
			<point x="87" y="-406" type="curve" smooth="yes"/>
			<point x="30" y="-406"/>
			<point x="-1" y="-376"/>
		</contour>
	</outline>
</glyph>
<glyph name="iogonek" format="2">
	<unicode hex="012F"/>
	<advance width="676"/>
	<outline>
		<contour>
			<point x="524" y="1376" type="curve" smooth="yes"/>
			<point x="524" y="1330"/>
			<point x="552" y="1305"/>
			<point x="598" y="1305" type="curve" smooth="yes"/>
			<point x="661" y="1305"/>
			<point x="698" y="1343"/>
			<point x="698" y="1404" type="curve" smooth="yes"/>
			<point x="698" y="1450"/>
			<point x="670" y="1475"/>
			<point x="624" y="1475" type="curve" smooth="yes"/>
			<point x="561" y="1475"/>
			<point x="524" y="1437"/>
		</contour>
		<contour>
			<point x="456" y="58" type="line"/>
			<point x="493" y="76"/>
			<point x="533" y="98"/>
			<point x="576" y="124" type="curve"/>
			<point x="561" y="156" type="line"/>
			<point x="366" y="55"/>
			<point x="249" y="42"/>
			<point x="166" y="50" type="curve"/>
			<point x="190" y="11" type="line"/>
			<point x="543" y="966" type="line" smooth="yes"/>
			<point x="563" y="1021"/>
			<point x="551" y="1044"/>
			<point x="491" y="1044" type="curve" smooth="yes"/>
			<point x="422" y="1044"/>
			<point x="278" y="1003"/>
			<point x="85" y="861" type="curve"/>
			<point x="102" y="830" type="line"/>
			<point x="302" y="954"/>
			<point x="417" y="982"/>
			<point x="505" y="974" type="curve"/>
			<point x="483" y="1005" type="line"/>
			<point x="134" y="58" type="line" smooth="yes"/>
			<point x="113" y="0"/>
			<point x="130" y="-20"/>
			<point x="180" y="-20" type="curve" smooth="yes"/>
			<point x="219" y="-20"/>
			<point x="286" y="-11"/>
			<point x="375" y="23" type="curve"/>
			<point x="369" y="35" type="line"/>
			<point x="148" y="-119" type="line" smooth="yes"/>
			<point x="3" y="-220"/>
			<point x="-22" y="-289"/>
			<point x="-22" y="-354" type="curve" smooth="yes"/>
			<point x="-22" y="-414"/>
			<point x="13" y="-465"/>
			<point x="106" y="-465" type="curve" smooth="yes"/>
			<point x="159" y="-465"/>
			<point x="212" y="-449"/>
			<point x="265" y="-411" type="curve"/>
			<point x="265" y="-367" type="line"/>
			<point x="210" y="-398"/>
			<point x="183" y="-406"/>
			<point x="143" y="-406" type="curve" smooth="yes"/>
			<point x="86" y="-406"/>
			<point x="55" y="-376"/>
			<point x="55" y="-332" type="curve" smooth="yes"/>
			<point x="55" y="-274"/>
			<point x="82" y="-215"/>
			<point x="194" y="-133" type="curve" smooth="yes"/>
		</contour>
	</outline>
</glyph>
<glyph name="dotlessi" format="2">
	<unicode hex="0131"/>
	<advance width="675"/>
	<outline>
		<contour>
			<point x="134" y="58" type="line" smooth="yes"/>
			<point x="113" y="0"/>
			<point x="130" y="-20"/>
			<point x="180" y="-20" type="curve" smooth="yes"/>
			<point x="245" y="-20"/>
			<point x="385" y="5"/>
			<point x="576" y="124" type="curve"/>
			<point x="561" y="156" type="line"/>
			<point x="366" y="55"/>
			<point x="249" y="42"/>
			<point x="166" y="50" type="curve"/>
			<point x="190" y="11" type="line"/>
			<point x="543" y="966" type="line" smooth="yes"/>
			<point x="563" y="1021"/>
			<point x="551" y="1044"/>
			<point x="491" y="1044" type="curve" smooth="yes"/>
			<point x="422" y="1044"/>
			<point x="278" y="1003"/>
			<point x="85" y="861" type="curve"/>
			<point x="102" y="830" type="line"/>
			<point x="302" y="954"/>
			<point x="417" y="982"/>
			<point x="505" y="974" type="curve"/>
			<point x="483" y="1005" type="line"/>
		</contour>
	</outline>
	<anchor name="top" x="513" y="1024"/>
	<anchor name="bottom" x="204" y="0"/>
	<anchor name="right" x="351" y="0"/>
</glyph>
<glyph name="kgreenlandic" format="2">
	<unicode hex="0138"/>
	<advance width="1163"/>
	<outline>
		<contour>
			<point x="519" y="1032" type="line"/>
			<point x="497" y="1037"/>
			<point x="464" y="1039"/>
			<point x="433" y="1039" type="curve" smooth="yes"/>
			<point x="266" y="1039"/>
			<point x="149" y="1001"/>
			<point x="81" y="808" type="curve"/>
			<point x="104" y="808" type="line"/>
			<point x="155" y="913"/>
			<point x="236" y="969"/>
			<point x="360" y="969" type="curve" smooth="yes"/>
			<point x="383" y="969"/>
			<point x="412" y="969"/>
			<point x="431" y="963" type="curve"/>
			<point x="150" y="0" type="line"/>
			<point x="218" y="0" type="line"/>
		</contour>
		<contour>
			<point x="1101" y="870" type="curve" smooth="yes"/>
			<point x="1131" y="870"/>
			<point x="1186" y="912"/>
			<point x="1186" y="963" type="curve" smooth="yes"/>
			<point x="1186" y="1015"/>
			<point x="1142" y="1044"/>
			<point x="1067" y="1044" type="curve" smooth="yes"/>
			<point x="853" y="1044"/>
			<point x="634" y="842"/>
			<point x="373" y="547" type="curve"/>
			<point x="372" y="542" type="line"/>
			<point x="549" y="106"/>
			<point x="665" y="-20"/>
			<point x="766" y="-20" type="curve" smooth="yes"/>
			<point x="840" y="-20"/>
			<point x="909" y="16"/>
			<point x="1072" y="181" type="curve"/>
			<point x="1051" y="203" type="line"/>
			<point x="893" y="58"/>
			<point x="836" y="37"/>
			<point x="796" y="37" type="curve" smooth="yes"/>
			<point x="714" y="37"/>
			<point x="605" y="143"/>
			<point x="420" y="586" type="curve"/>
			<point x="413" y="532" type="line"/>
			<point x="642" y="804"/>
			<point x="882" y="976"/>
			<point x="979" y="976" type="curve" smooth="yes"/>
			<point x="999" y="976"/>
			<point x="1026" y="954"/>
			<point x="1049" y="927" type="curve" smooth="yes"/>
			<point x="1073" y="899"/>
			<point x="1094" y="870"/>
		</contour>
	</outline>
</glyph>
<glyph name="Lslash" format="2">
	<unicode hex="0141"/>
	<advance width="1267"/>
	<outline>
		<contour>
			<point x="671" y="1351" type="line"/>
			<point x="885" y="1367" type="line"/>
			<point x="900" y="1414" type="line"/>
			<point x="404" y="1414" type="line"/>
			<point x="389" y="1367" type="line"/>
			<point x="595" y="1351" type="line"/>
			<point x="201" y="63" type="line"/>
			<point x="-14" y="47" type="line"/>
			<point x="-28" y="0" type="line"/>
			<point x="258" y="0" type="line"/>
		</contour>
		<contour>
			<point x="917" y="42" type="line"/>
			<point x="988" y="60" type="line"/>
			<point x="210" y="60" type="line"/>
			<point x="191" y="0" type="line"/>
			<point x="909" y="0" type="line"/>
			<point x="900" y="-72" type="line"/>
			<point x="962" y="-72" type="line"/>
			<point x="1169" y="380" type="line"/>
			<point x="1113" y="380" type="line"/>
		</contour>
		<contour>
			<point x="904" y="943" type="line"/>
			<point x="467" y="736" type="line"/>
			<point x="423" y="725" type="line"/>
			<point x="155" y="598" type="line"/>
			<point x="131" y="520" type="line"/>
			<point x="399" y="647" type="line"/>
			<point x="443" y="658" type="line"/>
			<point x="880" y="865" type="line"/>
		</contour>
	</outline>
</glyph>
<glyph name="lslash" format="2">
	<unicode hex="0142"/>
	<advance width="777"/>
	<outline>
		<contour>
			<point x="115" y="595" type="line"/>
			<point x="88" y="509" type="line"/>
			<point x="362" y="675" type="line"/>
			<point x="397" y="680" type="line"/>
			<point x="705" y="866" type="line"/>
			<point x="732" y="952" type="line"/>
			<point x="423" y="766" type="line"/>
			<point x="389" y="761" type="line"/>
		</contour>
		<contour>
			<point x="545" y="1391" type="curve"/>
			<point x="159" y="67" type="line" smooth="yes"/>
			<point x="140" y="2"/>
			<point x="155" y="-20"/>
			<point x="209" y="-20" type="curve" smooth="yes"/>
			<point x="274" y="-20"/>
			<point x="414" y="5"/>
			<point x="605" y="124" type="curve"/>
			<point x="590" y="156" type="line"/>
			<point x="395" y="55"/>
			<point x="278" y="42"/>
			<point x="195" y="50" type="curve"/>
			<point x="214" y="13" type="line"/>
			<point x="644" y="1484" type="line"/>
			<point x="611" y="1484" type="line"/>
			<point x="310" y="1446" type="line"/>
			<point x="302" y="1407" type="line"/>
			<point x="359" y="1403.2469135802"/>
			<point x="509" y="1393.3703703704"/>
		</contour>
	</outline>
</glyph>
<glyph name="Eng" format="2">
	<unicode hex="014A"/>
	<advance width="1627"/>
	<outline>
		<contour>
			<point x="1156" y="79" type="line"/>
			<point x="664" y="1414" type="line"/>
			<point x="378" y="1414" type="line"/>
			<point x="362" y="1363" type="line"/>
			<point x="568" y="1347" type="line"/>
			<point x="175" y="63" type="line"/>
			<point x="-40" y="47" type="line"/>
			<point x="-54" y="0" type="line"/>
			<point x="428" y="0" type="line"/>
			<point x="443" y="47" type="line"/>
			<point x="238" y="63" type="line"/>
			<point x="632" y="1352" type="line"/>
			<point x="611" y="1346" type="line"/>
			<point x="1120" y="-27" type="line"/>
		</contour>
		<contour>
			<point x="1135" y="-147" type="curve" smooth="yes"/>
			<point x="1593" y="1351" type="line"/>
			<point x="1807" y="1367" type="line"/>
			<point x="1822" y="1414" type="line"/>
			<point x="1339" y="1414" type="line"/>
			<point x="1325" y="1367" type="line"/>
			<point x="1530" y="1351" type="line"/>
			<point x="1072" y="-150" type="line" smooth="yes"/>
			<point x="1017" y="-331"/>
			<point x="927" y="-408"/>
			<point x="755" y="-408" type="curve" smooth="yes"/>
			<point x="649" y="-408"/>
			<point x="631" y="-327"/>
			<point x="599" y="-327" type="curve" smooth="yes"/>
			<point x="556" y="-327"/>
			<point x="542" y="-358"/>
			<point x="542" y="-387" type="curve" smooth="yes"/>
			<point x="542" y="-429"/>
			<point x="592" y="-465"/>
			<point x="731" y="-465" type="curve" smooth="yes"/>
			<point x="949" y="-465"/>
			<point x="1067" y="-369"/>
		</contour>
	</outline>
</glyph>
<glyph name="eng" format="2">
	<unicode hex="014B"/>
	<advance width="1257"/>
	<outline>
		<contour>
			<point x="477" y="-465" type="curve" smooth="yes"/>
			<point x="642" y="-465"/>
			<point x="801" y="-343"/>
			<point x="898" y="-26" type="curve" smooth="yes"/>
			<point x="1109" y="664" type="line" smooth="yes"/>
			<point x="1134" y="744"/>
			<point x="1150" y="815"/>
			<point x="1148" y="884" type="curve" smooth="yes"/>
			<point x="1144" y="983"/>
			<point x="1078" y="1044"/>
			<point x="938" y="1044" type="curve" smooth="yes"/>
			<point x="764" y="1044"/>
			<point x="558" y="916"/>
			<point x="383" y="597" type="curve"/>
			<point x="374" y="597" type="line"/>
			<point x="515" y="1030" type="line"/>
			<point x="494" y="1035"/>
			<point x="452" y="1039"/>
			<point x="423" y="1039" type="curve" smooth="yes"/>
			<point x="267" y="1039"/>
			<point x="150" y="1001"/>
			<point x="82" y="808" type="curve"/>
			<point x="105" y="808" type="line"/>
			<point x="156" y="913"/>
			<point x="237" y="969"/>
			<point x="361" y="969" type="curve" smooth="yes"/>
			<point x="384" y="969"/>
			<point x="413" y="969"/>
			<point x="432" y="963" type="curve"/>
			<point x="142" y="0" type="line"/>
			<point x="218" y="0" type="line"/>
			<point x="339" y="401" type="line" smooth="yes"/>
			<point x="440" y="736"/>
			<point x="694" y="971"/>
			<point x="927" y="971" type="curve" smooth="yes"/>
			<point x="1024" y="971"/>
			<point x="1072" y="931"/>
			<point x="1075" y="859" type="curve" smooth="yes"/>
			<point x="1077" y="805"/>
			<point x="1063" y="747"/>
			<point x="1042" y="677" type="curve" smooth="yes"/>
			<point x="811" y="-82" type="line" smooth="yes"/>
			<point x="741" y="-313"/>
			<point x="627" y="-408"/>
			<point x="525" y="-408" type="curve" smooth="yes"/>
			<point x="502" y="-408"/>
			<point x="480" y="-392"/>
			<point x="461" y="-366" type="curve" smooth="yes"/>
			<point x="442" y="-340"/>
			<point x="432" y="-316"/>
			<point x="428" y="-316" type="curve" smooth="yes"/>
			<point x="387" y="-316"/>
			<point x="356" y="-354"/>
			<point x="356" y="-395" type="curve" smooth="yes"/>
			<point x="356" y="-442"/>
			<point x="410" y="-465"/>
		</contour>
	</outline>
</glyph>
<glyph name="OE" format="2">
	<unicode hex="0152"/>
	<advance width="2216"/>
	<outline>
		<contour>
			<point x="1424" y="1414" type="line"/>
			<point x="992" y="0" type="line"/>
			<point x="1068" y="0" type="line"/>
			<point x="1500" y="1414" type="line"/>
		</contour>
		<contour>
			<point x="1079" y="1414" type="line" smooth="yes"/>
			<point x="530" y="1414"/>
			<point x="180" y="1043"/>
			<point x="180" y="506" type="curve" smooth="yes"/>
			<point x="180" y="151"/>
			<point x="347" y="0"/>
			<point x="757" y="0" type="curve" smooth="yes"/>
			<point x="1814" y="0" type="line"/>
			<point x="1805" y="-72" type="line"/>
			<point x="1867" y="-72" type="line"/>
			<point x="2074" y="380" type="line"/>
			<point x="2018" y="380" type="line"/>
			<point x="1818" y="42" type="line"/>
			<point x="1895" y="64" type="line"/>
			<point x="806" y="64" type="line" smooth="yes"/>
			<point x="390" y="64"/>
			<point x="264" y="208"/>
			<point x="264" y="510" type="curve" smooth="yes"/>
			<point x="264" y="1034"/>
			<point x="597" y="1350"/>
			<point x="1065" y="1350" type="curve" smooth="yes"/>
			<point x="2268" y="1350" type="line"/>
			<point x="2242" y="1402" type="line"/>
			<point x="2168" y="1068" type="line"/>
			<point x="2226" y="1068" type="line"/>
			<point x="2360" y="1484" type="line"/>
			<point x="2315" y="1484" type="line"/>
			<point x="2255" y="1414" type="line"/>
		</contour>
		<contour>
			<point x="1743" y="477" type="line"/>
			<point x="1821" y="732" type="line"/>
			<point x="1899" y="988" type="line"/>
			<point x="1851" y="988" type="line"/>
			<point x="1754" y="766" type="line"/>
			<point x="1288" y="766" type="line"/>
			<point x="1267" y="702" type="line"/>
			<point x="1735" y="702" type="line"/>
			<point x="1695" y="477" type="line"/>
		</contour>
	</outline>
</glyph>
<glyph name="oe" format="2">
	<unicode hex="0153"/>
	<advance width="1906"/>
	<outline>
		<contour>
			<point x="712" y="1044" type="curve" smooth="yes"/>
			<point x="314" y="1044"/>
			<point x="93" y="662"/>
			<point x="93" y="323" type="curve" smooth="yes"/>
			<point x="93" y="106"/>
			<point x="212" y="-20"/>
			<point x="447" y="-20" type="curve" smooth="yes"/>
			<point x="693" y="-20"/>
			<point x="876" y="148"/>
			<point x="977" y="339" type="curve"/>
			<point x="959" y="339" type="line"/>
			<point x="955" y="92"/>
			<point x="1090" y="-20"/>
			<point x="1280" y="-20" type="curve" smooth="yes"/>
			<point x="1474" y="-20"/>
			<point x="1626" y="46"/>
			<point x="1764" y="351" type="curve"/>
			<point x="1715" y="351" type="line"/>
			<point x="1588" y="109"/>
			<point x="1472" y="44"/>
			<point x="1287" y="44" type="curve" smooth="yes"/>
			<point x="1115" y="44"/>
			<point x="1028" y="144"/>
			<point x="1028" y="347" type="curve" smooth="yes"/>
			<point x="1028" y="751"/>
			<point x="1267" y="992"/>
			<point x="1570" y="992" type="curve" smooth="yes"/>
			<point x="1777" y="992"/>
			<point x="1812" y="844"/>
			<point x="1756" y="677" type="curve"/>
			<point x="1629" y="631"/>
			<point x="1418" y="583"/>
			<point x="1028" y="518" type="curve"/>
			<point x="1030" y="472" type="line"/>
			<point x="1382" y="530"/>
			<point x="1608" y="574"/>
			<point x="1812" y="629" type="curve"/>
			<point x="1838" y="701"/>
			<point x="1851" y="765"/>
			<point x="1851" y="819" type="curve" smooth="yes"/>
			<point x="1851" y="965"/>
			<point x="1759" y="1044"/>
			<point x="1584" y="1044" type="curve" smooth="yes"/>
			<point x="1337" y="1044"/>
			<point x="1135" y="904"/>
			<point x="1031" y="698" type="curve"/>
			<point x="1057" y="698" type="line"/>
			<point x="1053" y="908"/>
			<point x="943" y="1044"/>
		</contour>
		<contour>
			<point x="443" y="36" type="curve" smooth="yes"/>
			<point x="265" y="36"/>
			<point x="169" y="129"/>
			<point x="169" y="335" type="curve" smooth="yes"/>
			<point x="169" y="648"/>
			<point x="360" y="988"/>
			<point x="716" y="988" type="curve" smooth="yes"/>
			<point x="894" y="988"/>
			<point x="990" y="895"/>
			<point x="990" y="689" type="curve" smooth="yes"/>
			<point x="990" y="376"/>
			<point x="799" y="36"/>
		</contour>
	</outline>
	<anchor name="top" x="1172" y="1024"/>
	<anchor name="bottom" x="858" y="0"/>
</glyph>
<glyph name="Scedilla" format="2">
	<unicode hex="015E"/>
	<advance width="1206"/>
	<outline>
		<contour>
			<point x="1165" y="1265" type="curve"/>
			<point x="1137" y="1304" type="line"/>
			<point x="1095" y="999" type="line"/>
			<point x="1155" y="999" type="line"/>
			<point x="1250" y="1464" type="line"/>
			<point x="1199" y="1464" type="line"/>
			<point x="1156" y="1350" type="line"/>
			<point x="1177" y="1358" type="line"/>
			<point x="1098" y="1399"/>
			<point x="972" y="1433"/>
			<point x="840" y="1433" type="curve" smooth="yes"/>
			<point x="460" y="1433"/>
			<point x="328" y="1252"/>
			<point x="328" y="1049" type="curve" smooth="yes"/>
			<point x="328" y="872"/>
			<point x="458" y="802"/>
			<point x="614" y="738" type="curve" smooth="yes"/>
			<point x="770" y="674"/>
			<point x="961" y="621"/>
			<point x="961" y="421" type="curve" smooth="yes"/>
			<point x="961" y="194"/>
			<point x="785" y="42"/>
			<point x="476" y="42" type="curve" smooth="yes"/>
			<point x="342" y="42"/>
			<point x="217" y="61"/>
			<point x="132" y="113" type="curve"/>
			<point x="175" y="24" type="line"/>
			<point x="145" y="399" type="line"/>
			<point x="95" y="399" type="line"/>
			<point x="75" y="42" type="line"/>
			<point x="164" y="9"/>
			<point x="325" y="-20"/>
			<point x="461" y="-20" type="curve" smooth="yes"/>
			<point x="816" y="-20"/>
			<point x="1039" y="154"/>
			<point x="1039" y="440" type="curve" smooth="yes"/>
			<point x="1039" y="651"/>
			<point x="867" y="717"/>
			<point x="709" y="778" type="curve" smooth="yes"/>
			<point x="551" y="839"/>
			<point x="401" y="896"/>
			<point x="401" y="1062" type="curve" smooth="yes"/>
			<point x="401" y="1220"/>
			<point x="504" y="1370"/>
			<point x="815" y="1370" type="curve" smooth="yes"/>
			<point x="982" y="1370"/>
			<point x="1082" y="1334"/>
		</contour>
		<contour>
			<point x="366" y="-465" type="curve" smooth="yes"/>
			<point x="505" y="-465"/>
			<point x="593" y="-375"/>
			<point x="593" y="-275" type="curve" smooth="yes"/>
			<point x="593" y="-215"/>
			<point x="551" y="-169"/>
			<point x="426" y="-133" type="curve"/>
			<point x="440" y="-155" type="line"/>
			<point x="574" y="0" type="line"/>
			<point x="518" y="0" type="line"/>
			<point x="358" y="-183" type="line"/>
			<point x="357" y="-187" type="line"/>
			<point x="484" y="-219"/>
			<point x="526" y="-254"/>
			<point x="526" y="-303" type="curve" smooth="yes"/>
			<point x="526" y="-374"/>
			<point x="470" y="-425"/>
			<point x="386" y="-425" type="curve" smooth="yes"/>
			<point x="318" y="-425"/>
			<point x="301" y="-365"/>
			<point x="292" y="-365" type="curve" smooth="yes"/>
			<point x="264" y="-365"/>
			<point x="248" y="-387"/>
			<point x="248" y="-410" type="curve" smooth="yes"/>
			<point x="248" y="-440"/>
			<point x="273" y="-465"/>
		</contour>
	</outline>
</glyph>
<glyph name="scedilla" format="2">
  <advance width="916"/>
  <unicode hex="015F"/>
  <outline>
    <contour>
      <point x="213.0" y="-465.0" type="curve" smooth="yes"/>
      <point x="352.0" y="-465.0"/>
      <point x="440.0" y="-375.0"/>
      <point x="440.0" y="-275.0" type="curve" smooth="yes"/>
      <point x="440.0" y="-215.0"/>
      <point x="398.0" y="-169.0"/>
      <point x="273.0" y="-133.0" type="curve"/>
      <point x="287.0" y="-155.0" type="line"/>
      <point x="421.0" y="0.0" type="line"/>
      <point x="365.0" y="0.0" type="line"/>
      <point x="205.0" y="-183.0" type="line"/>
      <point x="204.0" y="-187.0" type="line"/>
      <point x="331.0" y="-219.0"/>
      <point x="373.0" y="-254.0"/>
      <point x="373.0" y="-303.0" type="curve" smooth="yes"/>
      <point x="373.0" y="-374.0"/>
      <point x="317.0" y="-425.0"/>
      <point x="233.0" y="-425.0" type="curve" smooth="yes"/>
      <point x="165.0" y="-425.0"/>
      <point x="148.0" y="-365.0"/>
      <point x="139.0" y="-365.0" type="curve" smooth="yes"/>
      <point x="111.0" y="-365.0"/>
      <point x="95.0" y="-387.0"/>
      <point x="95.0" y="-410.0" type="curve" smooth="yes"/>
      <point x="95.0" y="-440.0"/>
      <point x="120.0" y="-465.0"/>
    </contour>
    <contour>
      <point x="180" y="172" type="curve"/>
      <point x="73" y="172"/>
      <point x="46" y="147"/>
      <point x="46" y="87" type="curve" smooth="yes"/>
      <point x="46" y="23"/>
      <point x="106" y="-20"/>
      <point x="311" y="-20" type="curve" smooth="yes"/>
      <point x="602" y="-20"/>
      <point x="754" y="103"/>
      <point x="754" y="306" type="curve" smooth="yes"/>
      <point x="754" y="411"/>
      <point x="713" y="499"/>
      <point x="514" y="569" type="curve" smooth="yes"/>
      <point x="315" y="639"/>
      <point x="270" y="693"/>
      <point x="270" y="780" type="curve" smooth="yes"/>
      <point x="270" y="902"/>
      <point x="351" y="991"/>
      <point x="582" y="991" type="curve" smooth="yes"/>
      <point x="661" y="991"/>
      <point x="707" y="980"/>
      <point x="728" y="958" type="curve" smooth="yes"/>
      <point x="749" y="936"/>
      <point x="752" y="901"/>
      <point x="747" y="851" type="curve"/>
      <point x="846" y="851"/>
      <point x="869" y="873"/>
      <point x="869" y="926" type="curve" smooth="yes"/>
      <point x="869" y="994"/>
      <point x="801" y="1044"/>
      <point x="603" y="1044" type="curve" smooth="yes"/>
      <point x="330" y="1044"/>
      <point x="208" y="925"/>
      <point x="208" y="763" type="curve" smooth="yes"/>
      <point x="208" y="654"/>
      <point x="264" y="583"/>
      <point x="458" y="514" type="curve" smooth="yes"/>
      <point x="652" y="445"/>
      <point x="691" y="380"/>
      <point x="691" y="288" type="curve" smooth="yes"/>
      <point x="691" y="128"/>
      <point x="574" y="31"/>
      <point x="327" y="31" type="curve" smooth="yes"/>
      <point x="259" y="31"/>
      <point x="220.0" y="38.0"/>
      <point x="200" y="61" type="curve" smooth="yes"/>
      <point x="180" y="84"/>
      <point x="177" y="117"/>
    </contour>
  </outline>
</glyph>
<glyph name="uni0162" format="2">
  <advance width="1323"/>
  <unicode hex="0162"/>
  <outline>
    <contour>
      <point x="1428.0" y="1350.0" type="line"/>
      <point x="1384.0" y="1372.0" type="line"/>
      <point x="1364.0" y="1044.0" type="line"/>
      <point x="1422.0" y="1044.0" type="line"/>
      <point x="1492.0" y="1484.0" type="line"/>
      <point x="1433.0" y="1484.0" type="line"/>
      <point x="1395.0" y="1398.0" type="line"/>
      <point x="1466.0" y="1414.0" type="line"/>
      <point x="425.0" y="1414.0" type="line"/>
      <point x="474.0" y="1398.0" type="line"/>
      <point x="488.0" y="1484.0" type="line"/>
      <point x="423.0" y="1484.0" type="line"/>
      <point x="226.0" y="1044.0" type="line"/>
      <point x="288.0" y="1044.0" type="line"/>
      <point x="468.0" y="1372.0" type="line"/>
      <point x="402.0" y="1350.0" type="line"/>
    </contour>
    <contour>
      <point x="896.0" y="1407.0" type="line"/>
      <point x="485.0" y="63.0" type="line"/>
      <point x="270.0" y="47.0" type="line"/>
      <point x="256.0" y="0.0" type="line"/>
      <point x="752.0" y="0.0" type="line"/>
      <point x="766.0" y="47.0" type="line"/>
      <point x="561.0" y="63.0" type="line"/>
      <point x="972.0" y="1407.0" type="line"/>
    </contour>
    <contour>
      <point x="353.0" y="-465.0" type="curve" smooth="yes"/>
      <point x="492.0" y="-465.0"/>
      <point x="580.0" y="-375.0"/>
      <point x="580.0" y="-275.0" type="curve" smooth="yes"/>
      <point x="580.0" y="-215.0"/>
      <point x="538.0" y="-169.0"/>
      <point x="413.0" y="-133.0" type="curve"/>
      <point x="423.0" y="-155.0" type="line"/>
      <point x="531.0" y="0.0" type="line"/>
      <point x="475.0" y="0.0" type="line"/>
      <point x="345.0" y="-183.0" type="line"/>
      <point x="344.0" y="-187.0" type="line"/>
      <point x="471.0" y="-219.0"/>
      <point x="513.0" y="-254.0"/>
      <point x="513.0" y="-303.0" type="curve" smooth="yes"/>
      <point x="513.0" y="-374.0"/>
      <point x="457.0" y="-425.0"/>
      <point x="373.0" y="-425.0" type="curve" smooth="yes"/>
      <point x="305.0" y="-425.0"/>
      <point x="288.0" y="-365.0"/>
      <point x="279.0" y="-365.0" type="curve" smooth="yes"/>
      <point x="251.0" y="-365.0"/>
      <point x="235.0" y="-387.0"/>
      <point x="235.0" y="-410.0" type="curve" smooth="yes"/>
      <point x="235.0" y="-440.0"/>
      <point x="260.0" y="-465.0"/>
    </contour>
  </outline>
</glyph>
<glyph name="uni0163" format="2">
	<unicode hex="0163"/>
	<advance width="754"/>
	<outline>
		<contour>
			<point x="159" y="967" type="line"/>
			<point x="790" y="967" type="line"/>
			<point x="790" y="1024" type="line"/>
			<point x="159" y="1024" type="line"/>
		</contour>
		<contour>
			<point x="279" y="246" type="curve" smooth="yes"/>
			<point x="583" y="1233" type="line"/>
			<point x="513" y="1233" type="line"/>
			<point x="212" y="258" type="line" smooth="yes"/>
			<point x="194" y="199"/>
			<point x="186" y="151"/>
			<point x="186" y="113" type="curve" smooth="yes"/>
			<point x="186" y="11"/>
			<point x="245" y="-20"/>
			<point x="319" y="-20" type="curve" smooth="yes"/>
			<point x="427" y="-20"/>
			<point x="508" y="29"/>
			<point x="652" y="175" type="curve"/>
			<point x="628" y="203" type="line"/>
			<point x="473" y="59"/>
			<point x="405" y="38"/>
			<point x="333" y="38" type="curve" smooth="yes"/>
			<point x="285" y="38"/>
			<point x="255" y="57"/>
			<point x="255" y="119" type="curve" smooth="yes"/>
			<point x="255" y="150"/>
			<point x="262" y="191"/>
		</contour>
		<contour>
			<point x="206" y="-465" type="curve" smooth="yes"/>
			<point x="345" y="-465"/>
			<point x="433" y="-375"/>
			<point x="433" y="-275" type="curve" smooth="yes"/>
			<point x="433" y="-215"/>
			<point x="391" y="-169"/>
			<point x="266" y="-133" type="curve"/>
			<point x="280" y="-155" type="line"/>
			<point x="414" y="0" type="line"/>
			<point x="358" y="0" type="line"/>
			<point x="198" y="-183" type="line"/>
			<point x="197" y="-187" type="line"/>
			<point x="324" y="-219"/>
			<point x="366" y="-254"/>
			<point x="366" y="-303" type="curve" smooth="yes"/>
			<point x="366" y="-374"/>
			<point x="310" y="-425"/>
			<point x="226" y="-425" type="curve" smooth="yes"/>
			<point x="158" y="-425"/>
			<point x="141" y="-365"/>
			<point x="132" y="-365" type="curve" smooth="yes"/>
			<point x="104" y="-365"/>
			<point x="88" y="-387"/>
			<point x="88" y="-410" type="curve" smooth="yes"/>
			<point x="88" y="-440"/>
			<point x="113" y="-465"/>
		</contour>
	</outline>
</glyph>
<glyph name="Tbar" format="2">
  <advance width="1330"/>
  <unicode hex="0166"/>
  <outline>
    <contour>
      <point x="369.0" y="689.0" type="line"/>
      <point x="1062.0" y="689.0" type="line"/>
      <point x="1083.0" y="756.0" type="line"/>
      <point x="390.0" y="756.0" type="line"/>
    </contour>
    <contour>
      <point x="1429.0" y="1350.0" type="line"/>
      <point x="1385.0" y="1372.0" type="line"/>
      <point x="1365.0" y="1044.0" type="line"/>
      <point x="1423.0" y="1044.0" type="line"/>
      <point x="1493.0" y="1484.0" type="line"/>
      <point x="1434.0" y="1484.0" type="line"/>
      <point x="1396.0" y="1398.0" type="line"/>
      <point x="1467.0" y="1414.0" type="line"/>
      <point x="426.0" y="1414.0" type="line"/>
      <point x="475.0" y="1398.0" type="line"/>
      <point x="489.0" y="1484.0" type="line"/>
      <point x="424.0" y="1484.0" type="line"/>
      <point x="227.0" y="1044.0" type="line"/>
      <point x="289.0" y="1044.0" type="line"/>
      <point x="469.0" y="1372.0" type="line"/>
      <point x="403.0" y="1350.0" type="line"/>
    </contour>
    <contour>
      <point x="897.0" y="1407.0" type="line"/>
      <point x="486.0" y="63.0" type="line"/>
      <point x="271.0" y="47.0" type="line"/>
      <point x="257.0" y="0.0" type="line"/>
      <point x="753.0" y="0.0" type="line"/>
      <point x="767.0" y="47.0" type="line"/>
      <point x="562.0" y="63.0" type="line"/>
      <point x="973.0" y="1407.0" type="line"/>
    </contour>
  </outline>
</glyph>
<glyph name="tbar" format="2">
	<unicode hex="0167"/>
	<advance width="799"/>
	<outline>
		<contour>
			<point x="134" y="547" type="line"/>
			<point x="682" y="547" type="line"/>
			<point x="702" y="614" type="line"/>
			<point x="155" y="614" type="line"/>
		</contour>
		<contour>
			<point x="191" y="967" type="line"/>
			<point x="822" y="967" type="line"/>
			<point x="822" y="1024" type="line"/>
			<point x="191" y="1024" type="line"/>
		</contour>
		<contour>
			<point x="287" y="119" type="curve" smooth="yes"/>
			<point x="287" y="150"/>
			<point x="294" y="191"/>
			<point x="311" y="246" type="curve" smooth="yes"/>
			<point x="615" y="1233" type="line"/>
			<point x="545" y="1233" type="line"/>
			<point x="244" y="258" type="line" smooth="yes"/>
			<point x="226" y="199"/>
			<point x="218" y="151"/>
			<point x="218" y="113" type="curve" smooth="yes"/>
			<point x="218" y="11"/>
			<point x="277" y="-20"/>
			<point x="351" y="-20" type="curve" smooth="yes"/>
			<point x="459" y="-20"/>
			<point x="540" y="29"/>
			<point x="684" y="175" type="curve"/>
			<point x="660" y="203" type="line"/>
			<point x="505" y="59"/>
			<point x="437" y="38"/>
			<point x="365" y="38" type="curve" smooth="yes"/>
			<point x="317" y="38"/>
			<point x="287" y="57"/>
		</contour>
	</outline>
</glyph>
<glyph name="Uogonek" format="2">
	<unicode hex="0172"/>
	<advance width="1586"/>
	<outline>
		<contour>
			<point x="385" y="570" type="curve" smooth="yes"/>
			<point x="624" y="1351" type="line"/>
			<point x="838" y="1367" type="line"/>
			<point x="853" y="1414" type="line"/>
			<point x="357" y="1414" type="line"/>
			<point x="342" y="1367" type="line"/>
			<point x="548" y="1351" type="line"/>
			<point x="308" y="568" type="line" smooth="yes"/>
			<point x="172" y="124"/>
			<point x="327" y="-20"/>
			<point x="681" y="-20" type="curve" smooth="yes"/>
			<point x="983" y="-20"/>
			<point x="1179" y="118"/>
			<point x="1300" y="514" type="curve" smooth="yes"/>
			<point x="1555" y="1351" type="line"/>
			<point x="1770" y="1367" type="line"/>
			<point x="1785" y="1414" type="line"/>
			<point x="1300" y="1414" type="line"/>
			<point x="1286" y="1367" type="line"/>
			<point x="1491" y="1351" type="line"/>
			<point x="1254" y="574" type="line" smooth="yes"/>
			<point x="1131" y="173"/>
			<point x="975" y="50"/>
			<point x="693" y="50" type="curve" smooth="yes"/>
			<point x="370" y="50"/>
			<point x="264" y="174"/>
		</contour>
		<contour>
			<point x="522" y="-332" type="curve" smooth="yes"/>
			<point x="522" y="-291"/>
			<point x="529" y="-232"/>
			<point x="621" y="-127" type="curve" smooth="yes"/>
			<point x="733" y="0" type="line"/>
			<point x="677" y="0" type="line"/>
			<point x="573" y="-113" type="line" smooth="yes"/>
			<point x="455" y="-241"/>
			<point x="445" y="-301"/>
			<point x="445" y="-354" type="curve" smooth="yes"/>
			<point x="445" y="-414"/>
			<point x="480" y="-465"/>
			<point x="573" y="-465" type="curve" smooth="yes"/>
			<point x="626" y="-465"/>
			<point x="679" y="-449"/>
			<point x="732" y="-411" type="curve"/>
			<point x="732" y="-367" type="line"/>
			<point x="677" y="-398"/>
			<point x="650" y="-406"/>
			<point x="610" y="-406" type="curve" smooth="yes"/>
			<point x="553" y="-406"/>
			<point x="522" y="-376"/>
		</contour>
	</outline>
</glyph>
